<?xml version="1.0" encoding="UTF-8" standalone="no"?>
<!DOCTYPE svg PUBLIC "-//W3C//DTD SVG 1.1//EN"
 "http://www.w3.org/Graphics/SVG/1.1/DTD/svg11.dtd">
<!-- Generated by graphviz version 2.43.0 (0)
 -->
<!-- Title: %3 Pages: 1 -->
<svg width="369pt" height="392pt"
 viewBox="0.00 0.00 369.40 392.00" xmlns="http://www.w3.org/2000/svg" xmlns:xlink="http://www.w3.org/1999/xlink">
<g id="graph0" class="graph" transform="scale(1 1) rotate(0) translate(4 388)">
<title>%3</title>
<polygon fill="white" stroke="transparent" points="-4,4 -4,-388 365.4,-388 365.4,4 -4,4"/>
<!-- mpg -->
<g id="node1" class="node">
<title>mpg</title>
<ellipse fill="none" stroke="black" cx="34.8" cy="-279" rx="31.4" ry="18"/>
<text text-anchor="middle" x="34.8" y="-275.3" font-family="Times,serif" font-size="14.00">mpg</text>
</g>
<!-- displacement -->
<g id="node3" class="node">
<title>displacement</title>
<ellipse fill="none" stroke="black" cx="99.8" cy="-105" rx="72.59" ry="18"/>
<text text-anchor="middle" x="99.8" y="-101.3" font-family="Times,serif" font-size="14.00">displacement</text>
</g>
<!-- mpg&#45;&gt;displacement -->
<g id="edge2" class="edge">
<title>mpg&#45;&gt;displacement</title>
<path fill="none" stroke="black" d="M35.16,-260.73C35.61,-251.03 36.61,-238.75 38.8,-228 43.85,-203.21 45.96,-196.86 56.8,-174 63.79,-159.27 73.34,-143.85 81.66,-131.41"/>
<polygon fill="black" stroke="black" points="84.7,-133.18 87.46,-122.94 78.92,-129.22 84.7,-133.18"/>
<text text-anchor="middle" x="75.3" y="-188.3" font-family="Times,serif" font-size="14.00">&#45;0.64</text>
</g>
<!-- horsepower -->
<g id="node4" class="node">
<title>horsepower</title>
<ellipse fill="none" stroke="black" cx="201.8" cy="-192" rx="65.79" ry="18"/>
<text text-anchor="middle" x="201.8" y="-188.3" font-family="Times,serif" font-size="14.00">horsepower</text>
</g>
<!-- mpg&#45;&gt;horsepower -->
<g id="edge5" class="edge">
<title>mpg&#45;&gt;horsepower</title>
<path fill="none" stroke="black" d="M36.42,-260.86C38.34,-249.96 42.56,-236.37 51.8,-228 64.2,-216.76 100.33,-208.15 134.01,-202.28"/>
<polygon fill="black" stroke="black" points="134.61,-205.73 143.89,-200.62 133.45,-198.82 134.61,-205.73"/>
<text text-anchor="middle" x="70.3" y="-231.8" font-family="Times,serif" font-size="14.00">&#45;1.40</text>
</g>
<!-- weight -->
<g id="node5" class="node">
<title>weight</title>
<ellipse fill="none" stroke="black" cx="180.8" cy="-18" rx="42.49" ry="18"/>
<text text-anchor="middle" x="180.8" y="-14.3" font-family="Times,serif" font-size="14.00">weight</text>
</g>
<!-- mpg&#45;&gt;weight -->
<g id="edge8" class="edge">
<title>mpg&#45;&gt;weight</title>
<path fill="none" stroke="black" d="M26.87,-261.42C11.18,-225.96 -19.26,-141.51 17.8,-87 43.04,-49.87 92.73,-32.97 130.64,-25.3"/>
<polygon fill="black" stroke="black" points="131.31,-28.74 140.5,-23.46 130.03,-21.86 131.31,-28.74"/>
<text text-anchor="middle" x="23.8" y="-144.8" font-family="Times,serif" font-size="14.00">&#45;17.70</text>
</g>
<!-- cylinders -->
<g id="node2" class="node">
<title>cylinders</title>
<ellipse fill="none" stroke="black" cx="138.8" cy="-366" rx="53.09" ry="18"/>
<text text-anchor="middle" x="138.8" y="-362.3" font-family="Times,serif" font-size="14.00">cylinders</text>
</g>
<!-- cylinders&#45;&gt;mpg -->
<g id="edge1" class="edge">
<title>cylinders&#45;&gt;mpg</title>
<path fill="none" stroke="black" d="M99.45,-353.71C85.66,-348.27 70.87,-340.56 59.8,-330 53.04,-323.55 47.83,-314.87 43.96,-306.56"/>
<polygon fill="black" stroke="black" points="47.1,-305 40.01,-297.13 40.64,-307.7 47.1,-305"/>
<text text-anchor="middle" x="78.3" y="-318.8" font-family="Times,serif" font-size="14.00">&#45;3.55</text>
</g>
<!-- cylinders&#45;&gt;displacement -->
<g id="edge3" class="edge">
<title>cylinders&#45;&gt;displacement</title>
<path fill="none" stroke="black" d="M136.24,-348.01C129.63,-304.1 111.94,-186.6 103.89,-133.15"/>
<polygon fill="black" stroke="black" points="107.32,-132.42 102.37,-123.06 100.4,-133.47 107.32,-132.42"/>
<text text-anchor="middle" x="141.3" y="-231.8" font-family="Times,serif" font-size="14.00">40.12</text>
</g>
<!-- cylinders&#45;&gt;horsepower -->
<g id="edge6" class="edge">
<title>cylinders&#45;&gt;horsepower</title>
<path fill="none" stroke="black" d="M144.71,-348.02C151.91,-327.4 164.52,-291.56 175.8,-261 180.88,-247.25 186.69,-232 191.53,-219.43"/>
<polygon fill="black" stroke="black" points="194.83,-220.59 195.17,-210.01 188.3,-218.07 194.83,-220.59"/>
<text text-anchor="middle" x="196.3" y="-275.3" font-family="Times,serif" font-size="14.00">10.14</text>
</g>
<!-- acceleration -->
<g id="node6" class="node">
<title>acceleration</title>
<ellipse fill="none" stroke="black" cx="293.8" cy="-279" rx="67.69" ry="18"/>
<text text-anchor="middle" x="293.8" y="-275.3" font-family="Times,serif" font-size="14.00">acceleration</text>
</g>
<!-- cylinders&#45;&gt;acceleration -->
<g id="edge12" class="edge">
<title>cylinders&#45;&gt;acceleration</title>
<path fill="none" stroke="black" d="M165.45,-350.39C190.57,-336.61 228.44,-315.84 256.55,-300.43"/>
<polygon fill="black" stroke="black" points="258.59,-303.3 265.67,-295.43 255.22,-297.17 258.59,-303.3"/>
<text text-anchor="middle" x="244.3" y="-318.8" font-family="Times,serif" font-size="14.00">&#45;0.82</text>
</g>
<!-- displacement&#45;&gt;weight -->
<g id="edge9" class="edge">
<title>displacement&#45;&gt;weight</title>
<path fill="none" stroke="black" d="M115.81,-87.21C128.02,-74.39 145,-56.57 158.54,-42.36"/>
<polygon fill="black" stroke="black" points="161.29,-44.55 165.65,-34.9 156.22,-39.72 161.29,-44.55"/>
<text text-anchor="middle" x="161.8" y="-57.8" font-family="Times,serif" font-size="14.00">5.24</text>
</g>
<!-- horsepower&#45;&gt;displacement -->
<g id="edge4" class="edge">
<title>horsepower&#45;&gt;displacement</title>
<path fill="none" stroke="black" d="M182.14,-174.61C166.61,-161.68 144.77,-143.47 127.48,-129.07"/>
<polygon fill="black" stroke="black" points="129.33,-126.05 119.41,-122.34 124.85,-131.43 129.33,-126.05"/>
<text text-anchor="middle" x="173.8" y="-144.8" font-family="Times,serif" font-size="14.00">0.83</text>
</g>
<!-- horsepower&#45;&gt;weight -->
<g id="edge10" class="edge">
<title>horsepower&#45;&gt;weight</title>
<path fill="none" stroke="black" d="M199.71,-173.88C196.06,-144 188.51,-82.11 184.13,-46.27"/>
<polygon fill="black" stroke="black" points="187.57,-45.55 182.88,-36.05 180.62,-46.4 187.57,-45.55"/>
<text text-anchor="middle" x="209.8" y="-101.3" font-family="Times,serif" font-size="14.00">6.49</text>
</g>
<!-- acceleration&#45;&gt;horsepower -->
<g id="edge7" class="edge">
<title>acceleration&#45;&gt;horsepower</title>
<path fill="none" stroke="black" d="M268.99,-262.01C260.95,-256.38 252.21,-249.77 244.8,-243 236.56,-235.47 228.36,-226.42 221.37,-218.11"/>
<polygon fill="black" stroke="black" points="223.86,-215.63 214.81,-210.12 218.45,-220.07 223.86,-215.63"/>
<text text-anchor="middle" x="263.3" y="-231.8" font-family="Times,serif" font-size="14.00">&#45;4.77</text>
</g>
<!-- acceleration&#45;&gt;weight -->
<g id="edge11" class="edge">
<title>acceleration&#45;&gt;weight</title>
<path fill="none" stroke="black" d="M292.74,-260.64C291.04,-239.64 286.84,-203.44 276.8,-174 259.6,-123.56 223.5,-72.41 200.8,-43.32"/>
<polygon fill="black" stroke="black" points="203.45,-41.03 194.5,-35.36 197.96,-45.38 203.45,-41.03"/>
<text text-anchor="middle" x="290.3" y="-144.8" font-family="Times,serif" font-size="14.00">61.92</text>
</g>
</g>
</svg>
