<?xml version="1.0" encoding="UTF-8" standalone="no"?>
<!DOCTYPE svg PUBLIC "-//W3C//DTD SVG 1.1//EN"
 "http://www.w3.org/Graphics/SVG/1.1/DTD/svg11.dtd">
<!-- Generated by graphviz version 2.43.0 (0)
 -->
<!-- Title: %3 Pages: 1 -->
<svg width="516pt" height="740pt"
 viewBox="0.00 0.00 516.50 740.00" xmlns="http://www.w3.org/2000/svg" xmlns:xlink="http://www.w3.org/1999/xlink">
<g id="graph0" class="graph" transform="scale(1 1) rotate(0) translate(4 736)">
<title>%3</title>
<polygon fill="white" stroke="transparent" points="-4,4 -4,-736 512.5,-736 512.5,4 -4,4"/>
<!-- praf -->
<g id="node1" class="node">
<title>praf</title>
<ellipse fill="none" stroke="black" cx="213" cy="-540" rx="29.8" ry="18"/>
<text text-anchor="middle" x="213" y="-536.3" font-family="Times,serif" font-size="14.00">praf</text>
</g>
<!-- pmek -->
<g id="node2" class="node">
<title>pmek</title>
<ellipse fill="none" stroke="black" cx="211" cy="-453" rx="36.29" ry="18"/>
<text text-anchor="middle" x="211" y="-449.3" font-family="Times,serif" font-size="14.00">pmek</text>
</g>
<!-- praf&#45;&gt;pmek -->
<g id="edge4" class="edge">
<title>praf&#45;&gt;pmek</title>
<path fill="none" stroke="black" d="M212.6,-521.8C212.32,-510.16 211.95,-494.55 211.64,-481.24"/>
<polygon fill="black" stroke="black" points="215.14,-481.09 211.4,-471.18 208.14,-481.26 215.14,-481.09"/>
<text text-anchor="middle" x="223.5" y="-492.8" font-family="Times,serif" font-size="14.00">1.0</text>
</g>
<!-- P38 -->
<g id="node10" class="node">
<title>P38</title>
<ellipse fill="none" stroke="black" cx="167" cy="-366" rx="28.7" ry="18"/>
<text text-anchor="middle" x="167" y="-362.3" font-family="Times,serif" font-size="14.00">P38</text>
</g>
<!-- pmek&#45;&gt;P38 -->
<g id="edge21" class="edge">
<title>pmek&#45;&gt;P38</title>
<path fill="none" stroke="black" d="M202.31,-435.21C196,-423.02 187.35,-406.32 180.2,-392.49"/>
<polygon fill="black" stroke="black" points="183.23,-390.74 175.53,-383.47 177.01,-393.96 183.23,-390.74"/>
<text text-anchor="middle" x="202.5" y="-405.8" font-family="Times,serif" font-size="14.00">1.0</text>
</g>
<!-- plcg -->
<g id="node3" class="node">
<title>plcg</title>
<ellipse fill="none" stroke="black" cx="350" cy="-627" rx="30.59" ry="18"/>
<text text-anchor="middle" x="350" y="-623.3" font-family="Times,serif" font-size="14.00">plcg</text>
</g>
<!-- plcg&#45;&gt;praf -->
<g id="edge1" class="edge">
<title>plcg&#45;&gt;praf</title>
<path fill="none" stroke="black" d="M320.76,-621.71C298.17,-617.2 267.13,-608.24 245,-591 236.67,-584.51 229.89,-575.22 224.74,-566.39"/>
<polygon fill="black" stroke="black" points="227.79,-564.67 219.98,-557.51 221.62,-567.97 227.79,-564.67"/>
<text text-anchor="middle" x="256.5" y="-579.8" font-family="Times,serif" font-size="14.00">1.0</text>
</g>
<!-- plcg&#45;&gt;pmek -->
<g id="edge5" class="edge">
<title>plcg&#45;&gt;pmek</title>
<path fill="none" stroke="black" d="M336.22,-610.84C330.77,-604.75 324.51,-597.61 319,-591 282.11,-546.75 274.77,-534.16 239,-489 236.15,-485.4 233.13,-481.61 230.16,-477.89"/>
<polygon fill="black" stroke="black" points="232.84,-475.63 223.86,-470 227.37,-480 232.84,-475.63"/>
<text text-anchor="middle" x="303.5" y="-536.3" font-family="Times,serif" font-size="14.00">1.0</text>
</g>
<!-- PIP3 -->
<g id="node5" class="node">
<title>PIP3</title>
<ellipse fill="none" stroke="black" cx="476" cy="-540" rx="32.49" ry="18"/>
<text text-anchor="middle" x="476" y="-536.3" font-family="Times,serif" font-size="14.00">PIP3</text>
</g>
<!-- plcg&#45;&gt;PIP3 -->
<g id="edge9" class="edge">
<title>plcg&#45;&gt;PIP3</title>
<path fill="none" stroke="black" d="M374.6,-615.93C388.71,-609.65 406.46,-600.9 421,-591 432.78,-582.98 444.64,-572.57 454.31,-563.32"/>
<polygon fill="black" stroke="black" points="456.86,-565.73 461.55,-556.23 451.96,-560.73 456.86,-565.73"/>
<text text-anchor="middle" x="451.5" y="-579.8" font-family="Times,serif" font-size="14.00">1.0</text>
</g>
<!-- p44/42 -->
<g id="node6" class="node">
<title>p44/42</title>
<ellipse fill="none" stroke="black" cx="282" cy="-192" rx="42.79" ry="18"/>
<text text-anchor="middle" x="282" y="-188.3" font-family="Times,serif" font-size="14.00">p44/42</text>
</g>
<!-- plcg&#45;&gt;p44/42 -->
<g id="edge11" class="edge">
<title>plcg&#45;&gt;p44/42</title>
<path fill="none" stroke="black" d="M354.68,-609.04C356.04,-603.35 357.33,-596.95 358,-591 358.75,-584.38 358.09,-582.67 358,-576 356,-435.1 360.75,-396.48 322,-261 317.67,-245.84 316.78,-241.71 309,-228 306.97,-224.42 304.61,-220.81 302.14,-217.33"/>
<polygon fill="black" stroke="black" points="304.73,-214.95 295.92,-209.06 299.13,-219.16 304.73,-214.95"/>
<text text-anchor="middle" x="364.5" y="-405.8" font-family="Times,serif" font-size="14.00">1.0</text>
</g>
<!-- pakts473 -->
<g id="node7" class="node">
<title>pakts473</title>
<ellipse fill="none" stroke="black" cx="80" cy="-279" rx="53.89" ry="18"/>
<text text-anchor="middle" x="80" y="-275.3" font-family="Times,serif" font-size="14.00">pakts473</text>
</g>
<!-- plcg&#45;&gt;pakts473 -->
<g id="edge14" class="edge">
<title>plcg&#45;&gt;pakts473</title>
<path fill="none" stroke="black" d="M319.55,-625.09C234.4,-621.72 0,-606.5 0,-541 0,-541 0,-541 0,-365 0,-337.39 22.65,-315.1 43.85,-300.28"/>
<polygon fill="black" stroke="black" points="46.06,-303.02 52.47,-294.58 42.2,-297.18 46.06,-303.02"/>
<text text-anchor="middle" x="11.5" y="-449.3" font-family="Times,serif" font-size="14.00">1.0</text>
</g>
<!-- PKA -->
<g id="node8" class="node">
<title>PKA</title>
<ellipse fill="none" stroke="black" cx="283" cy="-279" rx="29.8" ry="18"/>
<text text-anchor="middle" x="283" y="-275.3" font-family="Times,serif" font-size="14.00">PKA</text>
</g>
<!-- plcg&#45;&gt;PKA -->
<g id="edge17" class="edge">
<title>plcg&#45;&gt;PKA</title>
<path fill="none" stroke="black" d="M347.93,-608.95C342,-561.72 323.51,-425.43 295,-315 294.28,-312.2 293.44,-309.3 292.55,-306.43"/>
<polygon fill="black" stroke="black" points="295.86,-305.32 289.4,-296.93 289.22,-307.52 295.86,-305.32"/>
<text text-anchor="middle" x="338.5" y="-449.3" font-family="Times,serif" font-size="14.00">1.0</text>
</g>
<!-- pjnk -->
<g id="node11" class="node">
<title>pjnk</title>
<ellipse fill="none" stroke="black" cx="200" cy="-105" rx="30.59" ry="18"/>
<text text-anchor="middle" x="200" y="-101.3" font-family="Times,serif" font-size="14.00">pjnk</text>
</g>
<!-- plcg&#45;&gt;pjnk -->
<g id="edge23" class="edge">
<title>plcg&#45;&gt;pjnk</title>
<path fill="none" stroke="black" d="M368,-612.15C385.68,-596.85 410,-570.44 410,-541 410,-541 410,-541 410,-191 410,-118.87 302.23,-106.46 241.1,-105.23"/>
<polygon fill="black" stroke="black" points="241.02,-101.73 230.99,-105.12 240.95,-108.73 241.02,-101.73"/>
<text text-anchor="middle" x="421.5" y="-362.3" font-family="Times,serif" font-size="14.00">1.0</text>
</g>
<!-- PIP2 -->
<g id="node4" class="node">
<title>PIP2</title>
<ellipse fill="none" stroke="black" cx="416" cy="-714" rx="32.49" ry="18"/>
<text text-anchor="middle" x="416" y="-710.3" font-family="Times,serif" font-size="14.00">PIP2</text>
</g>
<!-- PIP2&#45;&gt;plcg -->
<g id="edge8" class="edge">
<title>PIP2&#45;&gt;plcg</title>
<path fill="none" stroke="black" d="M403.59,-697.01C393.66,-684.23 379.6,-666.12 368.37,-651.65"/>
<polygon fill="black" stroke="black" points="371.03,-649.38 362.14,-643.63 365.5,-653.67 371.03,-649.38"/>
<text text-anchor="middle" x="397.5" y="-666.8" font-family="Times,serif" font-size="14.00">1.0</text>
</g>
<!-- PIP2&#45;&gt;PIP3 -->
<g id="edge10" class="edge">
<title>PIP2&#45;&gt;PIP3</title>
<path fill="none" stroke="black" d="M424.29,-696.45C435.52,-673.37 455.5,-629.97 467,-591 469.14,-583.76 470.85,-575.76 472.19,-568.33"/>
<polygon fill="black" stroke="black" points="475.66,-568.77 473.83,-558.34 468.76,-567.64 475.66,-568.77"/>
<text text-anchor="middle" x="471.5" y="-623.3" font-family="Times,serif" font-size="14.00">1.0</text>
</g>
<!-- p44/42&#45;&gt;pjnk -->
<g id="edge24" class="edge">
<title>p44/42&#45;&gt;pjnk</title>
<path fill="none" stroke="black" d="M266.58,-175.01C253.86,-161.83 235.66,-142.97 221.51,-128.3"/>
<polygon fill="black" stroke="black" points="223.99,-125.83 214.53,-121.06 218.95,-130.69 223.99,-125.83"/>
<text text-anchor="middle" x="256.5" y="-144.8" font-family="Times,serif" font-size="14.00">1.0</text>
</g>
<!-- pakts473&#45;&gt;praf -->
<g id="edge2" class="edge">
<title>pakts473&#45;&gt;praf</title>
<path fill="none" stroke="black" d="M77.6,-297.41C74.7,-324.88 72.69,-379.05 95,-417 119.36,-458.44 160.59,-496.6 187.3,-518.84"/>
<polygon fill="black" stroke="black" points="185.13,-521.59 195.08,-525.22 189.56,-516.17 185.13,-521.59"/>
<text text-anchor="middle" x="106.5" y="-405.8" font-family="Times,serif" font-size="14.00">1.0</text>
</g>
<!-- pakts473&#45;&gt;pmek -->
<g id="edge6" class="edge">
<title>pakts473&#45;&gt;pmek</title>
<path fill="none" stroke="black" d="M80.5,-297.07C81.93,-319.08 87.17,-357.65 106,-384 123.09,-407.92 151.46,-425.55 174.41,-436.86"/>
<polygon fill="black" stroke="black" points="173,-440.07 183.54,-441.18 175.99,-433.74 173,-440.07"/>
<text text-anchor="middle" x="117.5" y="-362.3" font-family="Times,serif" font-size="14.00">1.0</text>
</g>
<!-- pakts473&#45;&gt;p44/42 -->
<g id="edge12" class="edge">
<title>pakts473&#45;&gt;p44/42</title>
<path fill="none" stroke="black" d="M129.7,-271.85C158.43,-266.88 194.6,-258.12 224,-243 237.19,-236.22 249.9,-225.85 260.04,-216.31"/>
<polygon fill="black" stroke="black" points="262.56,-218.75 267.26,-209.25 257.66,-213.74 262.56,-218.75"/>
<text text-anchor="middle" x="256.5" y="-231.8" font-family="Times,serif" font-size="14.00">1.0</text>
</g>
<!-- PKA&#45;&gt;praf -->
<g id="edge3" class="edge">
<title>PKA&#45;&gt;praf</title>
<path fill="none" stroke="black" d="M282.54,-297.04C281.19,-330.96 276,-409.01 256,-471 250.81,-487.09 240.91,-503.17 231.92,-515.65"/>
<polygon fill="black" stroke="black" points="229.1,-513.57 225.91,-523.67 234.71,-517.77 229.1,-513.57"/>
<text text-anchor="middle" x="282.5" y="-405.8" font-family="Times,serif" font-size="14.00">1.0</text>
</g>
<!-- PKA&#45;&gt;pmek -->
<g id="edge7" class="edge">
<title>PKA&#45;&gt;pmek</title>
<path fill="none" stroke="black" d="M273.21,-296.09C265.23,-309.62 254.01,-329.65 246,-348 234.8,-373.66 224.93,-404.13 218.55,-425.43"/>
<polygon fill="black" stroke="black" points="215.17,-424.51 215.7,-435.09 221.88,-426.49 215.17,-424.51"/>
<text text-anchor="middle" x="257.5" y="-362.3" font-family="Times,serif" font-size="14.00">1.0</text>
</g>
<!-- PKA&#45;&gt;p44/42 -->
<g id="edge13" class="edge">
<title>PKA&#45;&gt;p44/42</title>
<path fill="none" stroke="black" d="M282.8,-260.8C282.66,-249.16 282.48,-233.55 282.32,-220.24"/>
<polygon fill="black" stroke="black" points="285.82,-220.13 282.2,-210.18 278.82,-220.22 285.82,-220.13"/>
<text text-anchor="middle" x="293.5" y="-231.8" font-family="Times,serif" font-size="14.00">1.0</text>
</g>
<!-- PKC -->
<g id="node9" class="node">
<title>PKC</title>
<ellipse fill="none" stroke="black" cx="106" cy="-18" rx="30.59" ry="18"/>
<text text-anchor="middle" x="106" y="-14.3" font-family="Times,serif" font-size="14.00">PKC</text>
</g>
<!-- P38&#45;&gt;pakts473 -->
<g id="edge15" class="edge">
<title>P38&#45;&gt;pakts473</title>
<path fill="none" stroke="black" d="M149.76,-351.57C141.98,-345.27 132.8,-337.5 125,-330 116.71,-322.02 108.14,-312.78 100.73,-304.43"/>
<polygon fill="black" stroke="black" points="103.24,-301.99 94.02,-296.76 97.97,-306.59 103.24,-301.99"/>
<text text-anchor="middle" x="136.5" y="-318.8" font-family="Times,serif" font-size="14.00">1.0</text>
</g>
<!-- P38&#45;&gt;PKA -->
<g id="edge18" class="edge">
<title>P38&#45;&gt;PKA</title>
<path fill="none" stroke="black" d="M181.31,-350C191.76,-339.51 206.55,-325.54 221,-315 230.48,-308.08 241.45,-301.48 251.51,-295.91"/>
<polygon fill="black" stroke="black" points="253.28,-298.94 260.42,-291.11 249.96,-292.78 253.28,-298.94"/>
<text text-anchor="middle" x="232.5" y="-318.8" font-family="Times,serif" font-size="14.00">1.0</text>
</g>
<!-- P38&#45;&gt;PKC -->
<g id="edge19" class="edge">
<title>P38&#45;&gt;PKC</title>
<path fill="none" stroke="black" d="M165.49,-347.99C163.08,-326.71 157.09,-289.59 143,-261 130.02,-234.66 110.92,-237.64 101,-210 81.03,-154.35 91.29,-83.6 99.37,-45.76"/>
<polygon fill="black" stroke="black" points="102.79,-46.52 101.56,-36 95.96,-44.98 102.79,-46.52"/>
<text text-anchor="middle" x="112.5" y="-188.3" font-family="Times,serif" font-size="14.00">1.0</text>
</g>
<!-- pjnk&#45;&gt;pakts473 -->
<g id="edge16" class="edge">
<title>pjnk&#45;&gt;pakts473</title>
<path fill="none" stroke="black" d="M188.75,-122.12C167.81,-152.15 122.67,-216.84 97.63,-252.73"/>
<polygon fill="black" stroke="black" points="94.58,-250.99 91.72,-261.19 100.32,-255 94.58,-250.99"/>
<text text-anchor="middle" x="162.5" y="-188.3" font-family="Times,serif" font-size="14.00">1.0</text>
</g>
<!-- pjnk&#45;&gt;PKC -->
<g id="edge20" class="edge">
<title>pjnk&#45;&gt;PKC</title>
<path fill="none" stroke="black" d="M184.05,-89.58C169.2,-76.15 146.85,-55.94 129.87,-40.59"/>
<polygon fill="black" stroke="black" points="131.79,-37.6 122.02,-33.49 127.09,-42.79 131.79,-37.6"/>
<text text-anchor="middle" x="169.5" y="-57.8" font-family="Times,serif" font-size="14.00">1.0</text>
</g>
<!-- pjnk&#45;&gt;P38 -->
<g id="edge22" class="edge">
<title>pjnk&#45;&gt;P38</title>
<path fill="none" stroke="black" d="M198.22,-123.18C194.28,-160.76 184.22,-253.06 173,-330 172.63,-332.56 172.21,-335.23 171.78,-337.89"/>
<polygon fill="black" stroke="black" points="168.3,-337.5 170.1,-347.94 175.21,-338.65 168.3,-337.5"/>
<text text-anchor="middle" x="197.5" y="-231.8" font-family="Times,serif" font-size="14.00">1.0</text>
</g>
</g>
</svg>
