<?xml version="1.0" encoding="UTF-8" standalone="no"?>
<!DOCTYPE svg PUBLIC "-//W3C//DTD SVG 1.1//EN"
 "http://www.w3.org/Graphics/SVG/1.1/DTD/svg11.dtd">
<!-- Generated by graphviz version 2.43.0 (0)
 -->
<!-- Title: %3 Pages: 1 -->
<svg width="814pt" height="392pt"
 viewBox="0.00 0.00 814.13 392.00" xmlns="http://www.w3.org/2000/svg" xmlns:xlink="http://www.w3.org/1999/xlink">
<g id="graph0" class="graph" transform="scale(1 1) rotate(0) translate(4 388)">
<title>%3</title>
<polygon fill="white" stroke="transparent" points="-4,4 -4,-388 810.13,-388 810.13,4 -4,4"/>
<!-- mpg -->
<g id="node1" class="node">
<title>mpg</title>
<ellipse fill="none" stroke="black" cx="109.13" cy="-279" rx="31.4" ry="18"/>
<text text-anchor="middle" x="109.13" y="-275.3" font-family="Times,serif" font-size="14.00">mpg</text>
</g>
<!-- displacement -->
<g id="node3" class="node">
<title>displacement</title>
<ellipse fill="none" stroke="black" cx="303.13" cy="-105" rx="72.59" ry="18"/>
<text text-anchor="middle" x="303.13" y="-101.3" font-family="Times,serif" font-size="14.00">displacement</text>
</g>
<!-- mpg&#45;&gt;displacement -->
<g id="edge2" class="edge">
<title>mpg&#45;&gt;displacement</title>
<path fill="none" stroke="black" d="M108.14,-260.63C107.84,-237.57 110.97,-197.06 134.13,-174 162.07,-146.18 202.89,-129.32 237.41,-119.36"/>
<polygon fill="black" stroke="black" points="238.71,-122.63 247.43,-116.6 236.86,-115.88 238.71,-122.63"/>
<text text-anchor="middle" x="206.63" y="-188.3" font-family="Times,serif" font-size="14.00">&#45;2.03256227570654</text>
</g>
<!-- horsepower -->
<g id="node4" class="node">
<title>horsepower</title>
<ellipse fill="none" stroke="black" cx="448.13" cy="-192" rx="65.79" ry="18"/>
<text text-anchor="middle" x="448.13" y="-188.3" font-family="Times,serif" font-size="14.00">horsepower</text>
</g>
<!-- mpg&#45;&gt;horsepower -->
<g id="edge5" class="edge">
<title>mpg&#45;&gt;horsepower</title>
<path fill="none" stroke="black" d="M110.34,-260.97C112.09,-249.82 116.26,-235.91 126.13,-228 135.78,-220.27 284.2,-206.64 376.13,-198.86"/>
<polygon fill="black" stroke="black" points="376.54,-202.34 386.22,-198.01 375.96,-195.37 376.54,-202.34"/>
<text text-anchor="middle" x="198.63" y="-231.8" font-family="Times,serif" font-size="14.00">&#45;2.34003517426177</text>
</g>
<!-- weight -->
<g id="node5" class="node">
<title>weight</title>
<ellipse fill="none" stroke="black" cx="422.13" cy="-18" rx="42.49" ry="18"/>
<text text-anchor="middle" x="422.13" y="-14.3" font-family="Times,serif" font-size="14.00">weight</text>
</g>
<!-- mpg&#45;&gt;weight -->
<g id="edge8" class="edge">
<title>mpg&#45;&gt;weight</title>
<path fill="none" stroke="black" d="M88.06,-265.65C49.61,-241.56 -24.98,-186.64 9.13,-141 53.06,-82.22 272.46,-41.85 372.39,-26.22"/>
<polygon fill="black" stroke="black" points="373.19,-29.64 382.54,-24.65 372.13,-22.72 373.19,-29.64"/>
<text text-anchor="middle" x="81.63" y="-144.8" font-family="Times,serif" font-size="14.00">&#45;33.5886541842063</text>
</g>
<!-- cylinders -->
<g id="node2" class="node">
<title>cylinders</title>
<ellipse fill="none" stroke="black" cx="362.13" cy="-366" rx="53.09" ry="18"/>
<text text-anchor="middle" x="362.13" y="-362.3" font-family="Times,serif" font-size="14.00">cylinders</text>
</g>
<!-- cylinders&#45;&gt;mpg -->
<g id="edge1" class="edge">
<title>cylinders&#45;&gt;mpg</title>
<path fill="none" stroke="black" d="M309.72,-362.48C251.28,-358.72 161.36,-349.84 134.13,-330 126.26,-324.27 120.73,-315.36 116.9,-306.64"/>
<polygon fill="black" stroke="black" points="120.08,-305.16 113.27,-297.05 113.53,-307.64 120.08,-305.16"/>
<text text-anchor="middle" x="206.63" y="-318.8" font-family="Times,serif" font-size="14.00">&#45;2.88980482664148</text>
</g>
<!-- cylinders&#45;&gt;displacement -->
<g id="edge3" class="edge">
<title>cylinders&#45;&gt;displacement</title>
<path fill="none" stroke="black" d="M348.47,-348.56C330.95,-326.28 301.47,-284.52 290.13,-243 279.97,-205.81 287.79,-161.06 294.95,-133.07"/>
<polygon fill="black" stroke="black" points="298.39,-133.78 297.63,-123.21 291.63,-131.94 298.39,-133.78"/>
<text text-anchor="middle" x="360.13" y="-231.8" font-family="Times,serif" font-size="14.00">36.0048676951337</text>
</g>
<!-- cylinders&#45;&gt;horsepower -->
<g id="edge6" class="edge">
<title>cylinders&#45;&gt;horsepower</title>
<path fill="none" stroke="black" d="M373.85,-348.37C389.49,-325.55 417.15,-282.82 434.13,-243 437.24,-235.7 439.87,-227.51 441.97,-219.91"/>
<polygon fill="black" stroke="black" points="445.41,-220.6 444.52,-210.04 438.63,-218.85 445.41,-220.6"/>
<text text-anchor="middle" x="496.13" y="-275.3" font-family="Times,serif" font-size="14.00">6.11319623482406</text>
</g>
<!-- acceleration -->
<g id="node6" class="node">
<title>acceleration</title>
<ellipse fill="none" stroke="black" cx="670.13" cy="-279" rx="67.69" ry="18"/>
<text text-anchor="middle" x="670.13" y="-275.3" font-family="Times,serif" font-size="14.00">acceleration</text>
</g>
<!-- cylinders&#45;&gt;acceleration -->
<g id="edge12" class="edge">
<title>cylinders&#45;&gt;acceleration</title>
<path fill="none" stroke="black" d="M402.08,-353.97C456.43,-338.98 553.9,-312.08 615.13,-295.18"/>
<polygon fill="black" stroke="black" points="616.29,-298.49 625,-292.45 614.43,-291.74 616.29,-298.49"/>
<text text-anchor="middle" x="612.13" y="-318.8" font-family="Times,serif" font-size="14.00">&#45;0.644482628348417</text>
</g>
<!-- displacement&#45;&gt;weight -->
<g id="edge9" class="edge">
<title>displacement&#45;&gt;weight</title>
<path fill="none" stroke="black" d="M311.13,-86.78C316.82,-76.12 325.35,-62.84 336.13,-54 348.08,-44.2 363.14,-36.83 377.31,-31.45"/>
<polygon fill="black" stroke="black" points="378.67,-34.68 386.92,-28.03 376.33,-28.08 378.67,-34.68"/>
<text text-anchor="middle" x="406.13" y="-57.8" font-family="Times,serif" font-size="14.00">4.39362650060761</text>
</g>
<!-- horsepower&#45;&gt;displacement -->
<g id="edge4" class="edge">
<title>horsepower&#45;&gt;displacement</title>
<path fill="none" stroke="black" d="M388.86,-184.1C367.49,-179.14 344.4,-170.62 327.13,-156 319.87,-149.85 314.63,-141 310.95,-132.45"/>
<polygon fill="black" stroke="black" points="314.22,-131.2 307.42,-123.08 307.67,-133.67 314.22,-131.2"/>
<text text-anchor="middle" x="401.63" y="-144.8" font-family="Times,serif" font-size="14.00">0.766763598436401</text>
</g>
<!-- horsepower&#45;&gt;weight -->
<g id="edge10" class="edge">
<title>horsepower&#45;&gt;weight</title>
<path fill="none" stroke="black" d="M465.26,-174.27C469.66,-168.9 473.81,-162.61 476.13,-156 491.13,-113.22 497.78,-93.83 476.13,-54 472.34,-47.03 466.5,-41.23 460.03,-36.5"/>
<polygon fill="black" stroke="black" points="461.92,-33.54 451.62,-31.05 458.11,-39.42 461.92,-33.54"/>
<text text-anchor="middle" x="560.13" y="-101.3" font-family="Times,serif" font-size="14.00">8.57936162096951</text>
</g>
<!-- acceleration&#45;&gt;horsepower -->
<g id="edge7" class="edge">
<title>acceleration&#45;&gt;horsepower</title>
<path fill="none" stroke="black" d="M618.77,-267.28C571.96,-257.46 509.71,-244.27 507.13,-243 493.88,-236.48 481.13,-226.34 470.89,-216.88"/>
<polygon fill="black" stroke="black" points="473.22,-214.27 463.58,-209.86 468.37,-219.32 473.22,-214.27"/>
<text text-anchor="middle" x="579.63" y="-231.8" font-family="Times,serif" font-size="14.00">&#45;4.84723964549065</text>
</g>
<!-- acceleration&#45;&gt;weight -->
<g id="edge11" class="edge">
<title>acceleration&#45;&gt;weight</title>
<path fill="none" stroke="black" d="M672.23,-260.74C675.7,-223.95 678.35,-137.08 634.13,-87 593.88,-41.42 523.05,-26.18 474.41,-21.2"/>
<polygon fill="black" stroke="black" points="474.67,-17.71 464.39,-20.29 474.03,-24.68 474.67,-17.71"/>
<text text-anchor="middle" x="736.13" y="-144.8" font-family="Times,serif" font-size="14.00">57.9680558738073</text>
</g>
</g>
</svg>
