<?xml version="1.0" encoding="UTF-8" standalone="no"?>
<!DOCTYPE svg PUBLIC "-//W3C//DTD SVG 1.1//EN"
 "http://www.w3.org/Graphics/SVG/1.1/DTD/svg11.dtd">
<!-- Generated by graphviz version 2.40.1 (20161225.0304)
 -->
<!-- Title: %3 Pages: 1 -->
<svg width="483pt" height="740pt"
 viewBox="0.00 0.00 482.95 740.00" xmlns="http://www.w3.org/2000/svg" xmlns:xlink="http://www.w3.org/1999/xlink">
<g id="graph0" class="graph" transform="scale(1 1) rotate(0) translate(4 736)">
<title>%3</title>
<polygon fill="#ffffff" stroke="transparent" points="-4,4 -4,-736 478.9475,-736 478.9475,4 -4,4"/>
<!-- praf -->
<g id="node1" class="node">
<title>praf</title>
<ellipse fill="none" stroke="#000000" cx="198" cy="-540" rx="27" ry="18"/>
<text text-anchor="middle" x="198" y="-536.3" font-family="Times,serif" font-size="14.00" fill="#000000">praf</text>
</g>
<!-- pmek -->
<g id="node2" class="node">
<title>pmek</title>
<ellipse fill="none" stroke="#000000" cx="197" cy="-453" rx="30.5947" ry="18"/>
<text text-anchor="middle" x="197" y="-449.3" font-family="Times,serif" font-size="14.00" fill="#000000">pmek</text>
</g>
<!-- praf&#45;&gt;pmek -->
<g id="edge4" class="edge">
<title>praf&#45;&gt;pmek</title>
<path fill="none" stroke="#000000" d="M197.7928,-521.9735C197.6574,-510.1918 197.4777,-494.5607 197.3237,-481.1581"/>
<polygon fill="#000000" stroke="#000000" points="200.8217,-480.9624 197.2069,-471.0034 193.8222,-481.043 200.8217,-480.9624"/>
<text text-anchor="middle" x="206" y="-492.8" font-family="Times,serif" font-size="14.00" fill="#000000">1.0</text>
</g>
<!-- P38 -->
<g id="node10" class="node">
<title>P38</title>
<ellipse fill="none" stroke="#000000" cx="155" cy="-366" rx="27" ry="18"/>
<text text-anchor="middle" x="155" y="-362.3" font-family="Times,serif" font-size="14.00" fill="#000000">P38</text>
</g>
<!-- pmek&#45;&gt;P38 -->
<g id="edge21" class="edge">
<title>pmek&#45;&gt;P38</title>
<path fill="none" stroke="#000000" d="M188.5007,-435.3943C182.5412,-423.0496 174.4699,-406.3306 167.7431,-392.3965"/>
<polygon fill="#000000" stroke="#000000" points="170.8428,-390.7665 163.3434,-383.2827 164.539,-393.8098 170.8428,-390.7665"/>
<text text-anchor="middle" x="187" y="-405.8" font-family="Times,serif" font-size="14.00" fill="#000000">1.0</text>
</g>
<!-- plcg -->
<g id="node3" class="node">
<title>plcg</title>
<ellipse fill="none" stroke="#000000" cx="327" cy="-627" rx="27" ry="18"/>
<text text-anchor="middle" x="327" y="-623.3" font-family="Times,serif" font-size="14.00" fill="#000000">plcg</text>
</g>
<!-- plcg&#45;&gt;praf -->
<g id="edge1" class="edge">
<title>plcg&#45;&gt;praf</title>
<path fill="none" stroke="#000000" d="M300.6957,-621.9004C280.0128,-616.8399 251.3849,-607.4048 231,-591 222.8289,-584.4243 216.0261,-575.2607 210.7616,-566.5123"/>
<polygon fill="#000000" stroke="#000000" points="213.7621,-564.7063 205.8396,-557.6718 207.6461,-568.1115 213.7621,-564.7063"/>
<text text-anchor="middle" x="240" y="-579.8" font-family="Times,serif" font-size="14.00" fill="#000000">1.0</text>
</g>
<!-- plcg&#45;&gt;pmek -->
<g id="edge5" class="edge">
<title>plcg&#45;&gt;pmek</title>
<path fill="none" stroke="#000000" d="M312.5998,-611.5493C306.9536,-605.3006 300.5188,-597.9363 295,-591 264.7891,-553.0291 232.7775,-506.6257 213.8581,-478.4668"/>
<polygon fill="#000000" stroke="#000000" points="216.6633,-476.3653 208.1944,-469.9992 210.8449,-480.2572 216.6633,-476.3653"/>
<text text-anchor="middle" x="277" y="-536.3" font-family="Times,serif" font-size="14.00" fill="#000000">1.0</text>
</g>
<!-- PIP3 -->
<g id="node5" class="node">
<title>PIP3</title>
<ellipse fill="none" stroke="#000000" cx="447" cy="-540" rx="27.8951" ry="18"/>
<text text-anchor="middle" x="447" y="-536.3" font-family="Times,serif" font-size="14.00" fill="#000000">PIP3</text>
</g>
<!-- plcg&#45;&gt;PIP3 -->
<g id="edge9" class="edge">
<title>plcg&#45;&gt;PIP3</title>
<path fill="none" stroke="#000000" d="M350.1393,-617.3765C364.3221,-610.9393 382.4791,-601.7024 397,-591 407.7612,-583.0686 418.3264,-572.7723 426.9522,-563.5097"/>
<polygon fill="#000000" stroke="#000000" points="429.5902,-565.8108 433.7033,-556.0469 424.3991,-561.1147 429.5902,-565.8108"/>
<text text-anchor="middle" x="422" y="-579.8" font-family="Times,serif" font-size="14.00" fill="#000000">1.0</text>
</g>
<!-- p44/42 -->
<g id="node6" class="node">
<title>p44/42</title>
<ellipse fill="none" stroke="#000000" cx="259" cy="-192" rx="35.194" ry="18"/>
<text text-anchor="middle" x="259" y="-188.3" font-family="Times,serif" font-size="14.00" fill="#000000">p44/42</text>
</g>
<!-- plcg&#45;&gt;p44/42 -->
<g id="edge11" class="edge">
<title>plcg&#45;&gt;p44/42</title>
<path fill="none" stroke="#000000" d="M331.1724,-609.1538C332.33,-603.3937 333.4262,-596.9575 334,-591 334.6392,-584.364 334.1417,-582.6652 334,-576 331.008,-435.3113 348.3132,-393.881 302,-261 296.5797,-245.4483 287.1677,-229.7391 278.5287,-217.2467"/>
<polygon fill="#000000" stroke="#000000" points="281.1171,-214.8505 272.4429,-208.7671 275.4302,-218.932 281.1171,-214.8505"/>
<text text-anchor="middle" x="343" y="-405.8" font-family="Times,serif" font-size="14.00" fill="#000000">1.0</text>
</g>
<!-- pakts473 -->
<g id="node7" class="node">
<title>pakts473</title>
<ellipse fill="none" stroke="#000000" cx="78" cy="-279" rx="42.4939" ry="18"/>
<text text-anchor="middle" x="78" y="-275.3" font-family="Times,serif" font-size="14.00" fill="#000000">pakts473</text>
</g>
<!-- plcg&#45;&gt;pakts473 -->
<g id="edge14" class="edge">
<title>plcg&#45;&gt;pakts473</title>
<path fill="none" stroke="#000000" d="M299.962,-625.6086C221.617,-620.8461 0,-601.9033 0,-540 0,-540 0,-540 0,-366 0,-337.8297 22.9517,-314.6215 43.9547,-299.2811"/>
<polygon fill="#000000" stroke="#000000" points="46.228,-301.9643 52.4599,-293.396 42.245,-296.2079 46.228,-301.9643"/>
<text text-anchor="middle" x="9" y="-449.3" font-family="Times,serif" font-size="14.00" fill="#000000">1.0</text>
</g>
<!-- PKA -->
<g id="node8" class="node">
<title>PKA</title>
<ellipse fill="none" stroke="#000000" cx="264" cy="-279" rx="28.6953" ry="18"/>
<text text-anchor="middle" x="264" y="-275.3" font-family="Times,serif" font-size="14.00" fill="#000000">PKA</text>
</g>
<!-- plcg&#45;&gt;PKA -->
<g id="edge17" class="edge">
<title>plcg&#45;&gt;PKA</title>
<path fill="none" stroke="#000000" d="M325.0622,-608.8584C319.6831,-560.5629 303.1489,-425.0391 276,-315 275.3047,-312.1816 274.4932,-309.267 273.6261,-306.3726"/>
<polygon fill="#000000" stroke="#000000" points="276.937,-305.235 270.5523,-296.78 270.2709,-307.3711 276.937,-305.235"/>
<text text-anchor="middle" x="315" y="-449.3" font-family="Times,serif" font-size="14.00" fill="#000000">1.0</text>
</g>
<!-- pjnk -->
<g id="node11" class="node">
<title>pjnk</title>
<ellipse fill="none" stroke="#000000" cx="186" cy="-105" rx="27" ry="18"/>
<text text-anchor="middle" x="186" y="-101.3" font-family="Times,serif" font-size="14.00" fill="#000000">pjnk</text>
</g>
<!-- plcg&#45;&gt;pjnk -->
<g id="edge23" class="edge">
<title>plcg&#45;&gt;pjnk</title>
<path fill="none" stroke="#000000" d="M344.3828,-612.964C361.7864,-597.2168 386,-569.9297 386,-540 386,-540 386,-540 386,-192 386,-156.5475 278.9897,-126.4105 221.5192,-112.7817"/>
<polygon fill="#000000" stroke="#000000" points="222.2699,-109.3629 211.7371,-110.5078 220.6849,-116.1812 222.2699,-109.3629"/>
<text text-anchor="middle" x="395" y="-362.3" font-family="Times,serif" font-size="14.00" fill="#000000">1.0</text>
</g>
<!-- PIP2 -->
<g id="node4" class="node">
<title>PIP2</title>
<ellipse fill="none" stroke="#000000" cx="389" cy="-714" rx="27.8951" ry="18"/>
<text text-anchor="middle" x="389" y="-710.3" font-family="Times,serif" font-size="14.00" fill="#000000">PIP2</text>
</g>
<!-- PIP2&#45;&gt;plcg -->
<g id="edge8" class="edge">
<title>PIP2&#45;&gt;plcg</title>
<path fill="none" stroke="#000000" d="M377.3383,-697.636C368.0722,-684.6336 354.9682,-666.2457 344.4529,-651.4904"/>
<polygon fill="#000000" stroke="#000000" points="347.2633,-649.4031 338.6094,-643.2907 341.5627,-653.4656 347.2633,-649.4031"/>
<text text-anchor="middle" x="370" y="-666.8" font-family="Times,serif" font-size="14.00" fill="#000000">1.0</text>
</g>
<!-- PIP2&#45;&gt;PIP3 -->
<g id="edge10" class="edge">
<title>PIP2&#45;&gt;PIP3</title>
<path fill="none" stroke="#000000" d="M396.4234,-696.3177C406.1761,-672.6388 423.4198,-629.1801 435,-591 437.2507,-583.5795 439.3331,-575.4456 441.1097,-567.8962"/>
<polygon fill="#000000" stroke="#000000" points="444.5362,-568.6119 443.33,-558.086 437.7089,-567.0667 444.5362,-568.6119"/>
<text text-anchor="middle" x="437" y="-623.3" font-family="Times,serif" font-size="14.00" fill="#000000">1.0</text>
</g>
<!-- p44/42&#45;&gt;pjnk -->
<g id="edge24" class="edge">
<title>p44/42&#45;&gt;pjnk</title>
<path fill="none" stroke="#000000" d="M244.9249,-175.2255C233.8083,-161.977 218.1606,-143.3284 205.7838,-128.578"/>
<polygon fill="#000000" stroke="#000000" points="208.4029,-126.2542 199.2938,-120.8433 203.0405,-130.7536 208.4029,-126.2542"/>
<text text-anchor="middle" x="235" y="-144.8" font-family="Times,serif" font-size="14.00" fill="#000000">1.0</text>
</g>
<!-- pakts473&#45;&gt;praf -->
<g id="edge2" class="edge">
<title>pakts473&#45;&gt;praf</title>
<path fill="none" stroke="#000000" d="M76.1791,-297.2957C75.6947,-302.9642 75.2398,-309.2351 75,-315 73.7207,-345.7558 73.5944,-354.1217 81,-384 95.0559,-440.7089 143.332,-491.8542 173.3026,-519.1654"/>
<polygon fill="#000000" stroke="#000000" points="171.0675,-521.8617 180.8612,-525.9031 175.7253,-516.6363 171.0675,-521.8617"/>
<text text-anchor="middle" x="101" y="-405.8" font-family="Times,serif" font-size="14.00" fill="#000000">1.0</text>
</g>
<!-- pakts473&#45;&gt;pmek -->
<g id="edge6" class="edge">
<title>pakts473&#45;&gt;pmek</title>
<path fill="none" stroke="#000000" d="M78.1249,-297.2214C79.096,-319.4443 83.4688,-357.336 101,-384 116.323,-407.3055 142.4286,-425.3112 163.5519,-437.0767"/>
<polygon fill="#000000" stroke="#000000" points="162.082,-440.2595 172.5511,-441.8869 165.3818,-434.0861 162.082,-440.2595"/>
<text text-anchor="middle" x="110" y="-362.3" font-family="Times,serif" font-size="14.00" fill="#000000">1.0</text>
</g>
<!-- pakts473&#45;&gt;p44/42 -->
<g id="edge12" class="edge">
<title>pakts473&#45;&gt;p44/42</title>
<path fill="none" stroke="#000000" d="M117.6899,-272.8317C143.7496,-267.5906 177.8986,-258.3925 205,-243 217.2098,-236.0653 228.8026,-225.8028 238.0943,-216.2981"/>
<polygon fill="#000000" stroke="#000000" points="240.7306,-218.6036 245.0205,-208.9161 235.6257,-213.8139 240.7306,-218.6036"/>
<text text-anchor="middle" x="233" y="-231.8" font-family="Times,serif" font-size="14.00" fill="#000000">1.0</text>
</g>
<!-- PKA&#45;&gt;praf -->
<g id="edge3" class="edge">
<title>PKA&#45;&gt;praf</title>
<path fill="none" stroke="#000000" d="M263.6463,-297.2404C262.4957,-331.9618 257.6192,-409.5701 237,-471 231.8206,-486.4308 223.1009,-502.3334 215.2185,-514.9772"/>
<polygon fill="#000000" stroke="#000000" points="212.1657,-513.2531 209.6895,-523.5545 218.0493,-517.0458 212.1657,-513.2531"/>
<text text-anchor="middle" x="262" y="-405.8" font-family="Times,serif" font-size="14.00" fill="#000000">1.0</text>
</g>
<!-- PKA&#45;&gt;pmek -->
<g id="edge7" class="edge">
<title>PKA&#45;&gt;pmek</title>
<path fill="none" stroke="#000000" d="M255.2937,-296.346C248.5227,-310.1591 239.1151,-330.0821 232,-348 221.7615,-373.7836 211.9394,-403.881 205.3204,-425.2259"/>
<polygon fill="#000000" stroke="#000000" points="201.9259,-424.3573 202.3405,-434.944 208.6184,-426.4094 201.9259,-424.3573"/>
<text text-anchor="middle" x="241" y="-362.3" font-family="Times,serif" font-size="14.00" fill="#000000">1.0</text>
</g>
<!-- PKA&#45;&gt;p44/42 -->
<g id="edge13" class="edge">
<title>PKA&#45;&gt;p44/42</title>
<path fill="none" stroke="#000000" d="M262.964,-260.9735C262.2869,-249.1918 261.3885,-233.5607 260.6183,-220.1581"/>
<polygon fill="#000000" stroke="#000000" points="264.1028,-219.786 260.0347,-210.0034 257.1143,-220.1877 264.1028,-219.786"/>
<text text-anchor="middle" x="270" y="-231.8" font-family="Times,serif" font-size="14.00" fill="#000000">1.0</text>
</g>
<!-- PKC -->
<g id="node9" class="node">
<title>PKC</title>
<ellipse fill="none" stroke="#000000" cx="102" cy="-18" rx="27.8951" ry="18"/>
<text text-anchor="middle" x="102" y="-14.3" font-family="Times,serif" font-size="14.00" fill="#000000">PKC</text>
</g>
<!-- P38&#45;&gt;pakts473 -->
<g id="edge15" class="edge">
<title>P38&#45;&gt;pakts473</title>
<path fill="none" stroke="#000000" d="M138.0305,-351.5792C130.9352,-345.2398 122.781,-337.5336 116,-330 108.9824,-322.2035 101.9402,-313.1702 95.858,-304.8917"/>
<polygon fill="#000000" stroke="#000000" points="98.5895,-302.6953 89.9085,-296.6214 92.9071,-306.7831 98.5895,-302.6953"/>
<text text-anchor="middle" x="125" y="-318.8" font-family="Times,serif" font-size="14.00" fill="#000000">1.0</text>
</g>
<!-- P38&#45;&gt;PKA -->
<g id="edge18" class="edge">
<title>P38&#45;&gt;PKA</title>
<path fill="none" stroke="#000000" d="M169.2378,-350.3848C179.2752,-339.8035 193.3168,-325.8295 207,-315 215.3287,-308.4083 224.9154,-301.966 233.8216,-296.3957"/>
<polygon fill="#000000" stroke="#000000" points="235.7164,-299.3396 242.429,-291.1427 232.0698,-293.3645 235.7164,-299.3396"/>
<text text-anchor="middle" x="216" y="-318.8" font-family="Times,serif" font-size="14.00" fill="#000000">1.0</text>
</g>
<!-- P38&#45;&gt;PKC -->
<g id="edge19" class="edge">
<title>P38&#45;&gt;PKC</title>
<path fill="none" stroke="#000000" d="M152.185,-348.0443C148.477,-326.7342 140.985,-290.3878 129,-261 119.0694,-236.6497 105.9094,-235.3735 99,-210 83.6137,-153.4969 90.7552,-84.1357 96.753,-46.1656"/>
<polygon fill="#000000" stroke="#000000" points="100.2754,-46.3218 98.4729,-35.8815 93.3713,-45.1671 100.2754,-46.3218"/>
<text text-anchor="middle" x="108" y="-188.3" font-family="Times,serif" font-size="14.00" fill="#000000">1.0</text>
</g>
<!-- pjnk&#45;&gt;pakts473 -->
<g id="edge16" class="edge">
<title>pjnk&#45;&gt;pakts473</title>
<path fill="none" stroke="#000000" d="M175.6575,-121.6629C156.823,-152.0074 116.8,-216.4889 94.2759,-252.7778"/>
<polygon fill="#000000" stroke="#000000" points="91.2499,-251.0162 88.95,-261.3584 97.1974,-254.7078 91.2499,-251.0162"/>
<text text-anchor="middle" x="151" y="-188.3" font-family="Times,serif" font-size="14.00" fill="#000000">1.0</text>
</g>
<!-- pjnk&#45;&gt;PKC -->
<g id="edge20" class="edge">
<title>pjnk&#45;&gt;PKC</title>
<path fill="none" stroke="#000000" d="M171.3683,-89.8458C158.3993,-76.4136 139.2639,-56.5947 124.374,-41.173"/>
<polygon fill="#000000" stroke="#000000" points="126.4935,-38.3294 117.0296,-33.5664 121.4577,-43.1915 126.4935,-38.3294"/>
<text text-anchor="middle" x="158" y="-57.8" font-family="Times,serif" font-size="14.00" fill="#000000">1.0</text>
</g>
<!-- pjnk&#45;&gt;P38 -->
<g id="edge22" class="edge">
<title>pjnk&#45;&gt;P38</title>
<path fill="none" stroke="#000000" d="M183.8637,-122.9862C178.5719,-167.5397 164.8204,-283.3183 158.3978,-337.3929"/>
<polygon fill="#000000" stroke="#000000" points="154.8838,-337.3039 157.1799,-347.647 161.835,-338.1296 154.8838,-337.3039"/>
<text text-anchor="middle" x="180" y="-231.8" font-family="Times,serif" font-size="14.00" fill="#000000">1.0</text>
</g>
</g>
</svg>
