<?xml version="1.0" encoding="UTF-8" standalone="no"?>
<!DOCTYPE svg PUBLIC "-//W3C//DTD SVG 1.1//EN"
 "http://www.w3.org/Graphics/SVG/1.1/DTD/svg11.dtd">
<!-- Generated by graphviz version 2.40.1 (20161225.0304)
 -->
<!-- Title: %3 Pages: 1 -->
<svg width="636pt" height="392pt"
 viewBox="0.00 0.00 635.81 392.00" xmlns="http://www.w3.org/2000/svg" xmlns:xlink="http://www.w3.org/1999/xlink">
<g id="graph0" class="graph" transform="scale(1 1) rotate(0) translate(4 388)">
<title>%3</title>
<polygon fill="#ffffff" stroke="transparent" points="-4,4 -4,-388 631.8089,-388 631.8089,4 -4,4"/>
<!-- mpg -->
<g id="node1" class="node">
<title>mpg</title>
<ellipse fill="none" stroke="#000000" cx="76.8089" cy="-279" rx="27" ry="18"/>
<text text-anchor="middle" x="76.8089" y="-275.3" font-family="Times,serif" font-size="14.00" fill="#000000">mpg</text>
</g>
<!-- displacement -->
<g id="node3" class="node">
<title>displacement</title>
<ellipse fill="none" stroke="#000000" cx="235.8089" cy="-105" rx="57.6901" ry="18"/>
<text text-anchor="middle" x="235.8089" y="-101.3" font-family="Times,serif" font-size="14.00" fill="#000000">displacement</text>
</g>
<!-- mpg&#45;&gt;displacement -->
<g id="edge2" class="edge">
<title>mpg&#45;&gt;displacement</title>
<path fill="none" stroke="#000000" d="M76.0856,-260.9864C76.1585,-237.9172 79.7975,-198.0544 101.8089,-174 124.1684,-149.5652 157.176,-132.425 184.8358,-121.3395"/>
<polygon fill="#000000" stroke="#000000" points="186.2954,-124.5281 194.3702,-117.6689 183.7804,-117.9955 186.2954,-124.5281"/>
<text text-anchor="middle" x="156.8089" y="-188.3" font-family="Times,serif" font-size="14.00" fill="#000000">&#45;2.03256227570648</text>
</g>
<!-- horsepower -->
<g id="node4" class="node">
<title>horsepower</title>
<ellipse fill="none" stroke="#000000" cx="346.8089" cy="-192" rx="51.9908" ry="18"/>
<text text-anchor="middle" x="346.8089" y="-188.3" font-family="Times,serif" font-size="14.00" fill="#000000">horsepower</text>
</g>
<!-- mpg&#45;&gt;horsepower -->
<g id="edge5" class="edge">
<title>mpg&#45;&gt;horsepower</title>
<path fill="none" stroke="#000000" d="M78.1276,-260.9987C79.9348,-249.8119 84.1332,-236.0705 93.8089,-228 101.2015,-221.8338 214.8922,-207.4779 287.3273,-198.8737"/>
<polygon fill="#000000" stroke="#000000" points="287.7393,-202.3494 297.259,-197.6992 286.9172,-195.3978 287.7393,-202.3494"/>
<text text-anchor="middle" x="148.8089" y="-231.8" font-family="Times,serif" font-size="14.00" fill="#000000">&#45;2.34003517426168</text>
</g>
<!-- weight -->
<g id="node5" class="node">
<title>weight</title>
<ellipse fill="none" stroke="#000000" cx="334.8089" cy="-18" rx="34.394" ry="18"/>
<text text-anchor="middle" x="334.8089" y="-14.3" font-family="Times,serif" font-size="14.00" fill="#000000">weight</text>
</g>
<!-- mpg&#45;&gt;weight -->
<g id="edge8" class="edge">
<title>mpg&#45;&gt;weight</title>
<path fill="none" stroke="#000000" d="M59.8247,-264.535C31.3836,-238.5382 -20.0544,-182.7395 8.8089,-141 42.2983,-92.5706 213.372,-46.669 293.4134,-27.4563"/>
<polygon fill="#000000" stroke="#000000" points="294.2458,-30.856 303.1661,-25.1394 292.6279,-24.0456 294.2458,-30.856"/>
<text text-anchor="middle" x="63.8089" y="-144.8" font-family="Times,serif" font-size="14.00" fill="#000000">&#45;33.5886541842027</text>
</g>
<!-- cylinders -->
<g id="node2" class="node">
<title>cylinders</title>
<ellipse fill="none" stroke="#000000" cx="283.8089" cy="-366" rx="42.7926" ry="18"/>
<text text-anchor="middle" x="283.8089" y="-362.3" font-family="Times,serif" font-size="14.00" fill="#000000">cylinders</text>
</g>
<!-- cylinders&#45;&gt;mpg -->
<g id="edge1" class="edge">
<title>cylinders&#45;&gt;mpg</title>
<path fill="none" stroke="#000000" d="M241.6819,-362.0065C194.9395,-356.8371 123.263,-346.4846 101.8089,-330 94.1963,-324.1507 88.7581,-315.3741 84.9414,-306.7427"/>
<polygon fill="#000000" stroke="#000000" points="88.1397,-305.3076 81.2919,-297.2231 81.6036,-307.8134 88.1397,-305.3076"/>
<text text-anchor="middle" x="156.8089" y="-318.8" font-family="Times,serif" font-size="14.00" fill="#000000">&#45;2.88980482664149</text>
</g>
<!-- cylinders&#45;&gt;displacement -->
<g id="edge3" class="edge">
<title>cylinders&#45;&gt;displacement</title>
<path fill="none" stroke="#000000" d="M271.9553,-348.6543C257.0517,-325.6918 232.2721,-283.3806 222.8089,-243 214.0452,-205.6041 221.2628,-161.1956 227.9404,-133.0554"/>
<polygon fill="#000000" stroke="#000000" points="231.3955,-133.667 230.4388,-123.1154 224.6066,-131.9606 231.3955,-133.667"/>
<text text-anchor="middle" x="275.8089" y="-231.8" font-family="Times,serif" font-size="14.00" fill="#000000">36.0048676951333</text>
</g>
<!-- cylinders&#45;&gt;horsepower -->
<g id="edge6" class="edge">
<title>cylinders&#45;&gt;horsepower</title>
<path fill="none" stroke="#000000" d="M291.7569,-347.8973C302.0269,-324.1163 320.0944,-280.9214 332.8089,-243 335.2972,-235.5786 337.6808,-227.4444 339.7534,-219.8951"/>
<polygon fill="#000000" stroke="#000000" points="343.1746,-220.649 342.3677,-210.085 336.4106,-218.8465 343.1746,-220.649"/>
<text text-anchor="middle" x="379.8089" y="-275.3" font-family="Times,serif" font-size="14.00" fill="#000000">6.11319623482435</text>
</g>
<!-- acceleration -->
<g id="node6" class="node">
<title>acceleration</title>
<ellipse fill="none" stroke="#000000" cx="522.8089" cy="-279" rx="53.0913" ry="18"/>
<text text-anchor="middle" x="522.8089" y="-275.3" font-family="Times,serif" font-size="14.00" fill="#000000">acceleration</text>
</g>
<!-- cylinders&#45;&gt;acceleration -->
<g id="edge12" class="edge">
<title>cylinders&#45;&gt;acceleration</title>
<path fill="none" stroke="#000000" d="M316.5397,-354.0854C357.9557,-339.0093 429.5404,-312.9513 476.536,-295.8441"/>
<polygon fill="#000000" stroke="#000000" points="477.9718,-299.0462 486.1714,-292.3367 475.5774,-292.4684 477.9718,-299.0462"/>
<text text-anchor="middle" x="476.3089" y="-318.8" font-family="Times,serif" font-size="14.00" fill="#000000">&#45;0.644482628348415</text>
</g>
<!-- displacement&#45;&gt;weight -->
<g id="edge9" class="edge">
<title>displacement&#45;&gt;weight</title>
<path fill="none" stroke="#000000" d="M243.4227,-86.7835C248.5442,-76.2076 256.1291,-63.1998 265.8089,-54 274.8376,-45.419 286.3115,-38.3498 297.2986,-32.8163"/>
<polygon fill="#000000" stroke="#000000" points="298.8095,-35.9735 306.349,-28.5299 295.8132,-29.6471 298.8095,-35.9735"/>
<text text-anchor="middle" x="318.8089" y="-57.8" font-family="Times,serif" font-size="14.00" fill="#000000">4.39362650060749</text>
</g>
<!-- horsepower&#45;&gt;displacement -->
<g id="edge4" class="edge">
<title>horsepower&#45;&gt;displacement</title>
<path fill="none" stroke="#000000" d="M304.2297,-181.4048C288.7771,-175.8731 272.1119,-167.732 259.8089,-156 253.09,-149.5929 248.0549,-140.9301 244.3783,-132.5635"/>
<polygon fill="#000000" stroke="#000000" points="247.5566,-131.0796 240.6669,-123.0308 241.0335,-133.6193 247.5566,-131.0796"/>
<text text-anchor="middle" x="315.8089" y="-144.8" font-family="Times,serif" font-size="14.00" fill="#000000">0.766763598436459</text>
</g>
<!-- horsepower&#45;&gt;weight -->
<g id="edge10" class="edge">
<title>horsepower&#45;&gt;weight</title>
<path fill="none" stroke="#000000" d="M362.1301,-174.4636C366.0647,-168.925 369.7623,-162.5353 371.8089,-156 385.3571,-112.7385 389.4437,-95.7627 371.8089,-54 369.6299,-48.8397 366.3095,-44.0533 362.5349,-39.7658"/>
<polygon fill="#000000" stroke="#000000" points="364.9396,-37.2205 355.3985,-32.6142 359.9845,-42.165 364.9396,-37.2205"/>
<text text-anchor="middle" x="436.8089" y="-101.3" font-family="Times,serif" font-size="14.00" fill="#000000">8.57936162097385</text>
</g>
<!-- acceleration&#45;&gt;horsepower -->
<g id="edge7" class="edge">
<title>acceleration&#45;&gt;horsepower</title>
<path fill="none" stroke="#000000" d="M481.2124,-267.5549C446.3167,-257.8694 401.5656,-245.2158 397.8089,-243 386.3495,-236.2409 375.6171,-226.3073 366.9823,-216.9985"/>
<polygon fill="#000000" stroke="#000000" points="369.5061,-214.5692 360.2525,-209.4095 364.2687,-219.2136 369.5061,-214.5692"/>
<text text-anchor="middle" x="452.8089" y="-231.8" font-family="Times,serif" font-size="14.00" fill="#000000">&#45;4.84723964549182</text>
</g>
<!-- acceleration&#45;&gt;weight -->
<g id="edge11" class="edge">
<title>acceleration&#45;&gt;weight</title>
<path fill="none" stroke="#000000" d="M525.415,-260.9343C529.6908,-224.0975 534.0919,-139.3746 493.8089,-87 465.8886,-50.6989 414.9704,-33.1731 378.2665,-24.9287"/>
<polygon fill="#000000" stroke="#000000" points="378.8277,-21.4703 368.322,-22.8416 377.3899,-28.3211 378.8277,-21.4703"/>
<text text-anchor="middle" x="574.8089" y="-144.8" font-family="Times,serif" font-size="14.00" fill="#000000">57.9680558738442</text>
</g>
</g>
</svg>
