<?xml version="1.0" encoding="UTF-8" standalone="no"?>
<!DOCTYPE svg PUBLIC "-//W3C//DTD SVG 1.1//EN"
 "http://www.w3.org/Graphics/SVG/1.1/DTD/svg11.dtd">
<!-- Generated by graphviz version 2.40.1 (20161225.0304)
 -->
<!-- Title: %3 Pages: 1 -->
<svg width="670pt" height="740pt"
 viewBox="0.00 0.00 670.00 740.00" xmlns="http://www.w3.org/2000/svg" xmlns:xlink="http://www.w3.org/1999/xlink">
<g id="graph0" class="graph" transform="scale(1 1) rotate(0) translate(4 736)">
<title>%3</title>
<polygon fill="#ffffff" stroke="transparent" points="-4,4 -4,-736 666,-736 666,4 -4,4"/>
<!-- praf -->
<g id="node1" class="node">
<title>praf</title>
<ellipse fill="none" stroke="#000000" cx="245" cy="-453" rx="27" ry="18"/>
<text text-anchor="middle" x="245" y="-449.3" font-family="Times,serif" font-size="14.00" fill="#000000">praf</text>
</g>
<!-- plcg -->
<g id="node3" class="node">
<title>plcg</title>
<ellipse fill="none" stroke="#000000" cx="351" cy="-366" rx="27" ry="18"/>
<text text-anchor="middle" x="351" y="-362.3" font-family="Times,serif" font-size="14.00" fill="#000000">plcg</text>
</g>
<!-- praf&#45;&gt;plcg -->
<g id="edge6" class="edge">
<title>praf&#45;&gt;plcg</title>
<path fill="none" stroke="#000000" d="M255.3827,-435.8902C262.4769,-425.2041 272.6294,-411.6848 284,-402 294.3118,-393.2171 307.1171,-385.6927 318.762,-379.8284"/>
<polygon fill="#000000" stroke="#000000" points="320.2883,-382.9781 327.7825,-375.4889 317.2537,-376.6701 320.2883,-382.9781"/>
<text text-anchor="middle" x="293" y="-405.8" font-family="Times,serif" font-size="14.00" fill="#000000">1.0</text>
</g>
<!-- p44/42 -->
<g id="node6" class="node">
<title>p44/42</title>
<ellipse fill="none" stroke="#000000" cx="303" cy="-18" rx="35.194" ry="18"/>
<text text-anchor="middle" x="303" y="-14.3" font-family="Times,serif" font-size="14.00" fill="#000000">p44/42</text>
</g>
<!-- praf&#45;&gt;p44/42 -->
<g id="edge15" class="edge">
<title>praf&#45;&gt;p44/42</title>
<path fill="none" stroke="#000000" d="M233.4047,-436.7208C200.5161,-390.2609 109,-258.8807 109,-235.5 109,-235.5 109,-235.5 109,-105 109,-71.9195 204.1006,-42.5134 261.1325,-27.8528"/>
<polygon fill="#000000" stroke="#000000" points="262.1239,-31.2125 270.9648,-25.3739 260.4126,-24.4248 262.1239,-31.2125"/>
<text text-anchor="middle" x="120" y="-231.8" font-family="Times,serif" font-size="14.00" fill="#000000">1.0</text>
</g>
<!-- pakts473 -->
<g id="node7" class="node">
<title>pakts473</title>
<ellipse fill="none" stroke="#000000" cx="259" cy="-192" rx="42.4939" ry="18"/>
<text text-anchor="middle" x="259" y="-188.3" font-family="Times,serif" font-size="14.00" fill="#000000">pakts473</text>
</g>
<!-- praf&#45;&gt;pakts473 -->
<g id="edge21" class="edge">
<title>praf&#45;&gt;pakts473</title>
<path fill="none" stroke="#000000" d="M245.2272,-434.6828C245.6243,-408.2391 246.6394,-357.8384 249,-315 250.7868,-282.5758 253.9632,-245.429 256.2574,-220.5181"/>
<polygon fill="#000000" stroke="#000000" points="259.7649,-220.6001 257.2106,-210.3178 252.7953,-219.9488 259.7649,-220.6001"/>
<text text-anchor="middle" x="258" y="-318.8" font-family="Times,serif" font-size="14.00" fill="#000000">1.0</text>
</g>
<!-- pmek -->
<g id="node2" class="node">
<title>pmek</title>
<ellipse fill="none" stroke="#000000" cx="225" cy="-540" rx="30.5947" ry="18"/>
<text text-anchor="middle" x="225" y="-536.3" font-family="Times,serif" font-size="14.00" fill="#000000">pmek</text>
</g>
<!-- pmek&#45;&gt;praf -->
<g id="edge1" class="edge">
<title>pmek&#45;&gt;praf</title>
<path fill="none" stroke="#000000" d="M229.144,-521.9735C231.8793,-510.0751 235.5171,-494.2508 238.6182,-480.7606"/>
<polygon fill="#000000" stroke="#000000" points="242.0318,-481.5333 240.8613,-471.0034 235.2098,-479.965 242.0318,-481.5333"/>
<text text-anchor="middle" x="246" y="-492.8" font-family="Times,serif" font-size="14.00" fill="#000000">1.0</text>
</g>
<!-- pmek&#45;&gt;plcg -->
<g id="edge7" class="edge">
<title>pmek&#45;&gt;plcg</title>
<path fill="none" stroke="#000000" d="M240.8354,-524.3943C246.7755,-518.2473 253.431,-510.9945 259,-504 288.6495,-466.7612 318.3701,-420.0711 335.7063,-391.6644"/>
<polygon fill="#000000" stroke="#000000" points="338.9055,-393.1385 341.0928,-382.7719 332.9182,-389.5118 338.9055,-393.1385"/>
<text text-anchor="middle" x="317" y="-449.3" font-family="Times,serif" font-size="14.00" fill="#000000">1.0</text>
</g>
<!-- PIP3 -->
<g id="node5" class="node">
<title>PIP3</title>
<ellipse fill="none" stroke="#000000" cx="203" cy="-279" rx="27.8951" ry="18"/>
<text text-anchor="middle" x="203" y="-275.3" font-family="Times,serif" font-size="14.00" fill="#000000">PIP3</text>
</g>
<!-- pmek&#45;&gt;PIP3 -->
<g id="edge11" class="edge">
<title>pmek&#45;&gt;PIP3</title>
<path fill="none" stroke="#000000" d="M219.8058,-522.0179C216.0641,-508.1964 211.2876,-488.5593 209,-471 201.4712,-413.2099 201.4252,-344.8513 202.1544,-307.2809"/>
<polygon fill="#000000" stroke="#000000" points="205.6577,-307.1719 202.3865,-297.0947 198.6595,-307.0124 205.6577,-307.1719"/>
<text text-anchor="middle" x="214" y="-405.8" font-family="Times,serif" font-size="14.00" fill="#000000">1.0</text>
</g>
<!-- pmek&#45;&gt;p44/42 -->
<g id="edge16" class="edge">
<title>pmek&#45;&gt;p44/42</title>
<path fill="none" stroke="#000000" d="M195.4491,-535.2525C169.5702,-530.2101 131.5848,-520.6153 102,-504 72.6486,-487.5158 46,-486.6635 46,-453 46,-453 46,-453 46,-105 46,-60.5731 185.5292,-34.3826 258.9696,-23.6743"/>
<polygon fill="#000000" stroke="#000000" points="259.4649,-27.1391 268.8724,-22.2657 258.4791,-20.2089 259.4649,-27.1391"/>
<text text-anchor="middle" x="55" y="-275.3" font-family="Times,serif" font-size="14.00" fill="#000000">1.0</text>
</g>
<!-- pmek&#45;&gt;pakts473 -->
<g id="edge22" class="edge">
<title>pmek&#45;&gt;pakts473</title>
<path fill="none" stroke="#000000" d="M196.0117,-534.1904C167.2406,-527.795 126.0231,-516.7173 116,-504 72.9945,-449.4346 87.2503,-414.8978 106,-348 122.8473,-287.8897 132.2142,-269.3301 179,-228 189.2783,-218.9202 202.2239,-211.7739 214.6887,-206.3242"/>
<polygon fill="#000000" stroke="#000000" points="216.1451,-209.5101 224.0748,-202.4837 213.4941,-203.0314 216.1451,-209.5101"/>
<text text-anchor="middle" x="115" y="-362.3" font-family="Times,serif" font-size="14.00" fill="#000000">1.0</text>
</g>
<!-- pjnk -->
<g id="node11" class="node">
<title>pjnk</title>
<ellipse fill="none" stroke="#000000" cx="410" cy="-105" rx="27" ry="18"/>
<text text-anchor="middle" x="410" y="-101.3" font-family="Times,serif" font-size="14.00" fill="#000000">pjnk</text>
</g>
<!-- pmek&#45;&gt;pjnk -->
<g id="edge32" class="edge">
<title>pmek&#45;&gt;pjnk</title>
<path fill="none" stroke="#000000" d="M251.9122,-531.1567C301.6583,-513.0327 405.6927,-466.2931 436,-384 450.0628,-345.8152 447.1189,-157.483 441,-141 439.1809,-136.0996 436.3626,-131.4193 433.1513,-127.1503"/>
<polygon fill="#000000" stroke="#000000" points="435.7928,-124.8536 426.6511,-119.4982 430.4578,-129.3856 435.7928,-124.8536"/>
<text text-anchor="middle" x="453" y="-318.8" font-family="Times,serif" font-size="14.00" fill="#000000">1.0</text>
</g>
<!-- plcg&#45;&gt;PIP3 -->
<g id="edge12" class="edge">
<title>plcg&#45;&gt;PIP3</title>
<path fill="none" stroke="#000000" d="M331.1705,-353.5753C320.1909,-346.6708 306.3125,-337.9025 294,-330 283.7294,-323.4081 281.5149,-321.1948 271,-315 259.1942,-308.0447 245.9316,-300.8832 234.2752,-294.7976"/>
<polygon fill="#000000" stroke="#000000" points="235.8202,-291.6563 225.3298,-290.1721 232.605,-297.8742 235.8202,-291.6563"/>
<text text-anchor="middle" x="303" y="-318.8" font-family="Times,serif" font-size="14.00" fill="#000000">1.0</text>
</g>
<!-- plcg&#45;&gt;p44/42 -->
<g id="edge17" class="edge">
<title>plcg&#45;&gt;p44/42</title>
<path fill="none" stroke="#000000" d="M348.823,-347.897C344.1893,-309.6506 332.8825,-217.8227 322,-141 317.4065,-108.5733 311.5919,-71.4269 307.6125,-46.5168"/>
<polygon fill="#000000" stroke="#000000" points="311.0161,-45.6363 305.9763,-36.3169 304.1044,-46.7451 311.0161,-45.6363"/>
<text text-anchor="middle" x="340" y="-188.3" font-family="Times,serif" font-size="14.00" fill="#000000">1.0</text>
</g>
<!-- plcg&#45;&gt;pakts473 -->
<g id="edge23" class="edge">
<title>plcg&#45;&gt;pakts473</title>
<path fill="none" stroke="#000000" d="M342.0111,-348.9993C325.9487,-318.6203 292.2118,-254.8136 273.0605,-218.5927"/>
<polygon fill="#000000" stroke="#000000" points="276.0671,-216.7911 268.2988,-209.5868 269.8789,-220.0631 276.0671,-216.7911"/>
<text text-anchor="middle" x="324" y="-275.3" font-family="Times,serif" font-size="14.00" fill="#000000">1.0</text>
</g>
<!-- plcg&#45;&gt;pjnk -->
<g id="edge33" class="edge">
<title>plcg&#45;&gt;pjnk</title>
<path fill="none" stroke="#000000" d="M358.4554,-348.6323C360.7753,-342.787 363.1953,-336.1796 365,-330 385.3326,-260.3786 399.5057,-175.9783 405.9959,-133.037"/>
<polygon fill="#000000" stroke="#000000" points="409.4725,-133.4529 407.4796,-123.0472 402.5484,-132.4245 409.4725,-133.4529"/>
<text text-anchor="middle" x="398" y="-231.8" font-family="Times,serif" font-size="14.00" fill="#000000">1.0</text>
</g>
<!-- PIP2 -->
<g id="node4" class="node">
<title>PIP2</title>
<ellipse fill="none" stroke="#000000" cx="232" cy="-714" rx="27.8951" ry="18"/>
<text text-anchor="middle" x="232" y="-710.3" font-family="Times,serif" font-size="14.00" fill="#000000">PIP2</text>
</g>
<!-- PIP2&#45;&gt;plcg -->
<g id="edge8" class="edge">
<title>PIP2&#45;&gt;plcg</title>
<path fill="none" stroke="#000000" d="M259.262,-709.3014C278.5641,-704.5862 303.6536,-695.4145 319,-678 390.4884,-596.8777 370.3252,-453.8774 357.6828,-393.8068"/>
<polygon fill="#000000" stroke="#000000" points="361.0737,-392.9303 355.5084,-383.9149 354.2369,-394.4331 361.0737,-392.9303"/>
<text text-anchor="middle" x="379" y="-536.3" font-family="Times,serif" font-size="14.00" fill="#000000">1.0</text>
</g>
<!-- PIP2&#45;&gt;PIP3 -->
<g id="edge13" class="edge">
<title>PIP2&#45;&gt;PIP3</title>
<path fill="none" stroke="#000000" d="M208.2798,-704.3998C180.4331,-691.3726 138,-665.2467 138,-627 138,-627 138,-627 138,-409.5 138,-368.9716 163.4291,-328.0883 182.4768,-303.1494"/>
<polygon fill="#000000" stroke="#000000" points="185.4457,-305.0372 188.896,-295.0199 179.9519,-300.6992 185.4457,-305.0372"/>
<text text-anchor="middle" x="147" y="-492.8" font-family="Times,serif" font-size="14.00" fill="#000000">1.0</text>
</g>
<!-- PKC -->
<g id="node9" class="node">
<title>PKC</title>
<ellipse fill="none" stroke="#000000" cx="232" cy="-627" rx="27.8951" ry="18"/>
<text text-anchor="middle" x="232" y="-623.3" font-family="Times,serif" font-size="14.00" fill="#000000">PKC</text>
</g>
<!-- PIP2&#45;&gt;PKC -->
<g id="edge30" class="edge">
<title>PIP2&#45;&gt;PKC</title>
<path fill="none" stroke="#000000" d="M232,-695.9735C232,-684.1918 232,-668.5607 232,-655.1581"/>
<polygon fill="#000000" stroke="#000000" points="235.5001,-655.0033 232,-645.0034 228.5001,-655.0034 235.5001,-655.0033"/>
<text text-anchor="middle" x="241" y="-666.8" font-family="Times,serif" font-size="14.00" fill="#000000">1.0</text>
</g>
<!-- PIP3&#45;&gt;pakts473 -->
<g id="edge24" class="edge">
<title>PIP3&#45;&gt;pakts473</title>
<path fill="none" stroke="#000000" d="M209.8263,-261.3411C214.1018,-251.2048 220.1018,-238.4548 227,-228 229.556,-224.1262 232.5077,-220.2401 235.5635,-216.5289"/>
<polygon fill="#000000" stroke="#000000" points="238.3966,-218.6043 242.306,-208.7571 233.1091,-214.0171 238.3966,-218.6043"/>
<text text-anchor="middle" x="236" y="-231.8" font-family="Times,serif" font-size="14.00" fill="#000000">1.0</text>
</g>
<!-- p44/42&#45;&gt;pakts473 -->
<g id="edge25" class="edge">
<title>p44/42&#45;&gt;pakts473</title>
<path fill="none" stroke="#000000" d="M287.3243,-34.2801C275.89,-47.3554 261.3318,-66.8103 255,-87 247.1078,-112.1652 249.4055,-142.3948 252.9008,-163.9426"/>
<polygon fill="#000000" stroke="#000000" points="249.5059,-164.8379 254.7316,-174.0543 256.3939,-163.5907 249.5059,-164.8379"/>
<text text-anchor="middle" x="264" y="-101.3" font-family="Times,serif" font-size="14.00" fill="#000000">1.0</text>
</g>
<!-- p44/42&#45;&gt;pjnk -->
<g id="edge34" class="edge">
<title>p44/42&#45;&gt;pjnk</title>
<path fill="none" stroke="#000000" d="M334.353,-26.3715C350.7157,-32.0142 370.1525,-40.8708 384,-54 390.9168,-60.558 396.3002,-69.3602 400.3283,-77.8047"/>
<polygon fill="#000000" stroke="#000000" points="397.1392,-79.2485 404.3098,-87.048 403.5682,-76.4792 397.1392,-79.2485"/>
<text text-anchor="middle" x="404" y="-57.8" font-family="Times,serif" font-size="14.00" fill="#000000">1.0</text>
</g>
<!-- pakts473&#45;&gt;PIP3 -->
<g id="edge14" class="edge">
<title>pakts473&#45;&gt;PIP3</title>
<path fill="none" stroke="#000000" d="M222.0956,-201.1896C208.3107,-206.6077 194.059,-215.04 186,-228 181.2016,-235.7164 182.5118,-244.94 185.9783,-253.4083"/>
<polygon fill="#000000" stroke="#000000" points="182.9565,-255.1884 190.5976,-262.5277 189.2011,-252.0253 182.9565,-255.1884"/>
<text text-anchor="middle" x="195" y="-231.8" font-family="Times,serif" font-size="14.00" fill="#000000">1.0</text>
</g>
<!-- pakts473&#45;&gt;p44/42 -->
<g id="edge18" class="edge">
<title>pakts473&#45;&gt;p44/42</title>
<path fill="none" stroke="#000000" d="M263.543,-174.0343C271.237,-143.6084 286.881,-81.7433 295.9893,-45.724"/>
<polygon fill="#000000" stroke="#000000" points="299.4232,-46.4209 298.4817,-35.868 292.6368,-44.7047 299.4232,-46.4209"/>
<text text-anchor="middle" x="295" y="-101.3" font-family="Times,serif" font-size="14.00" fill="#000000">1.0</text>
</g>
<!-- pakts473&#45;&gt;pjnk -->
<g id="edge35" class="edge">
<title>pakts473&#45;&gt;pjnk</title>
<path fill="none" stroke="#000000" d="M270.5932,-174.2471C278.5487,-163.3045 289.9945,-149.7409 303,-141 324.3454,-126.6539 351.9208,-117.5563 373.7316,-112.096"/>
<polygon fill="#000000" stroke="#000000" points="374.6813,-115.4681 383.6127,-109.7689 373.0767,-108.6545 374.6813,-115.4681"/>
<text text-anchor="middle" x="312" y="-144.8" font-family="Times,serif" font-size="14.00" fill="#000000">1.0</text>
</g>
<!-- PKA -->
<g id="node8" class="node">
<title>PKA</title>
<ellipse fill="none" stroke="#000000" cx="468" cy="-627" rx="28.6953" ry="18"/>
<text text-anchor="middle" x="468" y="-623.3" font-family="Times,serif" font-size="14.00" fill="#000000">PKA</text>
</g>
<!-- PKA&#45;&gt;praf -->
<g id="edge2" class="edge">
<title>PKA&#45;&gt;praf</title>
<path fill="none" stroke="#000000" d="M444.8051,-616.2909C421.6863,-605.7172 385.0979,-589.2534 353,-576 332.3247,-567.4631 323.0342,-572.4976 306,-558 292.7875,-546.755 271.3488,-506.5652 257.7236,-479.2988"/>
<polygon fill="#000000" stroke="#000000" points="260.8254,-477.6754 253.2563,-470.2619 254.5503,-480.7775 260.8254,-477.6754"/>
<text text-anchor="middle" x="315" y="-536.3" font-family="Times,serif" font-size="14.00" fill="#000000">1.0</text>
</g>
<!-- PKA&#45;&gt;pmek -->
<g id="edge3" class="edge">
<title>PKA&#45;&gt;pmek</title>
<path fill="none" stroke="#000000" d="M440.8349,-621.0758C413.6573,-614.8176 370.8511,-604.0558 335,-591 308.1219,-581.2119 278.7838,-567.4449 257.1709,-556.6812"/>
<polygon fill="#000000" stroke="#000000" points="258.6222,-553.4933 248.1164,-552.1226 255.4744,-559.7456 258.6222,-553.4933"/>
<text text-anchor="middle" x="344" y="-579.8" font-family="Times,serif" font-size="14.00" fill="#000000">1.0</text>
</g>
<!-- PKA&#45;&gt;plcg -->
<g id="edge9" class="edge">
<title>PKA&#45;&gt;plcg</title>
<path fill="none" stroke="#000000" d="M467.5427,-608.8016C466.2728,-581.6403 461.5366,-529.3712 444,-489 426.9426,-449.732 394.9039,-411.5251 373.2579,-388.3776"/>
<polygon fill="#000000" stroke="#000000" points="375.7828,-385.9537 366.3522,-381.1251 370.7133,-390.7808 375.7828,-385.9537"/>
<text text-anchor="middle" x="458" y="-492.8" font-family="Times,serif" font-size="14.00" fill="#000000">1.0</text>
</g>
<!-- PKA&#45;&gt;p44/42 -->
<g id="edge19" class="edge">
<title>PKA&#45;&gt;p44/42</title>
<path fill="none" stroke="#000000" d="M493.4057,-618.6248C508.1451,-612.7489 526.255,-603.6633 539,-591 573.4909,-556.7302 620,-517.0417 620,-409.5 620,-409.5 620,-409.5 620,-105 620,-49.3369 435.939,-27.9885 348.3236,-20.9795"/>
<polygon fill="#000000" stroke="#000000" points="348.3751,-17.4732 338.1357,-20.1945 347.8373,-24.4525 348.3751,-17.4732"/>
<text text-anchor="middle" x="629" y="-318.8" font-family="Times,serif" font-size="14.00" fill="#000000">1.0</text>
</g>
<!-- PKA&#45;&gt;pakts473 -->
<g id="edge26" class="edge">
<title>PKA&#45;&gt;pakts473</title>
<path fill="none" stroke="#000000" d="M474.5496,-609.2959C476.3683,-603.5434 478.0925,-597.0757 479,-591 479.9849,-584.4065 479.1659,-582.6646 479,-576 476.1102,-459.8922 501.0719,-425.7219 466,-315 452.1863,-271.3901 448.6698,-253.9543 411,-228 377.7678,-205.1032 361.21,-219.5508 322,-210 315.9076,-208.516 309.5178,-206.8365 303.2411,-205.1145"/>
<polygon fill="#000000" stroke="#000000" points="304.1034,-201.7214 293.53,-202.3954 302.216,-208.4621 304.1034,-201.7214"/>
<text text-anchor="middle" x="493" y="-405.8" font-family="Times,serif" font-size="14.00" fill="#000000">1.0</text>
</g>
<!-- PKA&#45;&gt;pjnk -->
<g id="edge36" class="edge">
<title>PKA&#45;&gt;pjnk</title>
<path fill="none" stroke="#000000" d="M489.5753,-614.6464C512.0442,-599.9897 544,-573.2924 544,-540 544,-540 544,-540 544,-192 544,-145.1783 485.7362,-122.2768 446.0465,-112.1079"/>
<polygon fill="#000000" stroke="#000000" points="446.6953,-108.6643 436.1547,-109.7345 445.062,-115.4711 446.6953,-108.6643"/>
<text text-anchor="middle" x="553" y="-362.3" font-family="Times,serif" font-size="14.00" fill="#000000">1.0</text>
</g>
<!-- PKC&#45;&gt;pmek -->
<g id="edge4" class="edge">
<title>PKC&#45;&gt;pmek</title>
<path fill="none" stroke="#000000" d="M230.5496,-608.9735C229.6016,-597.1918 228.344,-581.5607 227.2656,-568.1581"/>
<polygon fill="#000000" stroke="#000000" points="230.7394,-567.6904 226.4485,-558.0034 223.7619,-568.2519 230.7394,-567.6904"/>
<text text-anchor="middle" x="238" y="-579.8" font-family="Times,serif" font-size="14.00" fill="#000000">1.0</text>
</g>
<!-- PKC&#45;&gt;pjnk -->
<g id="edge37" class="edge">
<title>PKC&#45;&gt;pjnk</title>
<path fill="none" stroke="#000000" d="M257.1761,-618.7687C267.0655,-615.6092 278.535,-612.0356 289,-609 319.0254,-600.2904 331.7647,-609.4543 357,-591 371.0326,-580.7381 372.2754,-574.415 378,-558 424.3534,-425.0847 402.0417,-383.4808 411,-243 413.8856,-197.7499 414.8844,-186.3029 413,-141 412.8988,-138.5679 412.7594,-136.0458 412.5956,-133.5168"/>
<polygon fill="#000000" stroke="#000000" points="416.0668,-133.0026 411.8209,-123.2957 409.0868,-133.5317 416.0668,-133.0026"/>
<text text-anchor="middle" x="417" y="-362.3" font-family="Times,serif" font-size="14.00" fill="#000000">1.0</text>
</g>
<!-- P38 -->
<g id="node10" class="node">
<title>P38</title>
<ellipse fill="none" stroke="#000000" cx="394" cy="-714" rx="27" ry="18"/>
<text text-anchor="middle" x="394" y="-710.3" font-family="Times,serif" font-size="14.00" fill="#000000">P38</text>
</g>
<!-- P38&#45;&gt;pmek -->
<g id="edge5" class="edge">
<title>P38&#45;&gt;pmek</title>
<path fill="none" stroke="#000000" d="M379.298,-698.863C349.6086,-668.2953 282.3451,-599.0417 247.2502,-562.9085"/>
<polygon fill="#000000" stroke="#000000" points="249.7526,-560.4614 240.2747,-555.7266 244.7312,-565.3385 249.7526,-560.4614"/>
<text text-anchor="middle" x="335" y="-623.3" font-family="Times,serif" font-size="14.00" fill="#000000">1.0</text>
</g>
<!-- P38&#45;&gt;plcg -->
<g id="edge10" class="edge">
<title>P38&#45;&gt;plcg</title>
<path fill="none" stroke="#000000" d="M420.1805,-709.1811C480.4573,-696.6186 621.9585,-657.9948 596,-576 561.3409,-466.5225 498.0207,-469.3329 405,-402 396.6679,-395.9688 387.4115,-389.6612 378.9495,-384.0413"/>
<polygon fill="#000000" stroke="#000000" points="380.7681,-381.0483 370.4908,-378.474 376.9197,-386.8955 380.7681,-381.0483"/>
<text text-anchor="middle" x="598" y="-536.3" font-family="Times,serif" font-size="14.00" fill="#000000">1.0</text>
</g>
<!-- P38&#45;&gt;pakts473 -->
<g id="edge27" class="edge">
<title>P38&#45;&gt;pakts473</title>
<path fill="none" stroke="#000000" d="M367.3143,-710.0915C326.7432,-703.8369 251.7511,-690.9592 228,-678 90.5726,-603.016 0,-566.0532 0,-409.5 0,-409.5 0,-409.5 0,-279 0,-235.5653 132.5465,-209.7515 207.9984,-198.5758"/>
<polygon fill="#000000" stroke="#000000" points="208.8494,-201.9893 218.2463,-197.0957 207.8487,-195.0611 208.8494,-201.9893"/>
<text text-anchor="middle" x="15" y="-449.3" font-family="Times,serif" font-size="14.00" fill="#000000">1.0</text>
</g>
<!-- P38&#45;&gt;PKA -->
<g id="edge29" class="edge">
<title>P38&#45;&gt;PKA</title>
<path fill="none" stroke="#000000" d="M407.5727,-698.0429C418.7681,-684.8808 434.8245,-666.0036 447.5727,-651.0159"/>
<polygon fill="#000000" stroke="#000000" points="450.4497,-653.0355 454.2627,-643.1506 445.1176,-648.5002 450.4497,-653.0355"/>
<text text-anchor="middle" x="444" y="-666.8" font-family="Times,serif" font-size="14.00" fill="#000000">1.0</text>
</g>
<!-- P38&#45;&gt;PKC -->
<g id="edge31" class="edge">
<title>P38&#45;&gt;PKC</title>
<path fill="none" stroke="#000000" d="M372.5319,-702.7062C359.1345,-695.6404 341.541,-686.3294 326,-678 304.7211,-666.5953 280.807,-653.6184 262.4247,-643.6088"/>
<polygon fill="#000000" stroke="#000000" points="264.0763,-640.523 253.6206,-638.8115 260.727,-646.6697 264.0763,-640.523"/>
<text text-anchor="middle" x="335" y="-666.8" font-family="Times,serif" font-size="14.00" fill="#000000">1.0</text>
</g>
<!-- P38&#45;&gt;pjnk -->
<g id="edge38" class="edge">
<title>P38&#45;&gt;pjnk</title>
<path fill="none" stroke="#000000" d="M420.8468,-710.7668C452.6707,-706.2716 506.8279,-696.5123 550,-678 574.471,-667.5068 585.0938,-667.0623 600,-645 679.0708,-527.969 637.998,-471.1823 642,-330 644.7289,-233.7295 613.7894,-197.7826 536,-141 509.8823,-121.9353 473.926,-112.9431 447.1069,-108.7156"/>
<polygon fill="#000000" stroke="#000000" points="447.3474,-105.2147 436.9541,-107.2715 446.3616,-112.1449 447.3474,-105.2147"/>
<text text-anchor="middle" x="653" y="-405.8" font-family="Times,serif" font-size="14.00" fill="#000000">1.0</text>
</g>
<!-- pjnk&#45;&gt;p44/42 -->
<g id="edge20" class="edge">
<title>pjnk&#45;&gt;p44/42</title>
<path fill="none" stroke="#000000" d="M392.8086,-91.0219C375.8541,-77.2365 349.6881,-55.9614 329.965,-39.9248"/>
<polygon fill="#000000" stroke="#000000" points="331.9193,-37.0029 321.9523,-33.4098 327.5032,-42.4341 331.9193,-37.0029"/>
<text text-anchor="middle" x="371" y="-57.8" font-family="Times,serif" font-size="14.00" fill="#000000">1.0</text>
</g>
<!-- pjnk&#45;&gt;pakts473 -->
<g id="edge28" class="edge">
<title>pjnk&#45;&gt;pakts473</title>
<path fill="none" stroke="#000000" d="M389.8722,-117.3946C372.7353,-127.8707 347.4035,-143.1761 325,-156 315.1132,-161.6593 304.296,-167.6443 294.3323,-173.0751"/>
<polygon fill="#000000" stroke="#000000" points="292.5937,-170.0364 285.4729,-177.8815 295.9317,-176.1892 292.5937,-170.0364"/>
<text text-anchor="middle" x="357" y="-144.8" font-family="Times,serif" font-size="14.00" fill="#000000">1.0</text>
</g>
</g>
</svg>
