<?xml version="1.0" encoding="UTF-8" standalone="no"?>
<!DOCTYPE svg PUBLIC "-//W3C//DTD SVG 1.1//EN"
 "http://www.w3.org/Graphics/SVG/1.1/DTD/svg11.dtd">
<!-- Generated by graphviz version 2.40.1 (20161225.0304)
 -->
<!-- Title: %3 Pages: 1 -->
<svg width="697pt" height="218pt"
 viewBox="0.00 0.00 696.55 218.00" xmlns="http://www.w3.org/2000/svg" xmlns:xlink="http://www.w3.org/1999/xlink">
<g id="graph0" class="graph" transform="scale(1 1) rotate(0) translate(4 214)">
<title>%3</title>
<polygon fill="#ffffff" stroke="transparent" points="-4,4 -4,-214 692.5473,-214 692.5473,4 -4,4"/>
<!-- praf -->
<g id="node1" class="node">
<title>praf</title>
<ellipse fill="none" stroke="#000000" cx="30.5473" cy="-192" rx="27" ry="18"/>
<text text-anchor="middle" x="30.5473" y="-188.3" font-family="Times,serif" font-size="14.00" fill="#000000">praf</text>
</g>
<!-- pmek -->
<g id="node2" class="node">
<title>pmek</title>
<ellipse fill="none" stroke="#000000" cx="30.5473" cy="-105" rx="30.5947" ry="18"/>
<text text-anchor="middle" x="30.5473" y="-101.3" font-family="Times,serif" font-size="14.00" fill="#000000">pmek</text>
</g>
<!-- praf&#45;&gt;pmek -->
<g id="edge1" class="edge">
<title>praf&#45;&gt;pmek</title>
<path fill="none" stroke="#000000" d="M30.5473,-173.9735C30.5473,-162.1918 30.5473,-146.5607 30.5473,-133.1581"/>
<polygon fill="#000000" stroke="#000000" points="34.0474,-133.0033 30.5473,-123.0034 27.0474,-133.0034 34.0474,-133.0033"/>
<text text-anchor="middle" x="86.5473" y="-144.8" font-family="Times,serif" font-size="14.00" fill="#000000">0.864379315846681</text>
</g>
<!-- plcg -->
<g id="node3" class="node">
<title>plcg</title>
<ellipse fill="none" stroke="#000000" cx="165.5473" cy="-192" rx="27" ry="18"/>
<text text-anchor="middle" x="165.5473" y="-188.3" font-family="Times,serif" font-size="14.00" fill="#000000">plcg</text>
</g>
<!-- PIP2 -->
<g id="node4" class="node">
<title>PIP2</title>
<ellipse fill="none" stroke="#000000" cx="226.5473" cy="-105" rx="27.8951" ry="18"/>
<text text-anchor="middle" x="226.5473" y="-101.3" font-family="Times,serif" font-size="14.00" fill="#000000">PIP2</text>
</g>
<!-- plcg&#45;&gt;PIP2 -->
<g id="edge2" class="edge">
<title>plcg&#45;&gt;PIP2</title>
<path fill="none" stroke="#000000" d="M161.7862,-173.8567C160.6159,-163.5589 160.8659,-150.8089 166.5473,-141 172.3742,-130.9398 182.2299,-123.3702 192.2877,-117.835"/>
<polygon fill="#000000" stroke="#000000" points="194.0479,-120.8696 201.4715,-113.3105 190.9542,-114.5903 194.0479,-120.8696"/>
<text text-anchor="middle" x="216.0473" y="-144.8" font-family="Times,serif" font-size="14.00" fill="#000000">1.7589781213857</text>
</g>
<!-- PIP3 -->
<g id="node5" class="node">
<title>PIP3</title>
<ellipse fill="none" stroke="#000000" cx="287.5473" cy="-192" rx="27.8951" ry="18"/>
<text text-anchor="middle" x="287.5473" y="-188.3" font-family="Times,serif" font-size="14.00" fill="#000000">PIP3</text>
</g>
<!-- PIP3&#45;&gt;PIP2 -->
<g id="edge3" class="edge">
<title>PIP3&#45;&gt;PIP2</title>
<path fill="none" stroke="#000000" d="M281.8982,-174.0539C278.1819,-163.8219 272.6819,-151.0719 265.5473,-141 261.7723,-135.6708 257.0982,-130.5331 252.3123,-125.8893"/>
<polygon fill="#000000" stroke="#000000" points="254.5575,-123.1998 244.8126,-119.0419 249.8377,-128.3693 254.5575,-123.1998"/>
<text text-anchor="middle" x="330.5473" y="-144.8" font-family="Times,serif" font-size="14.00" fill="#000000">0.833424626995035</text>
</g>
<!-- p44/42 -->
<g id="node6" class="node">
<title>p44/42</title>
<ellipse fill="none" stroke="#000000" cx="422.5473" cy="-192" rx="35.194" ry="18"/>
<text text-anchor="middle" x="422.5473" y="-188.3" font-family="Times,serif" font-size="14.00" fill="#000000">p44/42</text>
</g>
<!-- pakts473 -->
<g id="node7" class="node">
<title>pakts473</title>
<ellipse fill="none" stroke="#000000" cx="422.5473" cy="-105" rx="42.4939" ry="18"/>
<text text-anchor="middle" x="422.5473" y="-101.3" font-family="Times,serif" font-size="14.00" fill="#000000">pakts473</text>
</g>
<!-- p44/42&#45;&gt;pakts473 -->
<g id="edge4" class="edge">
<title>p44/42&#45;&gt;pakts473</title>
<path fill="none" stroke="#000000" d="M422.5473,-173.9735C422.5473,-162.1918 422.5473,-146.5607 422.5473,-133.1581"/>
<polygon fill="#000000" stroke="#000000" points="426.0474,-133.0033 422.5473,-123.0034 419.0474,-133.0034 426.0474,-133.0033"/>
<text text-anchor="middle" x="475.5473" y="-144.8" font-family="Times,serif" font-size="14.00" fill="#000000">2.25734133053002</text>
</g>
<!-- PKA -->
<g id="node8" class="node">
<title>PKA</title>
<ellipse fill="none" stroke="#000000" cx="422.5473" cy="-18" rx="28.6953" ry="18"/>
<text text-anchor="middle" x="422.5473" y="-14.3" font-family="Times,serif" font-size="14.00" fill="#000000">PKA</text>
</g>
<!-- pakts473&#45;&gt;PKA -->
<g id="edge5" class="edge">
<title>pakts473&#45;&gt;PKA</title>
<path fill="none" stroke="#000000" d="M422.5473,-86.9735C422.5473,-75.1918 422.5473,-59.5607 422.5473,-46.1581"/>
<polygon fill="#000000" stroke="#000000" points="426.0474,-46.0033 422.5473,-36.0034 419.0474,-46.0034 426.0474,-46.0033"/>
<text text-anchor="middle" x="472.0473" y="-57.8" font-family="Times,serif" font-size="14.00" fill="#000000">12.587072805305</text>
</g>
<!-- PKC -->
<g id="node9" class="node">
<title>PKC</title>
<ellipse fill="none" stroke="#000000" cx="503.5473" cy="-192" rx="27.8951" ry="18"/>
<text text-anchor="middle" x="503.5473" y="-188.3" font-family="Times,serif" font-size="14.00" fill="#000000">PKC</text>
</g>
<!-- P38 -->
<g id="node10" class="node">
<title>P38</title>
<ellipse fill="none" stroke="#000000" cx="576.5473" cy="-192" rx="27" ry="18"/>
<text text-anchor="middle" x="576.5473" y="-188.3" font-family="Times,serif" font-size="14.00" fill="#000000">P38</text>
</g>
<!-- pjnk -->
<g id="node11" class="node">
<title>pjnk</title>
<ellipse fill="none" stroke="#000000" cx="576.5473" cy="-105" rx="27" ry="18"/>
<text text-anchor="middle" x="576.5473" y="-101.3" font-family="Times,serif" font-size="14.00" fill="#000000">pjnk</text>
</g>
<!-- P38&#45;&gt;pjnk -->
<g id="edge6" class="edge">
<title>P38&#45;&gt;pjnk</title>
<path fill="none" stroke="#000000" d="M576.5473,-173.9735C576.5473,-162.1918 576.5473,-146.5607 576.5473,-133.1581"/>
<polygon fill="#000000" stroke="#000000" points="580.0474,-133.0033 576.5473,-123.0034 573.0474,-133.0034 580.0474,-133.0033"/>
<text text-anchor="middle" x="632.5473" y="-144.8" font-family="Times,serif" font-size="14.00" fill="#000000">0.699393944664836</text>
</g>
</g>
</svg>
