<?xml version="1.0" encoding="UTF-8" standalone="no"?>
<!DOCTYPE svg PUBLIC "-//W3C//DTD SVG 1.1//EN"
 "http://www.w3.org/Graphics/SVG/1.1/DTD/svg11.dtd">
<!-- Generated by graphviz version 2.40.1 (20161225.0304)
 -->
<!-- Title: %3 Pages: 1 -->
<svg width="425pt" height="218pt"
 viewBox="0.00 0.00 424.93 218.00" xmlns="http://www.w3.org/2000/svg" xmlns:xlink="http://www.w3.org/1999/xlink">
<g id="graph0" class="graph" transform="scale(1 1) rotate(0) translate(4 214)">
<title>%3</title>
<polygon fill="#ffffff" stroke="transparent" points="-4,4 -4,-214 420.93,-214 420.93,4 -4,4"/>
<!-- mpg -->
<g id="node1" class="node">
<title>mpg</title>
<ellipse fill="none" stroke="#000000" cx="162.93" cy="-192" rx="27" ry="18"/>
<text text-anchor="middle" x="162.93" y="-188.3" font-family="Times,serif" font-size="14.00" fill="#000000">mpg</text>
</g>
<!-- displacement -->
<g id="node3" class="node">
<title>displacement</title>
<ellipse fill="none" stroke="#000000" cx="203.93" cy="-105" rx="57.6901" ry="18"/>
<text text-anchor="middle" x="203.93" y="-101.3" font-family="Times,serif" font-size="14.00" fill="#000000">displacement</text>
</g>
<!-- mpg&#45;&gt;displacement -->
<g id="edge5" class="edge">
<title>mpg&#45;&gt;displacement</title>
<path fill="none" stroke="#000000" d="M157.7837,-174.1945C155.8183,-164.0093 155.0683,-151.2593 159.93,-141 162.1965,-136.2171 165.4441,-131.8584 169.1624,-127.9559"/>
<polygon fill="#000000" stroke="#000000" points="171.7323,-130.3489 176.7586,-121.0222 167.0132,-125.1788 171.7323,-130.3489"/>
<text text-anchor="middle" x="168.93" y="-144.8" font-family="Times,serif" font-size="14.00" fill="#000000">1.0</text>
</g>
<!-- horsepower -->
<g id="node4" class="node">
<title>horsepower</title>
<ellipse fill="none" stroke="#000000" cx="68.93" cy="-18" rx="51.9908" ry="18"/>
<text text-anchor="middle" x="68.93" y="-14.3" font-family="Times,serif" font-size="14.00" fill="#000000">horsepower</text>
</g>
<!-- mpg&#45;&gt;horsepower -->
<g id="edge10" class="edge">
<title>mpg&#45;&gt;horsepower</title>
<path fill="none" stroke="#000000" d="M137.519,-185.0976C110.4174,-176.0682 69.7884,-157.2126 57.93,-123 49.212,-97.8481 53.9262,-67.44 59.6378,-45.8348"/>
<polygon fill="#000000" stroke="#000000" points="63.0667,-46.5753 62.4673,-35.9974 56.3394,-44.6403 63.0667,-46.5753"/>
<text text-anchor="middle" x="66.93" y="-101.3" font-family="Times,serif" font-size="14.00" fill="#000000">1.0</text>
</g>
<!-- weight -->
<g id="node5" class="node">
<title>weight</title>
<ellipse fill="none" stroke="#000000" cx="339.93" cy="-18" rx="34.394" ry="18"/>
<text text-anchor="middle" x="339.93" y="-14.3" font-family="Times,serif" font-size="14.00" fill="#000000">weight</text>
</g>
<!-- mpg&#45;&gt;weight -->
<g id="edge13" class="edge">
<title>mpg&#45;&gt;weight</title>
<path fill="none" stroke="#000000" d="M184.3632,-180.55C189.0937,-178.2304 194.1277,-175.9174 198.93,-174 224.3909,-163.8341 235.4426,-171.682 257.93,-156 297.7398,-128.2379 301.6688,-112.1277 323.93,-69 327.6589,-61.7758 330.7094,-53.5231 333.1092,-45.7921"/>
<polygon fill="#000000" stroke="#000000" points="336.5079,-46.6366 335.8914,-36.0597 329.7775,-44.7126 336.5079,-46.6366"/>
<text text-anchor="middle" x="322.93" y="-101.3" font-family="Times,serif" font-size="14.00" fill="#000000">1.0</text>
</g>
<!-- cylinders -->
<g id="node2" class="node">
<title>cylinders</title>
<ellipse fill="none" stroke="#000000" cx="203.93" cy="-18" rx="42.7926" ry="18"/>
<text text-anchor="middle" x="203.93" y="-14.3" font-family="Times,serif" font-size="14.00" fill="#000000">cylinders</text>
</g>
<!-- cylinders&#45;&gt;displacement -->
<g id="edge6" class="edge">
<title>cylinders&#45;&gt;displacement</title>
<path fill="none" stroke="#000000" d="M190.6588,-35.407C187.1098,-41.0394 183.7551,-47.5132 181.93,-54 179.6275,-62.183 181.5197,-70.778 184.9906,-78.5309"/>
<polygon fill="#000000" stroke="#000000" points="181.997,-80.3532 189.8314,-87.4857 188.1548,-77.0243 181.997,-80.3532"/>
<text text-anchor="middle" x="190.93" y="-57.8" font-family="Times,serif" font-size="14.00" fill="#000000">1.0</text>
</g>
<!-- displacement&#45;&gt;mpg -->
<g id="edge1" class="edge">
<title>displacement&#45;&gt;mpg</title>
<path fill="none" stroke="#000000" d="M196.5322,-123.0926C192.4155,-132.9122 187.0925,-145.2148 181.93,-156 180.3881,-159.2211 178.7147,-162.5732 177.0217,-165.8791"/>
<polygon fill="#000000" stroke="#000000" points="173.8231,-164.4429 172.2915,-174.9265 180.0264,-167.6862 173.8231,-164.4429"/>
<text text-anchor="middle" x="197.93" y="-144.8" font-family="Times,serif" font-size="14.00" fill="#000000">1.0</text>
</g>
<!-- displacement&#45;&gt;cylinders -->
<g id="edge4" class="edge">
<title>displacement&#45;&gt;cylinders</title>
<path fill="none" stroke="#000000" d="M203.93,-86.9735C203.93,-75.1918 203.93,-59.5607 203.93,-46.1581"/>
<polygon fill="#000000" stroke="#000000" points="207.4301,-46.0033 203.93,-36.0034 200.4301,-46.0034 207.4301,-46.0033"/>
<text text-anchor="middle" x="212.93" y="-57.8" font-family="Times,serif" font-size="14.00" fill="#000000">1.0</text>
</g>
<!-- displacement&#45;&gt;horsepower -->
<g id="edge11" class="edge">
<title>displacement&#45;&gt;horsepower</title>
<path fill="none" stroke="#000000" d="M157.7622,-93.842C140.6938,-88.2412 121.8815,-80.1998 106.93,-69 98.181,-62.4464 90.5159,-53.3345 84.4047,-44.623"/>
<polygon fill="#000000" stroke="#000000" points="87.2515,-42.5821 78.829,-36.1547 81.405,-46.4316 87.2515,-42.5821"/>
<text text-anchor="middle" x="115.93" y="-57.8" font-family="Times,serif" font-size="14.00" fill="#000000">1.0</text>
</g>
<!-- displacement&#45;&gt;weight -->
<g id="edge14" class="edge">
<title>displacement&#45;&gt;weight</title>
<path fill="none" stroke="#000000" d="M241.5561,-91.3147C255.6955,-85.4036 271.5688,-77.8103 284.93,-69 296.5962,-61.3073 308.1463,-51.1023 317.6277,-41.843"/>
<polygon fill="#000000" stroke="#000000" points="320.1772,-44.2429 324.7507,-34.686 315.2156,-39.3049 320.1772,-44.2429"/>
<text text-anchor="middle" x="310.93" y="-57.8" font-family="Times,serif" font-size="14.00" fill="#000000">1.0</text>
</g>
<!-- horsepower&#45;&gt;mpg -->
<g id="edge2" class="edge">
<title>horsepower&#45;&gt;mpg</title>
<path fill="none" stroke="#000000" d="M45.6347,-34.2532C30.2079,-46.6352 11.4756,-65.2303 3.93,-87 -1.31,-102.1176 -1.31,-107.8824 3.93,-123 10.045,-140.6422 14.3518,-145.7062 29.93,-156 58.7758,-175.0608 97.4449,-184.0739 125.65,-188.3092"/>
<polygon fill="#000000" stroke="#000000" points="125.5237,-191.8243 135.9053,-189.7095 126.4707,-184.8887 125.5237,-191.8243"/>
<text text-anchor="middle" x="12.93" y="-101.3" font-family="Times,serif" font-size="14.00" fill="#000000">1.0</text>
</g>
<!-- horsepower&#45;&gt;displacement -->
<g id="edge7" class="edge">
<title>horsepower&#45;&gt;displacement</title>
<path fill="none" stroke="#000000" d="M93.7525,-33.9967C115.1196,-47.7667 146.16,-67.7705 169.8524,-83.0389"/>
<polygon fill="#000000" stroke="#000000" points="168.2358,-86.1609 178.5375,-88.636 172.0277,-80.2769 168.2358,-86.1609"/>
<text text-anchor="middle" x="153.93" y="-57.8" font-family="Times,serif" font-size="14.00" fill="#000000">1.0</text>
</g>
<!-- weight&#45;&gt;mpg -->
<g id="edge3" class="edge">
<title>weight&#45;&gt;mpg</title>
<path fill="none" stroke="#000000" d="M346.4796,-35.7041C348.2983,-41.4566 350.0224,-47.9243 350.93,-54 357.8412,-100.2696 360.3734,-125.4647 324.93,-156 282.0728,-192.9224 252.9254,-157.1331 198.93,-174 197.029,-174.5938 195.1052,-175.2785 193.1871,-176.0264"/>
<polygon fill="#000000" stroke="#000000" points="191.5212,-172.9355 183.777,-180.1659 194.3399,-179.343 191.5212,-172.9355"/>
<text text-anchor="middle" x="363.93" y="-101.3" font-family="Times,serif" font-size="14.00" fill="#000000">1.0</text>
</g>
<!-- weight&#45;&gt;displacement -->
<g id="edge8" class="edge">
<title>weight&#45;&gt;displacement</title>
<path fill="none" stroke="#000000" d="M313.1464,-29.4672C298.9932,-35.9537 281.5693,-44.6303 266.93,-54 254.4627,-61.9794 241.6045,-72.0119 230.7815,-81.063"/>
<polygon fill="#000000" stroke="#000000" points="228.2835,-78.5932 222.9419,-87.7429 232.8235,-83.9213 228.2835,-78.5932"/>
<text text-anchor="middle" x="275.93" y="-57.8" font-family="Times,serif" font-size="14.00" fill="#000000">1.0</text>
</g>
<!-- acceleration -->
<g id="node6" class="node">
<title>acceleration</title>
<ellipse fill="none" stroke="#000000" cx="260.93" cy="-192" rx="53.0913" ry="18"/>
<text text-anchor="middle" x="260.93" y="-188.3" font-family="Times,serif" font-size="14.00" fill="#000000">acceleration</text>
</g>
<!-- acceleration&#45;&gt;displacement -->
<g id="edge9" class="edge">
<title>acceleration&#45;&gt;displacement</title>
<path fill="none" stroke="#000000" d="M249.3952,-174.3943C241.3363,-162.0938 230.4319,-145.4503 221.3224,-131.5463"/>
<polygon fill="#000000" stroke="#000000" points="224.0512,-129.3247 215.6432,-122.8782 218.1959,-133.1609 224.0512,-129.3247"/>
<text text-anchor="middle" x="244.93" y="-144.8" font-family="Times,serif" font-size="14.00" fill="#000000">1.0</text>
</g>
<!-- acceleration&#45;&gt;horsepower -->
<g id="edge12" class="edge">
<title>acceleration&#45;&gt;horsepower</title>
<path fill="none" stroke="#000000" d="M219.8362,-180.37C194.3966,-172.7756 164.4571,-163.0058 152.93,-156 112.2702,-131.2882 88.6117,-78.7293 77.2768,-46.0809"/>
<polygon fill="#000000" stroke="#000000" points="80.4858,-44.6369 74.0238,-36.2409 73.8396,-46.8342 80.4858,-44.6369"/>
<text text-anchor="middle" x="125.93" y="-101.3" font-family="Times,serif" font-size="14.00" fill="#000000">1.0</text>
</g>
<!-- acceleration&#45;&gt;weight -->
<g id="edge15" class="edge">
<title>acceleration&#45;&gt;weight</title>
<path fill="none" stroke="#000000" d="M307.1913,-182.8134C335.7759,-176.2319 368.8623,-166.6722 378.93,-156 410.0379,-123.0241 401.9103,-93.0771 378.93,-54 375.8778,-48.8099 371.8428,-43.9238 367.5256,-39.5247"/>
<polygon fill="#000000" stroke="#000000" points="369.8169,-36.8758 360.1173,-32.6135 365.0419,-41.9943 369.8169,-36.8758"/>
<text text-anchor="middle" x="407.93" y="-101.3" font-family="Times,serif" font-size="14.00" fill="#000000">1.0</text>
</g>
</g>
</svg>
