<?xml version="1.0" encoding="UTF-8" standalone="no"?>
<!DOCTYPE svg PUBLIC "-//W3C//DTD SVG 1.1//EN"
 "http://www.w3.org/Graphics/SVG/1.1/DTD/svg11.dtd">
<!-- Generated by graphviz version 2.43.0 (0)
 -->
<!-- Title: %3 Pages: 1 -->
<svg width="1082pt" height="740pt"
 viewBox="0.00 0.00 1082.00 740.00" xmlns="http://www.w3.org/2000/svg" xmlns:xlink="http://www.w3.org/1999/xlink">
<g id="graph0" class="graph" transform="scale(1 1) rotate(0) translate(4 736)">
<title>%3</title>
<polygon fill="white" stroke="transparent" points="-4,4 -4,-736 1078,-736 1078,4 -4,4"/>
<!-- raf -->
<g id="node1" class="node">
<title>raf</title>
<ellipse fill="none" stroke="black" cx="701" cy="-453" rx="27" ry="18"/>
<text text-anchor="middle" x="701" y="-449.3" font-family="Times,serif" font-size="14.00">raf</text>
</g>
<!-- mek -->
<g id="node2" class="node">
<title>mek</title>
<ellipse fill="none" stroke="black" cx="404" cy="-366" rx="30.59" ry="18"/>
<text text-anchor="middle" x="404" y="-362.3" font-family="Times,serif" font-size="14.00">mek</text>
</g>
<!-- raf&#45;&gt;mek -->
<g id="edge4" class="edge">
<title>raf&#45;&gt;mek</title>
<path fill="none" stroke="black" d="M676.7,-445.04C624.73,-430.17 502.53,-395.2 440.91,-377.56"/>
<polygon fill="black" stroke="black" points="441.78,-374.17 431.2,-374.79 439.85,-380.9 441.78,-374.17"/>
<text text-anchor="middle" x="587" y="-405.8" font-family="Times,serif" font-size="14.00">1.48</text>
</g>
<!-- pka -->
<g id="node8" class="node">
<title>pka</title>
<ellipse fill="none" stroke="black" cx="643" cy="-192" rx="27.1" ry="18"/>
<text text-anchor="middle" x="643" y="-188.3" font-family="Times,serif" font-size="14.00">pka</text>
</g>
<!-- raf&#45;&gt;pka -->
<g id="edge16" class="edge">
<title>raf&#45;&gt;pka</title>
<path fill="none" stroke="black" d="M705.42,-435.24C711.58,-409.1 720.84,-357.25 710,-315 700.52,-278.06 677.26,-240.29 660.82,-216.76"/>
<polygon fill="black" stroke="black" points="663.56,-214.57 654.89,-208.47 657.86,-218.64 663.56,-214.57"/>
<text text-anchor="middle" x="728" y="-318.8" font-family="Times,serif" font-size="14.00">0.55</text>
</g>
<!-- pkc -->
<g id="node9" class="node">
<title>pkc</title>
<ellipse fill="none" stroke="black" cx="356" cy="-279" rx="27" ry="18"/>
<text text-anchor="middle" x="356" y="-275.3" font-family="Times,serif" font-size="14.00">pkc</text>
</g>
<!-- raf&#45;&gt;pkc -->
<g id="edge22" class="edge">
<title>raf&#45;&gt;pkc</title>
<path fill="none" stroke="black" d="M689.72,-436.47C672.35,-413.68 636.87,-371.37 597,-348 531.14,-309.39 442.22,-291.75 392.88,-284.48"/>
<polygon fill="black" stroke="black" points="393.07,-280.98 382.68,-283.05 392.1,-287.91 393.07,-280.98"/>
<text text-anchor="middle" x="661.5" y="-362.3" font-family="Times,serif" font-size="14.00">&#45;0.13</text>
</g>
<!-- jnk -->
<g id="node11" class="node">
<title>jnk</title>
<ellipse fill="none" stroke="black" cx="671" cy="-18" rx="27" ry="18"/>
<text text-anchor="middle" x="671" y="-14.3" font-family="Times,serif" font-size="14.00">jnk</text>
</g>
<!-- raf&#45;&gt;jnk -->
<g id="edge35" class="edge">
<title>raf&#45;&gt;jnk</title>
<path fill="none" stroke="black" d="M717.97,-438.81C766.09,-400.73 900,-289.97 900,-236.5 900,-236.5 900,-236.5 900,-104 900,-63.43 772.06,-36.02 707.44,-24.76"/>
<polygon fill="black" stroke="black" points="707.71,-21.26 697.27,-23.03 706.54,-28.16 707.71,-21.26"/>
<text text-anchor="middle" x="918.5" y="-231.8" font-family="Times,serif" font-size="14.00">&#45;0.02</text>
</g>
<!-- mek&#45;&gt;pka -->
<g id="edge17" class="edge">
<title>mek&#45;&gt;pka</title>
<path fill="none" stroke="black" d="M427.36,-354.03C441.94,-347.16 461.08,-338.11 478,-330 508.3,-315.48 518.98,-316.95 546,-297 577.53,-273.72 607.25,-239.33 625.28,-216.55"/>
<polygon fill="black" stroke="black" points="628.22,-218.48 631.6,-208.44 622.7,-214.18 628.22,-218.48"/>
<text text-anchor="middle" x="605.5" y="-275.3" font-family="Times,serif" font-size="14.00">&#45;0.50</text>
</g>
<!-- mek&#45;&gt;pkc -->
<g id="edge23" class="edge">
<title>mek&#45;&gt;pkc</title>
<path fill="none" stroke="black" d="M394.75,-348.61C387.73,-336.19 377.97,-318.9 370,-304.78"/>
<polygon fill="black" stroke="black" points="373.03,-303.04 365.06,-296.05 366.93,-306.48 373.03,-303.04"/>
<text text-anchor="middle" x="399" y="-318.8" font-family="Times,serif" font-size="14.00">0.10</text>
</g>
<!-- p38 -->
<g id="node10" class="node">
<title>p38</title>
<ellipse fill="none" stroke="black" cx="671" cy="-105" rx="28.7" ry="18"/>
<text text-anchor="middle" x="671" y="-101.3" font-family="Times,serif" font-size="14.00">p38</text>
</g>
<!-- mek&#45;&gt;p38 -->
<g id="edge29" class="edge">
<title>mek&#45;&gt;p38</title>
<path fill="none" stroke="black" d="M415.38,-349.08C430.79,-327.98 459.62,-290.05 488,-261 539.85,-207.92 608.2,-153.63 644.94,-125.53"/>
<polygon fill="black" stroke="black" points="647.3,-128.14 653.15,-119.3 643.07,-122.56 647.3,-128.14"/>
<text text-anchor="middle" x="537" y="-231.8" font-family="Times,serif" font-size="14.00">0.03</text>
</g>
<!-- plc -->
<g id="node3" class="node">
<title>plc</title>
<ellipse fill="none" stroke="black" cx="629" cy="-627" rx="27" ry="18"/>
<text text-anchor="middle" x="629" y="-623.3" font-family="Times,serif" font-size="14.00">plc</text>
</g>
<!-- plc&#45;&gt;raf -->
<g id="edge1" class="edge">
<title>plc&#45;&gt;raf</title>
<path fill="none" stroke="black" d="M637.79,-609.81C650.04,-586.8 672.36,-543.09 687,-504 689.78,-496.57 692.31,-488.34 694.42,-480.74"/>
<polygon fill="black" stroke="black" points="697.85,-481.46 697.04,-470.9 691.09,-479.66 697.85,-481.46"/>
<text text-anchor="middle" x="695" y="-536.3" font-family="Times,serif" font-size="14.00">0.14</text>
</g>
<!-- plc&#45;&gt;mek -->
<g id="edge5" class="edge">
<title>plc&#45;&gt;mek</title>
<path fill="none" stroke="black" d="M605.98,-617.48C566.05,-601.52 484,-563.26 440,-504 415.84,-471.47 407.87,-424.06 405.25,-394.4"/>
<polygon fill="black" stroke="black" points="408.74,-394.06 404.51,-384.34 401.76,-394.57 408.74,-394.06"/>
<text text-anchor="middle" x="456" y="-492.8" font-family="Times,serif" font-size="14.00">0.04</text>
</g>
<!-- pip2 -->
<g id="node4" class="node">
<title>pip2</title>
<ellipse fill="none" stroke="black" cx="197" cy="-540" rx="31.4" ry="18"/>
<text text-anchor="middle" x="197" y="-536.3" font-family="Times,serif" font-size="14.00">pip2</text>
</g>
<!-- plc&#45;&gt;pip2 -->
<g id="edge11" class="edge">
<title>plc&#45;&gt;pip2</title>
<path fill="none" stroke="black" d="M602.06,-625.61C547.16,-624.24 418.74,-618.14 315,-591 284.54,-583.03 251.7,-568.6 228.42,-557.28"/>
<polygon fill="black" stroke="black" points="229.89,-554.1 219.37,-552.8 226.78,-560.37 229.89,-554.1"/>
<text text-anchor="middle" x="331" y="-579.8" font-family="Times,serif" font-size="14.00">1.58</text>
</g>
<!-- akt -->
<g id="node7" class="node">
<title>akt</title>
<ellipse fill="none" stroke="black" cx="583" cy="-540" rx="27" ry="18"/>
<text text-anchor="middle" x="583" y="-536.3" font-family="Times,serif" font-size="14.00">akt</text>
</g>
<!-- plc&#45;&gt;akt -->
<g id="edge13" class="edge">
<title>plc&#45;&gt;akt</title>
<path fill="none" stroke="black" d="M620.13,-609.61C613.47,-597.3 604.23,-580.23 596.63,-566.19"/>
<polygon fill="black" stroke="black" points="599.52,-564.18 591.69,-557.05 593.37,-567.51 599.52,-564.18"/>
<text text-anchor="middle" x="625" y="-579.8" font-family="Times,serif" font-size="14.00">0.28</text>
</g>
<!-- plc&#45;&gt;pka -->
<g id="edge18" class="edge">
<title>plc&#45;&gt;pka</title>
<path fill="none" stroke="black" d="M649.6,-615.05C669.36,-603.48 698.55,-583.4 715,-558 770.66,-472.06 744.02,-432.31 748,-330 748.26,-323.34 750.01,-321.36 748,-315 733.79,-269.97 719.37,-262.39 687,-228 681.66,-222.33 675.38,-216.8 669.26,-211.87"/>
<polygon fill="black" stroke="black" points="671.17,-208.92 661.12,-205.56 666.88,-214.45 671.17,-208.92"/>
<text text-anchor="middle" x="768.5" y="-405.8" font-family="Times,serif" font-size="14.00">&#45;0.49</text>
</g>
<!-- plc&#45;&gt;pkc -->
<g id="edge24" class="edge">
<title>plc&#45;&gt;pkc</title>
<path fill="none" stroke="black" d="M604.64,-619.16C582.52,-612.7 549.16,-602.33 521,-591 443.4,-559.77 410.93,-547.01 376,-471 351.23,-417.09 351.23,-345.85 353.53,-307.41"/>
<polygon fill="black" stroke="black" points="357.05,-307.26 354.26,-297.04 350.07,-306.77 357.05,-307.26"/>
<text text-anchor="middle" x="392" y="-449.3" font-family="Times,serif" font-size="14.00">0.05</text>
</g>
<!-- plc&#45;&gt;p38 -->
<g id="edge30" class="edge">
<title>plc&#45;&gt;p38</title>
<path fill="none" stroke="black" d="M652.44,-617.99C668.35,-611.93 689.43,-602.67 706,-591 722.7,-579.23 726.48,-574.87 738,-558 800.79,-466.01 818.35,-438.84 842,-330 848.09,-301.96 867.74,-283.37 838,-228 808.88,-173.79 743.91,-137.49 704.14,-119.41"/>
<polygon fill="black" stroke="black" points="705.41,-116.15 694.85,-115.31 702.58,-122.55 705.41,-116.15"/>
<text text-anchor="middle" x="853" y="-362.3" font-family="Times,serif" font-size="14.00">0.06</text>
</g>
<!-- plc&#45;&gt;jnk -->
<g id="edge36" class="edge">
<title>plc&#45;&gt;jnk</title>
<path fill="none" stroke="black" d="M653.29,-618.4C678.36,-610.4 715.64,-598 729,-591 809.31,-548.91 834.79,-539.68 894,-471 916.58,-444.8 911.43,-431.18 930,-402 953.58,-364.95 990,-367.41 990,-323.5 990,-323.5 990,-323.5 990,-104 990,-46.22 792.12,-26.73 708.06,-21.05"/>
<polygon fill="black" stroke="black" points="708.13,-17.55 697.92,-20.4 707.68,-24.54 708.13,-17.55"/>
<text text-anchor="middle" x="1006" y="-318.8" font-family="Times,serif" font-size="14.00">0.10</text>
</g>
<!-- pip2&#45;&gt;pkc -->
<g id="edge25" class="edge">
<title>pip2&#45;&gt;pkc</title>
<path fill="none" stroke="black" d="M193.89,-521.83C187.32,-479.57 177.14,-369.95 236,-315 258.41,-294.08 292.62,-285.59 318.79,-282.18"/>
<polygon fill="black" stroke="black" points="319.19,-285.66 328.74,-281.08 318.41,-278.7 319.19,-285.66"/>
<text text-anchor="middle" x="210" y="-405.8" font-family="Times,serif" font-size="14.00">0.03</text>
</g>
<!-- pip3 -->
<g id="node5" class="node">
<title>pip3</title>
<ellipse fill="none" stroke="black" cx="144" cy="-714" rx="31.4" ry="18"/>
<text text-anchor="middle" x="144" y="-710.3" font-family="Times,serif" font-size="14.00">pip3</text>
</g>
<!-- pip3&#45;&gt;mek -->
<g id="edge6" class="edge">
<title>pip3&#45;&gt;mek</title>
<path fill="none" stroke="black" d="M135.54,-696.53C118.89,-661.62 86.31,-578.76 120,-522 173.74,-431.44 301.07,-390.39 365.4,-374.91"/>
<polygon fill="black" stroke="black" points="366.21,-378.31 375.16,-372.64 364.62,-371.49 366.21,-378.31"/>
<text text-anchor="middle" x="138.5" y="-536.3" font-family="Times,serif" font-size="14.00">&#45;0.06</text>
</g>
<!-- pip3&#45;&gt;plc -->
<g id="edge9" class="edge">
<title>pip3&#45;&gt;plc</title>
<path fill="none" stroke="black" d="M173.61,-707.81C258.27,-692.97 501.15,-650.41 593.12,-634.29"/>
<polygon fill="black" stroke="black" points="593.82,-637.72 603.07,-632.54 592.61,-630.82 593.82,-637.72"/>
<text text-anchor="middle" x="432" y="-666.8" font-family="Times,serif" font-size="14.00">0.37</text>
</g>
<!-- pip3&#45;&gt;pip2 -->
<g id="edge12" class="edge">
<title>pip3&#45;&gt;pip2</title>
<path fill="none" stroke="black" d="M149.18,-696.19C158.4,-666.27 177.74,-603.52 188.79,-567.65"/>
<polygon fill="black" stroke="black" points="192.2,-568.46 191.8,-557.87 185.51,-566.4 192.2,-568.46"/>
<text text-anchor="middle" x="192" y="-623.3" font-family="Times,serif" font-size="14.00">0.80</text>
</g>
<!-- pip3&#45;&gt;akt -->
<g id="edge14" class="edge">
<title>pip3&#45;&gt;akt</title>
<path fill="none" stroke="black" d="M169.18,-703.13C244.37,-673.67 467.24,-586.36 550.84,-553.6"/>
<polygon fill="black" stroke="black" points="552.29,-556.79 560.32,-549.88 549.74,-550.27 552.29,-556.79"/>
<text text-anchor="middle" x="426.5" y="-623.3" font-family="Times,serif" font-size="14.00">&#45;0.17</text>
</g>
<!-- pip3&#45;&gt;pkc -->
<g id="edge26" class="edge">
<title>pip3&#45;&gt;pkc</title>
<path fill="none" stroke="black" d="M121.57,-701.27C98.22,-687.25 65,-661.44 65,-628 65,-628 65,-628 65,-365 65,-312.72 240.23,-290.39 318.74,-283.01"/>
<polygon fill="black" stroke="black" points="319.5,-286.46 329.15,-282.07 318.87,-279.49 319.5,-286.46"/>
<text text-anchor="middle" x="83.5" y="-492.8" font-family="Times,serif" font-size="14.00">&#45;0.10</text>
</g>
<!-- pip3&#45;&gt;jnk -->
<g id="edge37" class="edge">
<title>pip3&#45;&gt;jnk</title>
<path fill="none" stroke="black" d="M113.81,-708.85C71.59,-701.16 0,-680.4 0,-628 0,-628 0,-628 0,-104 0,-39.63 492.34,-23.17 633.56,-19.77"/>
<polygon fill="black" stroke="black" points="633.95,-23.26 643.86,-19.53 633.79,-16.27 633.95,-23.26"/>
<text text-anchor="middle" x="18.5" y="-362.3" font-family="Times,serif" font-size="14.00">&#45;0.05</text>
</g>
<!-- erk -->
<g id="node6" class="node">
<title>erk</title>
<ellipse fill="none" stroke="black" cx="797" cy="-714" rx="27" ry="18"/>
<text text-anchor="middle" x="797" y="-710.3" font-family="Times,serif" font-size="14.00">erk</text>
</g>
<!-- erk&#45;&gt;raf -->
<g id="edge2" class="edge">
<title>erk&#45;&gt;raf</title>
<path fill="none" stroke="black" d="M808.88,-697.76C827.42,-671.99 859.23,-618.47 840,-576 817.66,-526.67 764.43,-489.39 730.71,-469.69"/>
<polygon fill="black" stroke="black" points="732.18,-466.5 721.75,-464.61 728.72,-472.59 732.18,-466.5"/>
<text text-anchor="middle" x="862.5" y="-579.8" font-family="Times,serif" font-size="14.00">&#45;1.47</text>
</g>
<!-- erk&#45;&gt;mek -->
<g id="edge7" class="edge">
<title>erk&#45;&gt;mek</title>
<path fill="none" stroke="black" d="M769.96,-712.66C682.15,-711.3 409.03,-704.92 381,-678 341.91,-640.46 344.65,-486.98 360,-435 364.82,-418.67 374.92,-402.58 384.23,-390.15"/>
<polygon fill="black" stroke="black" points="387.07,-392.21 390.48,-382.18 381.56,-387.89 387.07,-392.21"/>
<text text-anchor="middle" x="368.5" y="-536.3" font-family="Times,serif" font-size="14.00">&#45;0.24</text>
</g>
<!-- erk&#45;&gt;plc -->
<g id="edge10" class="edge">
<title>erk&#45;&gt;plc</title>
<path fill="none" stroke="black" d="M771.09,-708.03C747.78,-702.83 713.12,-693.27 686,-678 672.84,-670.59 660.02,-659.78 649.89,-650.1"/>
<polygon fill="black" stroke="black" points="652.27,-647.54 642.7,-643 647.35,-652.52 652.27,-647.54"/>
<text text-anchor="middle" x="702" y="-666.8" font-family="Times,serif" font-size="14.00">0.59</text>
</g>
<!-- erk&#45;&gt;akt -->
<g id="edge15" class="edge">
<title>erk&#45;&gt;akt</title>
<path fill="none" stroke="black" d="M782.83,-698.24C756.98,-671.79 699.79,-615.42 645,-576 634.99,-568.8 623.36,-561.89 612.9,-556.15"/>
<polygon fill="black" stroke="black" points="614.55,-553.06 604.08,-551.42 611.24,-559.23 614.55,-553.06"/>
<text text-anchor="middle" x="742" y="-623.3" font-family="Times,serif" font-size="14.00">1.90</text>
</g>
<!-- erk&#45;&gt;pka -->
<g id="edge19" class="edge">
<title>erk&#45;&gt;pka</title>
<path fill="none" stroke="black" d="M815.62,-700.5C823.79,-694.39 833.08,-686.52 840,-678 871.25,-639.55 895.35,-624.46 885,-576 852.96,-426 833.73,-385.4 744,-261 726.47,-236.7 697.39,-218.46 674.92,-207.02"/>
<polygon fill="black" stroke="black" points="676.27,-203.79 665.75,-202.54 673.2,-210.07 676.27,-203.79"/>
<text text-anchor="middle" x="874" y="-449.3" font-family="Times,serif" font-size="14.00">4.81</text>
</g>
<!-- erk&#45;&gt;pkc -->
<g id="edge27" class="edge">
<title>erk&#45;&gt;pkc</title>
<path fill="none" stroke="black" d="M769.92,-712.52C687.73,-710.79 442.17,-703.56 367,-678 341.44,-669.31 336.3,-662.8 316,-645 288.29,-620.7 264.81,-612.49 270,-576 284.57,-473.65 326.13,-357.2 345.64,-306.23"/>
<polygon fill="black" stroke="black" points="349,-307.24 349.34,-296.65 342.47,-304.71 349,-307.24"/>
<text text-anchor="middle" x="306.5" y="-492.8" font-family="Times,serif" font-size="14.00">&#45;0.33</text>
</g>
<!-- erk&#45;&gt;p38 -->
<g id="edge31" class="edge">
<title>erk&#45;&gt;p38</title>
<path fill="none" stroke="black" d="M823.65,-710.45C867.96,-704.59 952,-685.85 952,-628 952,-628 952,-628 952,-191 952,-140.92 786.43,-117.64 709.47,-109.52"/>
<polygon fill="black" stroke="black" points="709.53,-106.01 699.23,-108.48 708.82,-112.98 709.53,-106.01"/>
<text text-anchor="middle" x="970.5" y="-405.8" font-family="Times,serif" font-size="14.00">&#45;0.16</text>
</g>
<!-- erk&#45;&gt;jnk -->
<g id="edge38" class="edge">
<title>erk&#45;&gt;jnk</title>
<path fill="none" stroke="black" d="M823.14,-709.42C885.34,-700.16 1037,-672.98 1037,-628 1037,-628 1037,-628 1037,-104 1037,-36.95 800.98,-22.77 708,-19.79"/>
<polygon fill="black" stroke="black" points="708.01,-16.29 697.91,-19.49 707.81,-23.29 708.01,-16.29"/>
<text text-anchor="middle" x="1055.5" y="-362.3" font-family="Times,serif" font-size="14.00">&#45;0.29</text>
</g>
<!-- akt&#45;&gt;raf -->
<g id="edge3" class="edge">
<title>akt&#45;&gt;raf</title>
<path fill="none" stroke="black" d="M600.71,-526.39C610.03,-519.75 621.65,-511.45 632,-504 646.25,-493.75 662.1,-482.26 675.02,-472.89"/>
<polygon fill="black" stroke="black" points="677.41,-475.48 683.44,-466.77 673.29,-469.82 677.41,-475.48"/>
<text text-anchor="middle" x="667" y="-492.8" font-family="Times,serif" font-size="14.00">0.75</text>
</g>
<!-- akt&#45;&gt;mek -->
<g id="edge8" class="edge">
<title>akt&#45;&gt;mek</title>
<path fill="none" stroke="black" d="M558.34,-532.55C539.44,-526.88 513.26,-517.44 493,-504 452.48,-477.11 426.32,-424.79 413.45,-393.17"/>
<polygon fill="black" stroke="black" points="416.65,-391.72 409.74,-383.68 410.13,-394.27 416.65,-391.72"/>
<text text-anchor="middle" x="474" y="-449.3" font-family="Times,serif" font-size="14.00">0.15</text>
</g>
<!-- akt&#45;&gt;pka -->
<g id="edge20" class="edge">
<title>akt&#45;&gt;pka</title>
<path fill="none" stroke="black" d="M579.83,-522.08C572.5,-481.33 556.06,-378.81 570,-348 584.15,-316.72 611.65,-327.18 628,-297 640.78,-273.4 643.83,-242.57 644.1,-220.62"/>
<polygon fill="black" stroke="black" points="647.6,-220.31 644.04,-210.33 640.6,-220.35 647.6,-220.31"/>
<text text-anchor="middle" x="588.5" y="-362.3" font-family="Times,serif" font-size="14.00">&#45;0.58</text>
</g>
<!-- akt&#45;&gt;pkc -->
<g id="edge28" class="edge">
<title>akt&#45;&gt;pkc</title>
<path fill="none" stroke="black" d="M562.28,-528.17C551.99,-522.07 539.89,-513.72 531,-504 507.37,-478.17 510.03,-465.59 493,-435 471.41,-396.23 468.34,-385.1 444,-348 433.91,-332.62 432.9,-327.06 419,-315 409.57,-306.82 397.92,-299.7 387.22,-294.05"/>
<polygon fill="black" stroke="black" points="388.64,-290.85 378.13,-289.48 385.49,-297.1 388.64,-290.85"/>
<text text-anchor="middle" x="500" y="-405.8" font-family="Times,serif" font-size="14.00">0.25</text>
</g>
<!-- akt&#45;&gt;p38 -->
<g id="edge32" class="edge">
<title>akt&#45;&gt;p38</title>
<path fill="none" stroke="black" d="M587.35,-522.07C595.99,-488.66 616.11,-411.94 635,-348 653.24,-286.26 666.18,-273.09 679,-210 685.12,-179.87 689.44,-171.26 684,-141 683.47,-138.07 682.72,-135.06 681.83,-132.1"/>
<polygon fill="black" stroke="black" points="685.05,-130.69 678.46,-122.39 678.43,-132.99 685.05,-130.69"/>
<text text-anchor="middle" x="662" y="-318.8" font-family="Times,serif" font-size="14.00">0.15</text>
</g>
<!-- akt&#45;&gt;jnk -->
<g id="edge39" class="edge">
<title>akt&#45;&gt;jnk</title>
<path fill="none" stroke="black" d="M576.21,-522.41C555.37,-470.54 494.62,-311.87 510,-261 537.72,-169.3 612.87,-80.52 649.85,-40.76"/>
<polygon fill="black" stroke="black" points="652.41,-43.15 656.72,-33.47 647.31,-38.35 652.41,-43.15"/>
<text text-anchor="middle" x="526" y="-275.3" font-family="Times,serif" font-size="14.00">0.27</text>
</g>
<!-- pka&#45;&gt;p38 -->
<g id="edge33" class="edge">
<title>pka&#45;&gt;p38</title>
<path fill="none" stroke="black" d="M642.21,-173.88C642.28,-164.01 643.28,-151.51 647,-141 648.35,-137.2 650.21,-133.43 652.31,-129.84"/>
<polygon fill="black" stroke="black" points="655.29,-131.69 657.87,-121.41 649.44,-127.84 655.29,-131.69"/>
<text text-anchor="middle" x="665.5" y="-144.8" font-family="Times,serif" font-size="14.00">&#45;0.02</text>
</g>
<!-- pkc&#45;&gt;pka -->
<g id="edge21" class="edge">
<title>pkc&#45;&gt;pka</title>
<path fill="none" stroke="black" d="M366.97,-262.22C375.85,-250.77 389.4,-235.94 405,-228 439.34,-210.52 547.82,-200.06 605.72,-195.58"/>
<polygon fill="black" stroke="black" points="606.21,-199.05 615.92,-194.81 605.68,-192.07 606.21,-199.05"/>
<text text-anchor="middle" x="423.5" y="-231.8" font-family="Times,serif" font-size="14.00">&#45;0.59</text>
</g>
<!-- pkc&#45;&gt;p38 -->
<g id="edge34" class="edge">
<title>pkc&#45;&gt;p38</title>
<path fill="none" stroke="black" d="M362.33,-261.27C371.92,-238.19 392.33,-196.82 423,-174 486.17,-127 579.99,-112.49 632.26,-108"/>
<polygon fill="black" stroke="black" points="632.75,-111.48 642.45,-107.21 632.21,-104.5 632.75,-111.48"/>
<text text-anchor="middle" x="439" y="-188.3" font-family="Times,serif" font-size="14.00">4.95</text>
</g>
<!-- pkc&#45;&gt;jnk -->
<g id="edge40" class="edge">
<title>pkc&#45;&gt;jnk</title>
<path fill="none" stroke="black" d="M358.39,-260.7C361.96,-239.12 370.17,-201.69 387,-174 402.42,-148.63 458.31,-75.79 497,-54 539.76,-29.92 596.67,-22.25 633.57,-19.9"/>
<polygon fill="black" stroke="black" points="634.08,-23.38 643.88,-19.35 633.7,-16.39 634.08,-23.38"/>
<text text-anchor="middle" x="427" y="-144.8" font-family="Times,serif" font-size="14.00">1.47</text>
</g>
<!-- p38&#45;&gt;jnk -->
<g id="edge41" class="edge">
<title>p38&#45;&gt;jnk</title>
<path fill="none" stroke="black" d="M671,-86.8C671,-75.16 671,-59.55 671,-46.24"/>
<polygon fill="black" stroke="black" points="674.5,-46.18 671,-36.18 667.5,-46.18 674.5,-46.18"/>
<text text-anchor="middle" x="687" y="-57.8" font-family="Times,serif" font-size="14.00">0.04</text>
</g>
</g>
</svg>
