<?xml version="1.0" encoding="UTF-8" standalone="no"?>
<!DOCTYPE svg PUBLIC "-//W3C//DTD SVG 1.1//EN"
 "http://www.w3.org/Graphics/SVG/1.1/DTD/svg11.dtd">
<!-- Generated by graphviz version 2.43.0 (0)
 -->
<!-- Title: %3 Pages: 1 -->
<svg width="698pt" height="740pt"
 viewBox="0.00 0.00 698.00 740.00" xmlns="http://www.w3.org/2000/svg" xmlns:xlink="http://www.w3.org/1999/xlink">
<g id="graph0" class="graph" transform="scale(1 1) rotate(0) translate(4 736)">
<title>%3</title>
<polygon fill="white" stroke="transparent" points="-4,4 -4,-736 694,-736 694,4 -4,4"/>
<!-- praf -->
<g id="node1" class="node">
<title>praf</title>
<ellipse fill="none" stroke="black" cx="253" cy="-453" rx="29.8" ry="18"/>
<text text-anchor="middle" x="253" y="-449.3" font-family="Times,serif" font-size="14.00">praf</text>
</g>
<!-- plcg -->
<g id="node3" class="node">
<title>plcg</title>
<ellipse fill="none" stroke="black" cx="364" cy="-366" rx="30.59" ry="18"/>
<text text-anchor="middle" x="364" y="-362.3" font-family="Times,serif" font-size="14.00">plcg</text>
</g>
<!-- praf&#45;&gt;plcg -->
<g id="edge6" class="edge">
<title>praf&#45;&gt;plcg</title>
<path fill="none" stroke="black" d="M262.65,-435.52C269.5,-424.9 279.51,-411.37 291,-402 302.2,-392.87 316.17,-385.43 328.89,-379.79"/>
<polygon fill="black" stroke="black" points="330.44,-382.94 338.3,-375.84 327.73,-376.48 330.44,-382.94"/>
<text text-anchor="middle" x="302.5" y="-405.8" font-family="Times,serif" font-size="14.00">1.0</text>
</g>
<!-- p44/42 -->
<g id="node6" class="node">
<title>p44/42</title>
<ellipse fill="none" stroke="black" cx="310" cy="-18" rx="42.79" ry="18"/>
<text text-anchor="middle" x="310" y="-14.3" font-family="Times,serif" font-size="14.00">p44/42</text>
</g>
<!-- praf&#45;&gt;p44/42 -->
<g id="edge15" class="edge">
<title>praf&#45;&gt;p44/42</title>
<path fill="none" stroke="black" d="M241.86,-435.97C207.91,-387.02 108,-242.49 108,-236.5 108,-236.5 108,-236.5 108,-104 108,-39.44 196.75,-23.12 256.59,-19.45"/>
<polygon fill="black" stroke="black" points="256.86,-22.95 266.67,-18.94 256.5,-15.95 256.86,-22.95"/>
<text text-anchor="middle" x="122.5" y="-231.8" font-family="Times,serif" font-size="14.00">1.0</text>
</g>
<!-- pakts473 -->
<g id="node7" class="node">
<title>pakts473</title>
<ellipse fill="none" stroke="black" cx="263" cy="-192" rx="53.89" ry="18"/>
<text text-anchor="middle" x="263" y="-188.3" font-family="Times,serif" font-size="14.00">pakts473</text>
</g>
<!-- praf&#45;&gt;pakts473 -->
<g id="edge21" class="edge">
<title>praf&#45;&gt;pakts473</title>
<path fill="none" stroke="black" d="M252.76,-434.69C252.48,-408.69 252.26,-358.02 254,-315 255.32,-282.47 258.28,-245.14 260.45,-220.44"/>
<polygon fill="black" stroke="black" points="263.95,-220.63 261.36,-210.35 256.98,-220 263.95,-220.63"/>
<text text-anchor="middle" x="265.5" y="-318.8" font-family="Times,serif" font-size="14.00">1.0</text>
</g>
<!-- pmek -->
<g id="node2" class="node">
<title>pmek</title>
<ellipse fill="none" stroke="black" cx="227" cy="-540" rx="36.29" ry="18"/>
<text text-anchor="middle" x="227" y="-536.3" font-family="Times,serif" font-size="14.00">pmek</text>
</g>
<!-- pmek&#45;&gt;praf -->
<g id="edge1" class="edge">
<title>pmek&#45;&gt;praf</title>
<path fill="none" stroke="black" d="M232.26,-521.8C235.88,-509.97 240.76,-494.03 244.87,-480.58"/>
<polygon fill="black" stroke="black" points="248.26,-481.47 247.84,-470.89 241.56,-479.42 248.26,-481.47"/>
<text text-anchor="middle" x="253.5" y="-492.8" font-family="Times,serif" font-size="14.00">1.0</text>
</g>
<!-- pmek&#45;&gt;plcg -->
<g id="edge7" class="edge">
<title>pmek&#45;&gt;plcg</title>
<path fill="none" stroke="black" d="M246.36,-524.67C253.83,-518.69 262.2,-511.41 269,-504 301.7,-468.36 332.19,-420.87 349.42,-392.19"/>
<polygon fill="black" stroke="black" points="352.64,-393.62 354.74,-383.23 346.62,-390.04 352.64,-393.62"/>
<text text-anchor="middle" x="332.5" y="-449.3" font-family="Times,serif" font-size="14.00">1.0</text>
</g>
<!-- PIP3 -->
<g id="node5" class="node">
<title>PIP3</title>
<ellipse fill="none" stroke="black" cx="206" cy="-279" rx="32.49" ry="18"/>
<text text-anchor="middle" x="206" y="-275.3" font-family="Times,serif" font-size="14.00">PIP3</text>
</g>
<!-- pmek&#45;&gt;PIP3 -->
<g id="edge11" class="edge">
<title>pmek&#45;&gt;PIP3</title>
<path fill="none" stroke="black" d="M223.04,-522.06C220.02,-508.37 216.03,-488.55 214,-471 207.27,-412.94 206.01,-344.37 205.89,-307.23"/>
<polygon fill="black" stroke="black" points="209.39,-307.18 205.88,-297.19 202.39,-307.19 209.39,-307.18"/>
<text text-anchor="middle" x="221.5" y="-405.8" font-family="Times,serif" font-size="14.00">1.0</text>
</g>
<!-- pmek&#45;&gt;p44/42 -->
<g id="edge16" class="edge">
<title>pmek&#45;&gt;p44/42</title>
<path fill="none" stroke="black" d="M191.47,-535.84C165.48,-531.96 130.61,-523.3 106,-504 61.44,-469.06 46,-384.02 46,-323.5 46,-323.5 46,-323.5 46,-104 46,-59.7 182.37,-35.17 259.08,-24.88"/>
<polygon fill="black" stroke="black" points="259.58,-28.34 269.04,-23.58 258.67,-21.4 259.58,-28.34"/>
<text text-anchor="middle" x="57.5" y="-275.3" font-family="Times,serif" font-size="14.00">1.0</text>
</g>
<!-- pmek&#45;&gt;pakts473 -->
<g id="edge22" class="edge">
<title>pmek&#45;&gt;pakts473</title>
<path fill="none" stroke="black" d="M191.02,-536.71C167.46,-533.22 137.98,-524.66 121,-504 76.76,-450.2 87.61,-415.18 106,-348 122.36,-288.23 130.07,-268.46 177,-228 187.12,-219.28 199.7,-212.53 212.09,-207.4"/>
<polygon fill="black" stroke="black" points="213.4,-210.65 221.48,-203.79 210.89,-204.11 213.4,-210.65"/>
<text text-anchor="middle" x="117.5" y="-362.3" font-family="Times,serif" font-size="14.00">1.0</text>
</g>
<!-- pjnk -->
<g id="node11" class="node">
<title>pjnk</title>
<ellipse fill="none" stroke="black" cx="425" cy="-105" rx="30.59" ry="18"/>
<text text-anchor="middle" x="425" y="-101.3" font-family="Times,serif" font-size="14.00">pjnk</text>
</g>
<!-- pmek&#45;&gt;pjnk -->
<g id="edge32" class="edge">
<title>pmek&#45;&gt;pjnk</title>
<path fill="none" stroke="black" d="M258.11,-530.6C313.11,-513.74 424.82,-469.81 458,-384 475.45,-338.86 553.53,-394.5 456,-141 454.23,-136.41 451.57,-132.04 448.53,-128.03"/>
<polygon fill="black" stroke="black" points="451.11,-125.66 441.93,-120.37 445.81,-130.23 451.11,-125.66"/>
<text text-anchor="middle" x="515.5" y="-318.8" font-family="Times,serif" font-size="14.00">1.0</text>
</g>
<!-- plcg&#45;&gt;PIP3 -->
<g id="edge12" class="edge">
<title>plcg&#45;&gt;PIP3</title>
<path fill="none" stroke="black" d="M342.74,-352.94C331.2,-346.31 316.72,-337.85 304,-330 293.61,-323.59 291.67,-320.93 281,-315 268.09,-307.82 253.45,-300.77 240.56,-294.89"/>
<polygon fill="black" stroke="black" points="241.65,-291.55 231.1,-290.65 238.79,-297.93 241.65,-291.55"/>
<text text-anchor="middle" x="315.5" y="-318.8" font-family="Times,serif" font-size="14.00">1.0</text>
</g>
<!-- plcg&#45;&gt;p44/42 -->
<g id="edge17" class="edge">
<title>plcg&#45;&gt;p44/42</title>
<path fill="none" stroke="black" d="M361.75,-347.69C359.05,-327.04 354.34,-291.48 350,-261 342.4,-207.61 340.79,-194.21 332,-141 326.62,-108.44 319.8,-71.13 315.18,-46.43"/>
<polygon fill="black" stroke="black" points="318.58,-45.53 313.29,-36.35 311.7,-46.82 318.58,-45.53"/>
<text text-anchor="middle" x="353.5" y="-188.3" font-family="Times,serif" font-size="14.00">1.0</text>
</g>
<!-- plcg&#45;&gt;pakts473 -->
<g id="edge23" class="edge">
<title>plcg&#45;&gt;pakts473</title>
<path fill="none" stroke="black" d="M354.5,-348.82C336.92,-318.88 299.19,-254.63 278.08,-218.68"/>
<polygon fill="black" stroke="black" points="280.93,-216.62 272.85,-209.77 274.89,-220.17 280.93,-216.62"/>
<text text-anchor="middle" x="334.5" y="-275.3" font-family="Times,serif" font-size="14.00">1.0</text>
</g>
<!-- plcg&#45;&gt;pjnk -->
<g id="edge33" class="edge">
<title>plcg&#45;&gt;pjnk</title>
<path fill="none" stroke="black" d="M372.45,-348.58C375.16,-342.82 377.98,-336.23 380,-330 391.82,-293.54 411.44,-184.48 420.35,-133.2"/>
<polygon fill="black" stroke="black" points="423.82,-133.64 422.08,-123.19 416.92,-132.44 423.82,-133.64"/>
<text text-anchor="middle" x="413.5" y="-231.8" font-family="Times,serif" font-size="14.00">1.0</text>
</g>
<!-- PIP2 -->
<g id="node4" class="node">
<title>PIP2</title>
<ellipse fill="none" stroke="black" cx="240" cy="-714" rx="32.49" ry="18"/>
<text text-anchor="middle" x="240" y="-710.3" font-family="Times,serif" font-size="14.00">PIP2</text>
</g>
<!-- PIP2&#45;&gt;plcg -->
<g id="edge8" class="edge">
<title>PIP2&#45;&gt;plcg</title>
<path fill="none" stroke="black" d="M271.5,-708.94C292.28,-704.65 318.61,-695.88 335,-678 408.29,-598.06 384.77,-453.22 370.97,-393.67"/>
<polygon fill="black" stroke="black" points="374.36,-392.79 368.61,-383.89 367.55,-394.44 374.36,-392.79"/>
<text text-anchor="middle" x="396.5" y="-536.3" font-family="Times,serif" font-size="14.00">1.0</text>
</g>
<!-- PIP2&#45;&gt;PIP3 -->
<g id="edge13" class="edge">
<title>PIP2&#45;&gt;PIP3</title>
<path fill="none" stroke="black" d="M213.75,-703.22C185.02,-690.62 143,-665.73 143,-628 143,-628 143,-628 143,-365 143,-339.04 162.21,-315.83 179.41,-300.25"/>
<polygon fill="black" stroke="black" points="181.79,-302.82 187.1,-293.65 177.23,-297.51 181.79,-302.82"/>
<text text-anchor="middle" x="154.5" y="-492.8" font-family="Times,serif" font-size="14.00">1.0</text>
</g>
<!-- PKC -->
<g id="node9" class="node">
<title>PKC</title>
<ellipse fill="none" stroke="black" cx="240" cy="-627" rx="30.59" ry="18"/>
<text text-anchor="middle" x="240" y="-623.3" font-family="Times,serif" font-size="14.00">PKC</text>
</g>
<!-- PIP2&#45;&gt;PKC -->
<g id="edge30" class="edge">
<title>PIP2&#45;&gt;PKC</title>
<path fill="none" stroke="black" d="M240,-695.8C240,-684.16 240,-668.55 240,-655.24"/>
<polygon fill="black" stroke="black" points="243.5,-655.18 240,-645.18 236.5,-655.18 243.5,-655.18"/>
<text text-anchor="middle" x="251.5" y="-666.8" font-family="Times,serif" font-size="14.00">1.0</text>
</g>
<!-- PIP3&#45;&gt;pakts473 -->
<g id="edge24" class="edge">
<title>PIP3&#45;&gt;pakts473</title>
<path fill="none" stroke="black" d="M212.13,-261.03C216.15,-250.98 221.98,-238.24 229,-228 231.73,-224.02 234.93,-220.07 238.26,-216.35"/>
<polygon fill="black" stroke="black" points="240.82,-218.73 245.15,-209.07 235.73,-213.92 240.82,-218.73"/>
<text text-anchor="middle" x="240.5" y="-231.8" font-family="Times,serif" font-size="14.00">1.0</text>
</g>
<!-- p44/42&#45;&gt;pakts473 -->
<g id="edge25" class="edge">
<title>p44/42&#45;&gt;pakts473</title>
<path fill="none" stroke="black" d="M292.09,-34.56C279.01,-47.19 262.34,-66.24 255,-87 246.12,-112.09 250.07,-142.64 255.05,-164.12"/>
<polygon fill="black" stroke="black" points="251.67,-165.04 257.52,-173.87 258.46,-163.32 251.67,-165.04"/>
<text text-anchor="middle" x="266.5" y="-101.3" font-family="Times,serif" font-size="14.00">1.0</text>
</g>
<!-- p44/42&#45;&gt;pjnk -->
<g id="edge34" class="edge">
<title>p44/42&#45;&gt;pjnk</title>
<path fill="none" stroke="black" d="M348.02,-26.74C365.84,-31.96 386.32,-40.46 401,-54 407.92,-60.38 413.05,-69.18 416.76,-77.62"/>
<polygon fill="black" stroke="black" points="413.59,-79.14 420.47,-87.19 420.12,-76.61 413.59,-79.14"/>
<text text-anchor="middle" x="423.5" y="-57.8" font-family="Times,serif" font-size="14.00">1.0</text>
</g>
<!-- pakts473&#45;&gt;PIP3 -->
<g id="edge14" class="edge">
<title>pakts473&#45;&gt;PIP3</title>
<path fill="none" stroke="black" d="M218.49,-202.33C204.76,-207.52 191.13,-215.57 183,-228 177.59,-236.28 180.31,-246.03 185.48,-254.72"/>
<polygon fill="black" stroke="black" points="182.64,-256.77 191.24,-262.96 188.37,-252.76 182.64,-256.77"/>
<text text-anchor="middle" x="194.5" y="-231.8" font-family="Times,serif" font-size="14.00">1.0</text>
</g>
<!-- pakts473&#45;&gt;p44/42 -->
<g id="edge18" class="edge">
<title>pakts473&#45;&gt;p44/42</title>
<path fill="none" stroke="black" d="M267.68,-173.88C275.88,-143.87 292.9,-81.58 302.67,-45.81"/>
<polygon fill="black" stroke="black" points="306.08,-46.62 305.34,-36.05 299.33,-44.78 306.08,-46.62"/>
<text text-anchor="middle" x="303.5" y="-101.3" font-family="Times,serif" font-size="14.00">1.0</text>
</g>
<!-- pakts473&#45;&gt;pjnk -->
<g id="edge35" class="edge">
<title>pakts473&#45;&gt;pjnk</title>
<path fill="none" stroke="black" d="M274.55,-173.94C282.72,-163.08 294.58,-149.49 308,-141 331.56,-126.08 361.8,-117.26 385.63,-112.2"/>
<polygon fill="black" stroke="black" points="386.62,-115.57 395.75,-110.19 385.26,-108.7 386.62,-115.57"/>
<text text-anchor="middle" x="319.5" y="-144.8" font-family="Times,serif" font-size="14.00">1.0</text>
</g>
<!-- PKA -->
<g id="node8" class="node">
<title>PKA</title>
<ellipse fill="none" stroke="black" cx="484" cy="-627" rx="29.8" ry="18"/>
<text text-anchor="middle" x="484" y="-623.3" font-family="Times,serif" font-size="14.00">PKA</text>
</g>
<!-- PKA&#45;&gt;praf -->
<g id="edge2" class="edge">
<title>PKA&#45;&gt;praf</title>
<path fill="none" stroke="black" d="M460.93,-615.16C437.91,-604.54 401.39,-588.21 369,-576 344.54,-566.78 333.34,-574.42 313,-558 299.64,-547.21 278.62,-507.23 265.34,-480.1"/>
<polygon fill="black" stroke="black" points="268.33,-478.24 260.82,-470.77 262.03,-481.29 268.33,-478.24"/>
<text text-anchor="middle" x="324.5" y="-536.3" font-family="Times,serif" font-size="14.00">1.0</text>
</g>
<!-- PKA&#45;&gt;pmek -->
<g id="edge3" class="edge">
<title>PKA&#45;&gt;pmek</title>
<path fill="none" stroke="black" d="M456.16,-620.22C428.03,-614.09 383.5,-603.56 346,-591 317.05,-581.31 285.21,-567.77 261.76,-557.23"/>
<polygon fill="black" stroke="black" points="263.13,-554 252.57,-553.06 260.23,-560.38 263.13,-554"/>
<text text-anchor="middle" x="357.5" y="-579.8" font-family="Times,serif" font-size="14.00">1.0</text>
</g>
<!-- PKA&#45;&gt;plcg -->
<g id="edge9" class="edge">
<title>PKA&#45;&gt;plcg</title>
<path fill="none" stroke="black" d="M483.65,-608.78C482.54,-582.02 478.02,-529.35 460,-489 442.32,-449.42 408.97,-411.43 386.61,-388.64"/>
<polygon fill="black" stroke="black" points="389.04,-386.11 379.49,-381.52 384.09,-391.06 389.04,-386.11"/>
<text text-anchor="middle" x="476.5" y="-492.8" font-family="Times,serif" font-size="14.00">1.0</text>
</g>
<!-- PKA&#45;&gt;p44/42 -->
<g id="edge19" class="edge">
<title>PKA&#45;&gt;p44/42</title>
<path fill="none" stroke="black" d="M503.06,-613.12C545.08,-583.02 642,-503.52 642,-410.5 642,-410.5 642,-410.5 642,-104 642,-47.01 456.09,-27.72 362.51,-21.61"/>
<polygon fill="black" stroke="black" points="362.58,-18.11 352.39,-20.98 362.15,-25.1 362.58,-18.11"/>
<text text-anchor="middle" x="653.5" y="-318.8" font-family="Times,serif" font-size="14.00">1.0</text>
</g>
<!-- PKA&#45;&gt;pakts473 -->
<g id="edge26" class="edge">
<title>PKA&#45;&gt;pakts473</title>
<path fill="none" stroke="black" d="M490.01,-609.1C506.06,-561.13 546.09,-420.79 506,-315 487.7,-266.72 473.92,-253.47 429,-228 391.24,-206.59 375.44,-219.13 333,-210 327.13,-208.74 320.99,-207.35 314.9,-205.93"/>
<polygon fill="black" stroke="black" points="315.28,-202.42 304.74,-203.52 313.67,-209.23 315.28,-202.42"/>
<text text-anchor="middle" x="534.5" y="-405.8" font-family="Times,serif" font-size="14.00">1.0</text>
</g>
<!-- PKA&#45;&gt;pjnk -->
<g id="edge36" class="edge">
<title>PKA&#45;&gt;pjnk</title>
<path fill="none" stroke="black" d="M497.56,-610.74C502.29,-604.87 507.32,-597.91 511,-591 533.04,-549.62 566,-497.77 566,-410.5 566,-410.5 566,-410.5 566,-191 566,-143.21 505.84,-121.58 464.12,-112.33"/>
<polygon fill="black" stroke="black" points="464.72,-108.88 454.22,-110.29 463.3,-115.74 464.72,-108.88"/>
<text text-anchor="middle" x="577.5" y="-362.3" font-family="Times,serif" font-size="14.00">1.0</text>
</g>
<!-- PKC&#45;&gt;pmek -->
<g id="edge4" class="edge">
<title>PKC&#45;&gt;pmek</title>
<path fill="none" stroke="black" d="M237.37,-608.8C235.59,-597.16 233.2,-581.55 231.17,-568.24"/>
<polygon fill="black" stroke="black" points="234.6,-567.53 229.63,-558.18 227.68,-568.59 234.6,-567.53"/>
<text text-anchor="middle" x="246.5" y="-579.8" font-family="Times,serif" font-size="14.00">1.0</text>
</g>
<!-- PKC&#45;&gt;pjnk -->
<g id="edge37" class="edge">
<title>PKC&#45;&gt;pjnk</title>
<path fill="none" stroke="black" d="M266.83,-618.19C277.17,-615.23 289.12,-611.88 300,-609 332.3,-600.44 345.65,-610.21 373,-591 387.43,-580.87 389.02,-574.58 395,-558 442.76,-425.59 420.66,-383.57 428,-243 430.36,-197.73 429.94,-186.29 428,-141 427.89,-138.44 427.74,-135.78 427.55,-133.12"/>
<polygon fill="black" stroke="black" points="431.04,-132.76 426.76,-123.07 424.06,-133.32 431.04,-132.76"/>
<text text-anchor="middle" x="437.5" y="-362.3" font-family="Times,serif" font-size="14.00">1.0</text>
</g>
<!-- P38 -->
<g id="node10" class="node">
<title>P38</title>
<ellipse fill="none" stroke="black" cx="410" cy="-714" rx="28.7" ry="18"/>
<text text-anchor="middle" x="410" y="-710.3" font-family="Times,serif" font-size="14.00">P38</text>
</g>
<!-- P38&#45;&gt;pmek -->
<g id="edge5" class="edge">
<title>P38&#45;&gt;pmek</title>
<path fill="none" stroke="black" d="M395.72,-698.39C385.81,-688.33 372.23,-674.72 360,-663 322.88,-627.45 278.73,-587.37 251.79,-563.16"/>
<polygon fill="black" stroke="black" points="253.79,-560.25 244.01,-556.18 249.12,-565.46 253.79,-560.25"/>
<text text-anchor="middle" x="351.5" y="-623.3" font-family="Times,serif" font-size="14.00">1.0</text>
</g>
<!-- P38&#45;&gt;plcg -->
<g id="edge10" class="edge">
<title>P38&#45;&gt;plcg</title>
<path fill="none" stroke="black" d="M437.07,-708.08C497.83,-695.54 637.77,-657.4 612,-576 579.64,-473.79 458.23,-408.01 398.13,-381"/>
<polygon fill="black" stroke="black" points="399.26,-377.67 388.69,-376.85 396.44,-384.08 399.26,-377.67"/>
<text text-anchor="middle" x="615.5" y="-536.3" font-family="Times,serif" font-size="14.00">1.0</text>
</g>
<!-- P38&#45;&gt;pakts473 -->
<g id="edge27" class="edge">
<title>P38&#45;&gt;pakts473</title>
<path fill="none" stroke="black" d="M381.35,-711.92C345.55,-709.56 283.25,-702.01 236,-678 94.66,-606.17 0,-569.04 0,-410.5 0,-410.5 0,-410.5 0,-278 0,-235.64 125.12,-211.27 202.76,-200.24"/>
<polygon fill="black" stroke="black" points="203.49,-203.67 212.91,-198.83 202.53,-196.73 203.49,-203.67"/>
<text text-anchor="middle" x="17.5" y="-449.3" font-family="Times,serif" font-size="14.00">1.0</text>
</g>
<!-- P38&#45;&gt;PKA -->
<g id="edge29" class="edge">
<title>P38&#45;&gt;PKA</title>
<path fill="none" stroke="black" d="M423.23,-697.8C434.52,-684.83 450.94,-665.97 463.87,-651.12"/>
<polygon fill="black" stroke="black" points="466.71,-653.19 470.64,-643.35 461.43,-648.6 466.71,-653.19"/>
<text text-anchor="middle" x="462.5" y="-666.8" font-family="Times,serif" font-size="14.00">1.0</text>
</g>
<!-- P38&#45;&gt;PKC -->
<g id="edge31" class="edge">
<title>P38&#45;&gt;PKC</title>
<path fill="none" stroke="black" d="M387.55,-702.44C373.07,-695.58 353.86,-686.39 337,-678 314.94,-667.03 290.27,-654.3 271.32,-644.44"/>
<polygon fill="black" stroke="black" points="272.74,-641.23 262.25,-639.7 269.5,-647.43 272.74,-641.23"/>
<text text-anchor="middle" x="348.5" y="-666.8" font-family="Times,serif" font-size="14.00">1.0</text>
</g>
<!-- P38&#45;&gt;pjnk -->
<g id="edge38" class="edge">
<title>P38&#45;&gt;pjnk</title>
<path fill="none" stroke="black" d="M438.77,-713.4C485.27,-712.27 575.8,-702.37 616,-645 697.35,-528.91 660.98,-471.66 666,-330 669.42,-233.53 637.01,-197.85 559,-141 531.66,-121.07 493.88,-112.48 465.41,-108.78"/>
<polygon fill="black" stroke="black" points="465.71,-105.29 455.38,-107.62 464.91,-112.24 465.71,-105.29"/>
<text text-anchor="middle" x="678.5" y="-405.8" font-family="Times,serif" font-size="14.00">1.0</text>
</g>
<!-- pjnk&#45;&gt;p44/42 -->
<g id="edge20" class="edge">
<title>pjnk&#45;&gt;p44/42</title>
<path fill="none" stroke="black" d="M406.78,-90.53C388.44,-76.98 359.89,-55.87 338.54,-40.1"/>
<polygon fill="black" stroke="black" points="340.59,-37.26 330.46,-34.13 336.43,-42.88 340.59,-37.26"/>
<text text-anchor="middle" x="385.5" y="-57.8" font-family="Times,serif" font-size="14.00">1.0</text>
</g>
<!-- pjnk&#45;&gt;pakts473 -->
<g id="edge28" class="edge">
<title>pjnk&#45;&gt;pakts473</title>
<path fill="none" stroke="black" d="M403.72,-118.25C385.6,-128.59 358.78,-143.62 335,-156 324.42,-161.51 312.83,-167.26 302.11,-172.47"/>
<polygon fill="black" stroke="black" points="300.44,-169.39 292.96,-176.89 303.49,-175.69 300.44,-169.39"/>
<text text-anchor="middle" x="373.5" y="-144.8" font-family="Times,serif" font-size="14.00">1.0</text>
</g>
</g>
</svg>
