<?xml version="1.0" encoding="UTF-8" standalone="no"?>
<!DOCTYPE svg PUBLIC "-//W3C//DTD SVG 1.1//EN"
 "http://www.w3.org/Graphics/SVG/1.1/DTD/svg11.dtd">
<!-- Generated by graphviz version 2.43.0 (0)
 -->
<!-- Title: %3 Pages: 1 -->
<svg width="476pt" height="566pt"
 viewBox="0.00 0.00 476.46 566.00" xmlns="http://www.w3.org/2000/svg" xmlns:xlink="http://www.w3.org/1999/xlink">
<g id="graph0" class="graph" transform="scale(1 1) rotate(0) translate(4 562)">
<title>%3</title>
<polygon fill="white" stroke="transparent" points="-4,4 -4,-562 472.46,-562 472.46,4 -4,4"/>
<!-- praf -->
<g id="node1" class="node">
<title>praf</title>
<ellipse fill="none" stroke="black" cx="145.91" cy="-192" rx="29.8" ry="18"/>
<text text-anchor="middle" x="145.91" y="-188.3" font-family="Times,serif" font-size="14.00">praf</text>
</g>
<!-- plcg -->
<g id="node3" class="node">
<title>plcg</title>
<ellipse fill="none" stroke="black" cx="214.91" cy="-105" rx="30.59" ry="18"/>
<text text-anchor="middle" x="214.91" y="-101.3" font-family="Times,serif" font-size="14.00">plcg</text>
</g>
<!-- praf&#45;&gt;plcg -->
<g id="edge7" class="edge">
<title>praf&#45;&gt;plcg</title>
<path fill="none" stroke="black" d="M155.06,-174.55C161.01,-164.45 169.24,-151.48 177.91,-141 181.81,-136.29 186.31,-131.56 190.79,-127.18"/>
<polygon fill="black" stroke="black" points="193.34,-129.59 198.22,-120.19 188.54,-124.5 193.34,-129.59"/>
<text text-anchor="middle" x="189.41" y="-144.8" font-family="Times,serif" font-size="14.00">1.0</text>
</g>
<!-- pmek -->
<g id="node2" class="node">
<title>pmek</title>
<ellipse fill="none" stroke="black" cx="145.91" cy="-279" rx="36.29" ry="18"/>
<text text-anchor="middle" x="145.91" y="-275.3" font-family="Times,serif" font-size="14.00">pmek</text>
</g>
<!-- pmek&#45;&gt;praf -->
<g id="edge1" class="edge">
<title>pmek&#45;&gt;praf</title>
<path fill="none" stroke="black" d="M145.91,-260.8C145.91,-249.16 145.91,-233.55 145.91,-220.24"/>
<polygon fill="black" stroke="black" points="149.41,-220.18 145.91,-210.18 142.41,-220.18 149.41,-220.18"/>
<text text-anchor="middle" x="157.41" y="-231.8" font-family="Times,serif" font-size="14.00">1.0</text>
</g>
<!-- pmek&#45;&gt;plcg -->
<g id="edge8" class="edge">
<title>pmek&#45;&gt;plcg</title>
<path fill="none" stroke="black" d="M159.93,-261.99C164.48,-256.26 169.29,-249.59 172.91,-243 192.37,-207.63 204.04,-162.06 209.97,-133.42"/>
<polygon fill="black" stroke="black" points="213.46,-133.83 211.97,-123.34 206.59,-132.47 213.46,-133.83"/>
<text text-anchor="middle" x="211.41" y="-188.3" font-family="Times,serif" font-size="14.00">1.0</text>
</g>
<!-- PIP2 -->
<g id="node4" class="node">
<title>PIP2</title>
<ellipse fill="none" stroke="black" cx="214.91" cy="-18" rx="32.49" ry="18"/>
<text text-anchor="middle" x="214.91" y="-14.3" font-family="Times,serif" font-size="14.00">PIP2</text>
</g>
<!-- plcg&#45;&gt;PIP2 -->
<g id="edge9" class="edge">
<title>plcg&#45;&gt;PIP2</title>
<path fill="none" stroke="black" d="M214.91,-86.8C214.91,-75.16 214.91,-59.55 214.91,-46.24"/>
<polygon fill="black" stroke="black" points="218.41,-46.18 214.91,-36.18 211.41,-46.18 218.41,-46.18"/>
<text text-anchor="middle" x="226.41" y="-57.8" font-family="Times,serif" font-size="14.00">1.0</text>
</g>
<!-- PIP2&#45;&gt;praf -->
<g id="edge2" class="edge">
<title>PIP2&#45;&gt;praf</title>
<path fill="none" stroke="black" d="M196.32,-32.9C181.37,-45.26 161.37,-64.79 151.91,-87 141.49,-111.49 141.07,-142.18 142.59,-163.86"/>
<polygon fill="black" stroke="black" points="139.12,-164.35 143.49,-174 146.1,-163.73 139.12,-164.35"/>
<text text-anchor="middle" x="163.41" y="-101.3" font-family="Times,serif" font-size="14.00">1.0</text>
</g>
<!-- PIP3 -->
<g id="node5" class="node">
<title>PIP3</title>
<ellipse fill="none" stroke="black" cx="253.91" cy="-366" rx="32.49" ry="18"/>
<text text-anchor="middle" x="253.91" y="-362.3" font-family="Times,serif" font-size="14.00">PIP3</text>
</g>
<!-- PIP3&#45;&gt;pmek -->
<g id="edge3" class="edge">
<title>PIP3&#45;&gt;pmek</title>
<path fill="none" stroke="black" d="M230.29,-353.55C218.53,-347.34 204.41,-339.08 192.91,-330 183.18,-322.31 173.59,-312.6 165.64,-303.79"/>
<polygon fill="black" stroke="black" points="168.06,-301.25 158.83,-296.04 162.8,-305.86 168.06,-301.25"/>
<text text-anchor="middle" x="204.41" y="-318.8" font-family="Times,serif" font-size="14.00">1.0</text>
</g>
<!-- pakts473 -->
<g id="node7" class="node">
<title>pakts473</title>
<ellipse fill="none" stroke="black" cx="302.91" cy="-279" rx="53.89" ry="18"/>
<text text-anchor="middle" x="302.91" y="-275.3" font-family="Times,serif" font-size="14.00">pakts473</text>
</g>
<!-- PIP3&#45;&gt;pakts473 -->
<g id="edge11" class="edge">
<title>PIP3&#45;&gt;pakts473</title>
<path fill="none" stroke="black" d="M263.36,-348.61C270.39,-336.42 280.11,-319.56 288.16,-305.6"/>
<polygon fill="black" stroke="black" points="291.2,-307.33 293.16,-296.92 285.13,-303.84 291.2,-307.33"/>
<text text-anchor="middle" x="293.41" y="-318.8" font-family="Times,serif" font-size="14.00">1.0</text>
</g>
<!-- p44/42 -->
<g id="node6" class="node">
<title>p44/42</title>
<ellipse fill="none" stroke="black" cx="160.91" cy="-366" rx="42.79" ry="18"/>
<text text-anchor="middle" x="160.91" y="-362.3" font-family="Times,serif" font-size="14.00">p44/42</text>
</g>
<!-- p44/42&#45;&gt;pmek -->
<g id="edge4" class="edge">
<title>p44/42&#45;&gt;pmek</title>
<path fill="none" stroke="black" d="M152.81,-348.29C150.45,-342.62 148.16,-336.16 146.91,-330 145.45,-322.8 144.85,-314.89 144.69,-307.53"/>
<polygon fill="black" stroke="black" points="148.19,-307.31 144.74,-297.29 141.2,-307.27 148.19,-307.31"/>
<text text-anchor="middle" x="158.41" y="-318.8" font-family="Times,serif" font-size="14.00">1.0</text>
</g>
<!-- p44/42&#45;&gt;pakts473 -->
<g id="edge12" class="edge">
<title>p44/42&#45;&gt;pakts473</title>
<path fill="none" stroke="black" d="M184.68,-350.77C207.71,-336.99 242.86,-315.95 268.85,-300.39"/>
<polygon fill="black" stroke="black" points="270.85,-303.27 277.63,-295.13 267.25,-297.27 270.85,-303.27"/>
<text text-anchor="middle" x="252.41" y="-318.8" font-family="Times,serif" font-size="14.00">1.0</text>
</g>
<!-- PKA -->
<g id="node8" class="node">
<title>PKA</title>
<ellipse fill="none" stroke="black" cx="69.91" cy="-366" rx="29.8" ry="18"/>
<text text-anchor="middle" x="69.91" y="-362.3" font-family="Times,serif" font-size="14.00">PKA</text>
</g>
<!-- PKA&#45;&gt;pmek -->
<g id="edge5" class="edge">
<title>PKA&#45;&gt;pmek</title>
<path fill="none" stroke="black" d="M58.52,-349.04C52.61,-338.64 47.94,-325.16 54.91,-315 65.33,-299.84 83.3,-291.24 100.53,-286.37"/>
<polygon fill="black" stroke="black" points="101.66,-289.7 110.53,-283.91 99.99,-282.9 101.66,-289.7"/>
<text text-anchor="middle" x="66.41" y="-318.8" font-family="Times,serif" font-size="14.00">1.0</text>
</g>
<!-- PKA&#45;&gt;pakts473 -->
<g id="edge13" class="edge">
<title>PKA&#45;&gt;pakts473</title>
<path fill="none" stroke="black" d="M81.36,-348.93C90.29,-337.64 103.7,-323.15 118.91,-315 130.04,-309.04 195.38,-297.43 245.07,-289.22"/>
<polygon fill="black" stroke="black" points="245.79,-292.65 255.09,-287.57 244.66,-285.74 245.79,-292.65"/>
<text text-anchor="middle" x="130.41" y="-318.8" font-family="Times,serif" font-size="14.00">1.0</text>
</g>
<!-- PKC -->
<g id="node9" class="node">
<title>PKC</title>
<ellipse fill="none" stroke="black" cx="245.91" cy="-453" rx="30.59" ry="18"/>
<text text-anchor="middle" x="245.91" y="-449.3" font-family="Times,serif" font-size="14.00">PKC</text>
</g>
<!-- PKC&#45;&gt;pmek -->
<g id="edge6" class="edge">
<title>PKC&#45;&gt;pmek</title>
<path fill="none" stroke="black" d="M216.56,-448.02C158.67,-439.51 33.21,-417.54 7.91,-384 -23.99,-341.7 53.81,-308.26 105.13,-291.6"/>
<polygon fill="black" stroke="black" points="106.2,-294.93 114.69,-288.58 104.1,-288.25 106.2,-294.93"/>
<text text-anchor="middle" x="19.41" y="-362.3" font-family="Times,serif" font-size="14.00">1.0</text>
</g>
<!-- PKC&#45;&gt;pakts473 -->
<g id="edge14" class="edge">
<title>PKC&#45;&gt;pakts473</title>
<path fill="none" stroke="black" d="M259.7,-436.62C270.75,-423.51 285.87,-403.7 294.91,-384 307.93,-355.64 310.13,-346.13 307.91,-315 307.73,-312.43 307.47,-309.76 307.17,-307.09"/>
<polygon fill="black" stroke="black" points="310.62,-306.49 305.84,-297.04 303.68,-307.41 310.62,-306.49"/>
<text text-anchor="middle" x="319.41" y="-362.3" font-family="Times,serif" font-size="14.00">1.0</text>
</g>
<!-- PKC&#45;&gt;PKA -->
<g id="edge17" class="edge">
<title>PKC&#45;&gt;PKA</title>
<path fill="none" stroke="black" d="M222.91,-440.89C191.99,-425.96 136.89,-399.35 101.94,-382.47"/>
<polygon fill="black" stroke="black" points="103.18,-379.18 92.65,-377.98 100.13,-385.48 103.18,-379.18"/>
<text text-anchor="middle" x="180.41" y="-405.8" font-family="Times,serif" font-size="14.00">1.0</text>
</g>
<!-- P38 -->
<g id="node10" class="node">
<title>P38</title>
<ellipse fill="none" stroke="black" cx="309.91" cy="-540" rx="28.7" ry="18"/>
<text text-anchor="middle" x="309.91" y="-536.3" font-family="Times,serif" font-size="14.00">P38</text>
</g>
<!-- P38&#45;&gt;pakts473 -->
<g id="edge15" class="edge">
<title>P38&#45;&gt;pakts473</title>
<path fill="none" stroke="black" d="M315.5,-522.32C325.91,-489.03 346.2,-412.06 334.91,-348 332.3,-333.15 325.53,-317.86 318.88,-305.54"/>
<polygon fill="black" stroke="black" points="321.88,-303.73 313.89,-296.76 315.79,-307.18 321.88,-303.73"/>
<text text-anchor="middle" x="350.41" y="-405.8" font-family="Times,serif" font-size="14.00">1.0</text>
</g>
<!-- P38&#45;&gt;PKC -->
<g id="edge18" class="edge">
<title>P38&#45;&gt;PKC</title>
<path fill="none" stroke="black" d="M298.18,-523.41C288.58,-510.67 274.86,-492.45 263.89,-477.87"/>
<polygon fill="black" stroke="black" points="266.61,-475.66 257.8,-469.78 261.01,-479.87 266.61,-475.66"/>
<text text-anchor="middle" x="293.41" y="-492.8" font-family="Times,serif" font-size="14.00">1.0</text>
</g>
<!-- pjnk -->
<g id="node11" class="node">
<title>pjnk</title>
<ellipse fill="none" stroke="black" cx="437.91" cy="-366" rx="30.59" ry="18"/>
<text text-anchor="middle" x="437.91" y="-362.3" font-family="Times,serif" font-size="14.00">pjnk</text>
</g>
<!-- pjnk&#45;&gt;PIP2 -->
<g id="edge10" class="edge">
<title>pjnk&#45;&gt;PIP2</title>
<path fill="none" stroke="black" d="M439.85,-347.77C441.6,-330.61 443.91,-303.52 443.91,-280 443.91,-280 443.91,-280 443.91,-104 443.91,-64.35 321.73,-37.27 255.86,-25.56"/>
<polygon fill="black" stroke="black" points="256.25,-22.07 245.8,-23.81 255.05,-28.97 256.25,-22.07"/>
<text text-anchor="middle" x="455.41" y="-188.3" font-family="Times,serif" font-size="14.00">1.0</text>
</g>
<!-- pjnk&#45;&gt;pakts473 -->
<g id="edge16" class="edge">
<title>pjnk&#45;&gt;pakts473</title>
<path fill="none" stroke="black" d="M423.93,-349.52C413.65,-338.8 398.9,-324.76 383.91,-315 372.98,-307.87 360.34,-301.61 348.36,-296.43"/>
<polygon fill="black" stroke="black" points="349.51,-293.12 338.93,-292.51 346.82,-299.58 349.51,-293.12"/>
<text text-anchor="middle" x="415.41" y="-318.8" font-family="Times,serif" font-size="14.00">1.0</text>
</g>
</g>
</svg>
