<?xml version="1.0" encoding="UTF-8" standalone="no"?>
<!DOCTYPE svg PUBLIC "-//W3C//DTD SVG 1.1//EN"
 "http://www.w3.org/Graphics/SVG/1.1/DTD/svg11.dtd">
<!-- Generated by graphviz version 2.43.0 (0)
 -->
<!-- Title: %3 Pages: 1 -->
<svg width="868pt" height="218pt"
 viewBox="0.00 0.00 868.40 218.00" xmlns="http://www.w3.org/2000/svg" xmlns:xlink="http://www.w3.org/1999/xlink">
<g id="graph0" class="graph" transform="scale(1 1) rotate(0) translate(4 214)">
<title>%3</title>
<polygon fill="white" stroke="transparent" points="-4,4 -4,-214 864.4,-214 864.4,4 -4,4"/>
<!-- praf -->
<g id="node1" class="node">
<title>praf</title>
<ellipse fill="none" stroke="black" cx="36.4" cy="-192" rx="29.8" ry="18"/>
<text text-anchor="middle" x="36.4" y="-188.3" font-family="Times,serif" font-size="14.00">praf</text>
</g>
<!-- pmek -->
<g id="node2" class="node">
<title>pmek</title>
<ellipse fill="none" stroke="black" cx="36.4" cy="-105" rx="36.29" ry="18"/>
<text text-anchor="middle" x="36.4" y="-101.3" font-family="Times,serif" font-size="14.00">pmek</text>
</g>
<!-- praf&#45;&gt;pmek -->
<g id="edge1" class="edge">
<title>praf&#45;&gt;pmek</title>
<path fill="none" stroke="black" d="M36.4,-173.8C36.4,-162.16 36.4,-146.55 36.4,-133.24"/>
<polygon fill="black" stroke="black" points="39.9,-133.18 36.4,-123.18 32.9,-133.18 39.9,-133.18"/>
<text text-anchor="middle" x="110.9" y="-144.8" font-family="Times,serif" font-size="14.00">0.864379315846682</text>
</g>
<!-- plcg -->
<g id="node3" class="node">
<title>plcg</title>
<ellipse fill="none" stroke="black" cx="208.4" cy="-192" rx="30.59" ry="18"/>
<text text-anchor="middle" x="208.4" y="-188.3" font-family="Times,serif" font-size="14.00">plcg</text>
</g>
<!-- PIP2 -->
<g id="node4" class="node">
<title>PIP2</title>
<ellipse fill="none" stroke="black" cx="289.4" cy="-105" rx="32.49" ry="18"/>
<text text-anchor="middle" x="289.4" y="-101.3" font-family="Times,serif" font-size="14.00">PIP2</text>
</g>
<!-- plcg&#45;&gt;PIP2 -->
<g id="edge2" class="edge">
<title>plcg&#45;&gt;PIP2</title>
<path fill="none" stroke="black" d="M204.39,-173.88C202.96,-163.52 203.03,-150.53 209.4,-141 218.45,-127.46 234,-119.12 249,-114"/>
<polygon fill="black" stroke="black" points="250.13,-117.31 258.7,-111.08 248.11,-110.61 250.13,-117.31"/>
<text text-anchor="middle" x="279.4" y="-144.8" font-family="Times,serif" font-size="14.00">1.75897812138573</text>
</g>
<!-- PIP3 -->
<g id="node5" class="node">
<title>PIP3</title>
<ellipse fill="none" stroke="black" cx="371.4" cy="-192" rx="32.49" ry="18"/>
<text text-anchor="middle" x="371.4" y="-188.3" font-family="Times,serif" font-size="14.00">PIP3</text>
</g>
<!-- PIP3&#45;&gt;PIP2 -->
<g id="edge3" class="edge">
<title>PIP3&#45;&gt;PIP2</title>
<path fill="none" stroke="black" d="M366.78,-173.75C363.32,-163.34 357.73,-150.34 349.4,-141 342.35,-133.1 333.09,-126.51 323.95,-121.25"/>
<polygon fill="black" stroke="black" points="325.41,-118.07 314.95,-116.44 322.12,-124.24 325.41,-118.07"/>
<text text-anchor="middle" x="433.9" y="-144.8" font-family="Times,serif" font-size="14.00">0.833424626995026</text>
</g>
<!-- p44/42 -->
<g id="node6" class="node">
<title>p44/42</title>
<ellipse fill="none" stroke="black" cx="543.4" cy="-192" rx="42.79" ry="18"/>
<text text-anchor="middle" x="543.4" y="-188.3" font-family="Times,serif" font-size="14.00">p44/42</text>
</g>
<!-- pakts473 -->
<g id="node7" class="node">
<title>pakts473</title>
<ellipse fill="none" stroke="black" cx="543.4" cy="-105" rx="53.89" ry="18"/>
<text text-anchor="middle" x="543.4" y="-101.3" font-family="Times,serif" font-size="14.00">pakts473</text>
</g>
<!-- p44/42&#45;&gt;pakts473 -->
<g id="edge4" class="edge">
<title>p44/42&#45;&gt;pakts473</title>
<path fill="none" stroke="black" d="M543.4,-173.8C543.4,-162.16 543.4,-146.55 543.4,-133.24"/>
<polygon fill="black" stroke="black" points="546.9,-133.18 543.4,-123.18 539.9,-133.18 546.9,-133.18"/>
<text text-anchor="middle" x="613.4" y="-144.8" font-family="Times,serif" font-size="14.00">2.25734133052991</text>
</g>
<!-- PKA -->
<g id="node8" class="node">
<title>PKA</title>
<ellipse fill="none" stroke="black" cx="543.4" cy="-18" rx="29.8" ry="18"/>
<text text-anchor="middle" x="543.4" y="-14.3" font-family="Times,serif" font-size="14.00">PKA</text>
</g>
<!-- pakts473&#45;&gt;PKA -->
<g id="edge5" class="edge">
<title>pakts473&#45;&gt;PKA</title>
<path fill="none" stroke="black" d="M543.4,-86.8C543.4,-75.16 543.4,-59.55 543.4,-46.24"/>
<polygon fill="black" stroke="black" points="546.9,-46.18 543.4,-36.18 539.9,-46.18 546.9,-46.18"/>
<text text-anchor="middle" x="613.4" y="-57.8" font-family="Times,serif" font-size="14.00">12.5870728053048</text>
</g>
<!-- PKC -->
<g id="node9" class="node">
<title>PKC</title>
<ellipse fill="none" stroke="black" cx="634.4" cy="-192" rx="30.59" ry="18"/>
<text text-anchor="middle" x="634.4" y="-188.3" font-family="Times,serif" font-size="14.00">PKC</text>
</g>
<!-- P38 -->
<g id="node10" class="node">
<title>P38</title>
<ellipse fill="none" stroke="black" cx="711.4" cy="-192" rx="28.7" ry="18"/>
<text text-anchor="middle" x="711.4" y="-188.3" font-family="Times,serif" font-size="14.00">P38</text>
</g>
<!-- pjnk -->
<g id="node11" class="node">
<title>pjnk</title>
<ellipse fill="none" stroke="black" cx="711.4" cy="-105" rx="30.59" ry="18"/>
<text text-anchor="middle" x="711.4" y="-101.3" font-family="Times,serif" font-size="14.00">pjnk</text>
</g>
<!-- P38&#45;&gt;pjnk -->
<g id="edge6" class="edge">
<title>P38&#45;&gt;pjnk</title>
<path fill="none" stroke="black" d="M711.4,-173.8C711.4,-162.16 711.4,-146.55 711.4,-133.24"/>
<polygon fill="black" stroke="black" points="714.9,-133.18 711.4,-123.18 707.9,-133.18 714.9,-133.18"/>
<text text-anchor="middle" x="785.9" y="-144.8" font-family="Times,serif" font-size="14.00">0.699393944664835</text>
</g>
</g>
</svg>
