<?xml version="1.0" encoding="UTF-8" standalone="no"?>
<!DOCTYPE svg PUBLIC "-//W3C//DTD SVG 1.1//EN"
 "http://www.w3.org/Graphics/SVG/1.1/DTD/svg11.dtd">
<!-- Generated by graphviz version 2.40.1 (20161225.0304)
 -->
<!-- Title: %3 Pages: 1 -->
<svg width="432pt" height="566pt"
 viewBox="0.00 0.00 432.43 566.00" xmlns="http://www.w3.org/2000/svg" xmlns:xlink="http://www.w3.org/1999/xlink">
<g id="graph0" class="graph" transform="scale(1 1) rotate(0) translate(4 562)">
<title>%3</title>
<polygon fill="#ffffff" stroke="transparent" points="-4,4 -4,-562 428.4272,-562 428.4272,4 -4,4"/>
<!-- praf -->
<g id="node1" class="node">
<title>praf</title>
<ellipse fill="none" stroke="#000000" cx="134.4272" cy="-192" rx="27" ry="18"/>
<text text-anchor="middle" x="134.4272" y="-188.3" font-family="Times,serif" font-size="14.00" fill="#000000">praf</text>
</g>
<!-- plcg -->
<g id="node3" class="node">
<title>plcg</title>
<ellipse fill="none" stroke="#000000" cx="197.4272" cy="-105" rx="27" ry="18"/>
<text text-anchor="middle" x="197.4272" y="-101.3" font-family="Times,serif" font-size="14.00" fill="#000000">plcg</text>
</g>
<!-- praf&#45;&gt;plcg -->
<g id="edge7" class="edge">
<title>praf&#45;&gt;plcg</title>
<path fill="none" stroke="#000000" d="M144.6342,-175.1219C150.9173,-165.0204 159.3001,-152.0413 167.4272,-141 170.4053,-136.9541 173.6921,-132.7654 176.9656,-128.7383"/>
<polygon fill="#000000" stroke="#000000" points="179.8652,-130.7251 183.5626,-120.7964 174.4805,-126.2523 179.8652,-130.7251"/>
<text text-anchor="middle" x="176.4272" y="-144.8" font-family="Times,serif" font-size="14.00" fill="#000000">1.0</text>
</g>
<!-- pmek -->
<g id="node2" class="node">
<title>pmek</title>
<ellipse fill="none" stroke="#000000" cx="134.4272" cy="-279" rx="30.5947" ry="18"/>
<text text-anchor="middle" x="134.4272" y="-275.3" font-family="Times,serif" font-size="14.00" fill="#000000">pmek</text>
</g>
<!-- pmek&#45;&gt;praf -->
<g id="edge1" class="edge">
<title>pmek&#45;&gt;praf</title>
<path fill="none" stroke="#000000" d="M134.4272,-260.9735C134.4272,-249.1918 134.4272,-233.5607 134.4272,-220.1581"/>
<polygon fill="#000000" stroke="#000000" points="137.9273,-220.0033 134.4272,-210.0034 130.9273,-220.0034 137.9273,-220.0033"/>
<text text-anchor="middle" x="143.4272" y="-231.8" font-family="Times,serif" font-size="14.00" fill="#000000">1.0</text>
</g>
<!-- pmek&#45;&gt;plcg -->
<g id="edge8" class="edge">
<title>pmek&#45;&gt;plcg</title>
<path fill="none" stroke="#000000" d="M145.4729,-262.083C149.1518,-256.1557 153.1451,-249.3839 156.4272,-243 174.7687,-207.3254 186.2273,-162.1413 192.2242,-133.3933"/>
<polygon fill="#000000" stroke="#000000" points="195.7268,-133.7268 194.2581,-123.2342 188.863,-132.3525 195.7268,-133.7268"/>
<text text-anchor="middle" x="191.4272" y="-188.3" font-family="Times,serif" font-size="14.00" fill="#000000">1.0</text>
</g>
<!-- PIP2 -->
<g id="node4" class="node">
<title>PIP2</title>
<ellipse fill="none" stroke="#000000" cx="197.4272" cy="-18" rx="27.8951" ry="18"/>
<text text-anchor="middle" x="197.4272" y="-14.3" font-family="Times,serif" font-size="14.00" fill="#000000">PIP2</text>
</g>
<!-- plcg&#45;&gt;PIP2 -->
<g id="edge9" class="edge">
<title>plcg&#45;&gt;PIP2</title>
<path fill="none" stroke="#000000" d="M197.4272,-86.9735C197.4272,-75.1918 197.4272,-59.5607 197.4272,-46.1581"/>
<polygon fill="#000000" stroke="#000000" points="200.9273,-46.0033 197.4272,-36.0034 193.9273,-46.0034 200.9273,-46.0033"/>
<text text-anchor="middle" x="206.4272" y="-57.8" font-family="Times,serif" font-size="14.00" fill="#000000">1.0</text>
</g>
<!-- PIP2&#45;&gt;praf -->
<g id="edge2" class="edge">
<title>PIP2&#45;&gt;praf</title>
<path fill="none" stroke="#000000" d="M181.3605,-33.0318C168.656,-45.9939 151.7241,-65.908 143.4272,-87 133.7443,-111.6153 132.1277,-141.9161 132.5549,-163.6301"/>
<polygon fill="#000000" stroke="#000000" points="129.0643,-163.9622 132.9173,-173.8316 136.0599,-163.7136 129.0643,-163.9622"/>
<text text-anchor="middle" x="152.4272" y="-101.3" font-family="Times,serif" font-size="14.00" fill="#000000">1.0</text>
</g>
<!-- PIP3 -->
<g id="node5" class="node">
<title>PIP3</title>
<ellipse fill="none" stroke="#000000" cx="226.4272" cy="-366" rx="27.8951" ry="18"/>
<text text-anchor="middle" x="226.4272" y="-362.3" font-family="Times,serif" font-size="14.00" fill="#000000">PIP3</text>
</g>
<!-- PIP3&#45;&gt;pmek -->
<g id="edge3" class="edge">
<title>PIP3&#45;&gt;pmek</title>
<path fill="none" stroke="#000000" d="M206.0451,-353.0885C196.5959,-346.6715 185.481,-338.4844 176.4272,-330 168.0551,-322.1543 159.813,-312.6532 152.8777,-303.9882"/>
<polygon fill="#000000" stroke="#000000" points="155.5745,-301.7547 146.6671,-296.018 150.0529,-306.0573 155.5745,-301.7547"/>
<text text-anchor="middle" x="185.4272" y="-318.8" font-family="Times,serif" font-size="14.00" fill="#000000">1.0</text>
</g>
<!-- pakts473 -->
<g id="node7" class="node">
<title>pakts473</title>
<ellipse fill="none" stroke="#000000" cx="273.4272" cy="-279" rx="42.4939" ry="18"/>
<text text-anchor="middle" x="273.4272" y="-275.3" font-family="Times,serif" font-size="14.00" fill="#000000">pakts473</text>
</g>
<!-- PIP3&#45;&gt;pakts473 -->
<g id="edge11" class="edge">
<title>PIP3&#45;&gt;pakts473</title>
<path fill="none" stroke="#000000" d="M235.7129,-348.8116C242.3208,-336.5801 251.3303,-319.9027 258.8865,-305.9158"/>
<polygon fill="#000000" stroke="#000000" points="262.1644,-307.2118 263.8381,-296.75 256.0057,-303.8846 262.1644,-307.2118"/>
<text text-anchor="middle" x="262.4272" y="-318.8" font-family="Times,serif" font-size="14.00" fill="#000000">1.0</text>
</g>
<!-- p44/42 -->
<g id="node6" class="node">
<title>p44/42</title>
<ellipse fill="none" stroke="#000000" cx="145.4272" cy="-366" rx="35.194" ry="18"/>
<text text-anchor="middle" x="145.4272" y="-362.3" font-family="Times,serif" font-size="14.00" fill="#000000">p44/42</text>
</g>
<!-- p44/42&#45;&gt;pmek -->
<g id="edge4" class="edge">
<title>p44/42&#45;&gt;pmek</title>
<path fill="none" stroke="#000000" d="M139.5423,-348.2448C137.8927,-342.4895 136.3099,-336.0332 135.4272,-330 134.3467,-322.6148 133.8693,-314.5645 133.7149,-307.0876"/>
<polygon fill="#000000" stroke="#000000" points="137.2148,-307.0171 133.6827,-297.0284 130.2149,-307.0396 137.2148,-307.0171"/>
<text text-anchor="middle" x="144.4272" y="-318.8" font-family="Times,serif" font-size="14.00" fill="#000000">1.0</text>
</g>
<!-- p44/42&#45;&gt;pakts473 -->
<g id="edge12" class="edge">
<title>p44/42&#45;&gt;pakts473</title>
<path fill="none" stroke="#000000" d="M166.8515,-351.4382C187.4244,-337.4551 218.7391,-316.1709 242.1083,-300.2871"/>
<polygon fill="#000000" stroke="#000000" points="244.3338,-303.0064 250.6368,-294.4904 240.3988,-297.2171 244.3338,-303.0064"/>
<text text-anchor="middle" x="226.4272" y="-318.8" font-family="Times,serif" font-size="14.00" fill="#000000">1.0</text>
</g>
<!-- PKA -->
<g id="node8" class="node">
<title>PKA</title>
<ellipse fill="none" stroke="#000000" cx="63.4272" cy="-366" rx="28.6953" ry="18"/>
<text text-anchor="middle" x="63.4272" y="-362.3" font-family="Times,serif" font-size="14.00" fill="#000000">PKA</text>
</g>
<!-- PKA&#45;&gt;pmek -->
<g id="edge5" class="edge">
<title>PKA&#45;&gt;pmek</title>
<path fill="none" stroke="#000000" d="M54.0935,-348.724C49.7988,-338.2337 46.9373,-324.9865 53.4272,-315 62.802,-300.5744 79.4365,-291.8826 95.202,-286.6679"/>
<polygon fill="#000000" stroke="#000000" points="96.2185,-290.0173 104.8333,-283.8501 94.2528,-283.2989 96.2185,-290.0173"/>
<text text-anchor="middle" x="62.4272" y="-318.8" font-family="Times,serif" font-size="14.00" fill="#000000">1.0</text>
</g>
<!-- PKA&#45;&gt;pakts473 -->
<g id="edge13" class="edge">
<title>PKA&#45;&gt;pakts473</title>
<path fill="none" stroke="#000000" d="M75.2649,-349.2693C84.1971,-337.8943 97.4473,-323.4321 112.4272,-315 122.2683,-309.4605 181.0907,-297.0828 224.8071,-288.3951"/>
<polygon fill="#000000" stroke="#000000" points="225.5858,-291.809 234.7177,-286.437 224.2289,-284.9417 225.5858,-291.809"/>
<text text-anchor="middle" x="121.4272" y="-318.8" font-family="Times,serif" font-size="14.00" fill="#000000">1.0</text>
</g>
<!-- PKC -->
<g id="node9" class="node">
<title>PKC</title>
<ellipse fill="none" stroke="#000000" cx="220.4272" cy="-453" rx="27.8951" ry="18"/>
<text text-anchor="middle" x="220.4272" y="-449.3" font-family="Times,serif" font-size="14.00" fill="#000000">PKC</text>
</g>
<!-- PKC&#45;&gt;pmek -->
<g id="edge6" class="edge">
<title>PKC&#45;&gt;pmek</title>
<path fill="none" stroke="#000000" d="M193.3046,-448.2601C141.0624,-438.5191 29.6602,-414.5727 7.4272,-384 -22.4975,-342.8504 50.4523,-308.1986 97.7806,-290.8768"/>
<polygon fill="#000000" stroke="#000000" points="99.1911,-294.0902 107.4448,-287.4475 96.8501,-287.4932 99.1911,-294.0902"/>
<text text-anchor="middle" x="16.4272" y="-362.3" font-family="Times,serif" font-size="14.00" fill="#000000">1.0</text>
</g>
<!-- PKC&#45;&gt;pakts473 -->
<g id="edge14" class="edge">
<title>PKC&#45;&gt;pakts473</title>
<path fill="none" stroke="#000000" d="M232.906,-436.5712C242.5644,-423.1069 255.5775,-403.2067 263.4272,-384 272.7284,-361.2419 272.7445,-354.4387 275.4272,-330 276.2421,-322.5765 276.3037,-314.5131 276.0196,-307.0359"/>
<polygon fill="#000000" stroke="#000000" points="279.5096,-306.7615 275.4304,-296.9835 272.5216,-307.1712 279.5096,-306.7615"/>
<text text-anchor="middle" x="282.4272" y="-362.3" font-family="Times,serif" font-size="14.00" fill="#000000">1.0</text>
</g>
<!-- PKC&#45;&gt;PKA -->
<g id="edge17" class="edge">
<title>PKC&#45;&gt;PKA</title>
<path fill="none" stroke="#000000" d="M198.9262,-441.0854C171.7557,-426.0292 124.8192,-400.0198 93.9459,-382.9116"/>
<polygon fill="#000000" stroke="#000000" points="95.3632,-379.6956 84.9199,-377.9099 91.9702,-385.8183 95.3632,-379.6956"/>
<text text-anchor="middle" x="160.4272" y="-405.8" font-family="Times,serif" font-size="14.00" fill="#000000">1.0</text>
</g>
<!-- P38 -->
<g id="node10" class="node">
<title>P38</title>
<ellipse fill="none" stroke="#000000" cx="278.4272" cy="-540" rx="27" ry="18"/>
<text text-anchor="middle" x="278.4272" y="-536.3" font-family="Times,serif" font-size="14.00" fill="#000000">P38</text>
</g>
<!-- P38&#45;&gt;pakts473 -->
<g id="edge15" class="edge">
<title>P38&#45;&gt;pakts473</title>
<path fill="none" stroke="#000000" d="M281.9884,-522.0129C288.2778,-488.0344 300.2534,-412.0689 295.4272,-348 294.313,-333.2078 294.7511,-329.1899 290.4272,-315 289.5099,-311.9896 288.3811,-308.9113 287.1452,-305.8844"/>
<polygon fill="#000000" stroke="#000000" points="290.2406,-304.233 282.9592,-296.5368 283.8519,-307.094 290.2406,-304.233"/>
<text text-anchor="middle" x="305.4272" y="-405.8" font-family="Times,serif" font-size="14.00" fill="#000000">1.0</text>
</g>
<!-- P38&#45;&gt;PKC -->
<g id="edge18" class="edge">
<title>P38&#45;&gt;PKC</title>
<path fill="none" stroke="#000000" d="M267.2442,-523.2255C258.739,-510.4677 246.8955,-492.7024 237.2489,-478.2325"/>
<polygon fill="#000000" stroke="#000000" points="240.0351,-476.102 231.5759,-469.723 234.2107,-479.985 240.0351,-476.102"/>
<text text-anchor="middle" x="262.4272" y="-492.8" font-family="Times,serif" font-size="14.00" fill="#000000">1.0</text>
</g>
<!-- pjnk -->
<g id="node11" class="node">
<title>pjnk</title>
<ellipse fill="none" stroke="#000000" cx="397.4272" cy="-366" rx="27" ry="18"/>
<text text-anchor="middle" x="397.4272" y="-362.3" font-family="Times,serif" font-size="14.00" fill="#000000">pjnk</text>
</g>
<!-- pjnk&#45;&gt;PIP2 -->
<g id="edge10" class="edge">
<title>pjnk&#45;&gt;PIP2</title>
<path fill="none" stroke="#000000" d="M399.0644,-348.022C400.5226,-330.4415 402.4272,-302.904 402.4272,-279 402.4272,-279 402.4272,-279 402.4272,-105 402.4272,-68.8919 293.2936,-39.1596 234.2805,-25.7217"/>
<polygon fill="#000000" stroke="#000000" points="234.7495,-22.2403 224.2274,-23.4795 233.2257,-29.0725 234.7495,-22.2403"/>
<text text-anchor="middle" x="411.4272" y="-188.3" font-family="Times,serif" font-size="14.00" fill="#000000">1.0</text>
</g>
<!-- pjnk&#45;&gt;pakts473 -->
<g id="edge16" class="edge">
<title>pjnk&#45;&gt;pakts473</title>
<path fill="none" stroke="#000000" d="M384.2019,-349.8551C374.7581,-339.0373 361.3135,-324.9985 347.4272,-315 337.1918,-307.6302 325.2156,-301.0622 313.9164,-295.6195"/>
<polygon fill="#000000" stroke="#000000" points="315.1821,-292.3485 304.6374,-291.3193 312.2388,-298.6996 315.1821,-292.3485"/>
<text text-anchor="middle" x="373.4272" y="-318.8" font-family="Times,serif" font-size="14.00" fill="#000000">1.0</text>
</g>
</g>
</svg>
