<?xml version="1.0" encoding="UTF-8" standalone="no"?>
<!DOCTYPE svg PUBLIC "-//W3C//DTD SVG 1.1//EN"
 "http://www.w3.org/Graphics/SVG/1.1/DTD/svg11.dtd">
<!-- Generated by graphviz version 2.40.1 (20161225.0304)
 -->
<!-- Title: %3 Pages: 1 -->
<svg width="339pt" height="305pt"
 viewBox="0.00 0.00 338.84 305.00" xmlns="http://www.w3.org/2000/svg" xmlns:xlink="http://www.w3.org/1999/xlink">
<g id="graph0" class="graph" transform="scale(1 1) rotate(0) translate(4 301)">
<title>%3</title>
<polygon fill="#ffffff" stroke="transparent" points="-4,4 -4,-301 334.8449,-301 334.8449,4 -4,4"/>
<!-- mpg -->
<g id="node1" class="node">
<title>mpg</title>
<ellipse fill="none" stroke="#000000" cx="248.8449" cy="-279" rx="27" ry="18"/>
<text text-anchor="middle" x="248.8449" y="-275.3" font-family="Times,serif" font-size="14.00" fill="#000000">mpg</text>
</g>
<!-- horsepower -->
<g id="node4" class="node">
<title>horsepower</title>
<ellipse fill="none" stroke="#000000" cx="176.8449" cy="-192" rx="51.9908" ry="18"/>
<text text-anchor="middle" x="176.8449" y="-188.3" font-family="Times,serif" font-size="14.00" fill="#000000">horsepower</text>
</g>
<!-- mpg&#45;&gt;horsepower -->
<g id="edge7" class="edge">
<title>mpg&#45;&gt;horsepower</title>
<path fill="none" stroke="#000000" d="M225.125,-270.1411C212.5475,-264.2753 197.8715,-255.3613 188.8449,-243 184.0707,-236.4622 181.1657,-228.3061 179.4072,-220.4471"/>
<polygon fill="#000000" stroke="#000000" points="182.8327,-219.7139 177.6952,-210.448 175.9331,-220.8952 182.8327,-219.7139"/>
<text text-anchor="middle" x="197.8449" y="-231.8" font-family="Times,serif" font-size="14.00" fill="#000000">1.0</text>
</g>
<!-- weight -->
<g id="node5" class="node">
<title>weight</title>
<ellipse fill="none" stroke="#000000" cx="183.8449" cy="-18" rx="34.394" ry="18"/>
<text text-anchor="middle" x="183.8449" y="-14.3" font-family="Times,serif" font-size="14.00" fill="#000000">weight</text>
</g>
<!-- mpg&#45;&gt;weight -->
<g id="edge10" class="edge">
<title>mpg&#45;&gt;weight</title>
<path fill="none" stroke="#000000" d="M253.0991,-260.9759C260.4617,-225.9675 272.6361,-146.9519 248.8449,-87 241.3854,-68.2027 226.1105,-51.5529 212.2419,-39.3201"/>
<polygon fill="#000000" stroke="#000000" points="214.2137,-36.405 204.3085,-32.6451 209.707,-41.7614 214.2137,-36.405"/>
<text text-anchor="middle" x="271.8449" y="-144.8" font-family="Times,serif" font-size="14.00" fill="#000000">1.0</text>
</g>
<!-- cylinders -->
<g id="node2" class="node">
<title>cylinders</title>
<ellipse fill="none" stroke="#000000" cx="74.8449" cy="-18" rx="42.7926" ry="18"/>
<text text-anchor="middle" x="74.8449" y="-14.3" font-family="Times,serif" font-size="14.00" fill="#000000">cylinders</text>
</g>
<!-- displacement -->
<g id="node3" class="node">
<title>displacement</title>
<ellipse fill="none" stroke="#000000" cx="57.8449" cy="-105" rx="57.6901" ry="18"/>
<text text-anchor="middle" x="57.8449" y="-101.3" font-family="Times,serif" font-size="14.00" fill="#000000">displacement</text>
</g>
<!-- cylinders&#45;&gt;displacement -->
<g id="edge4" class="edge">
<title>cylinders&#45;&gt;displacement</title>
<path fill="none" stroke="#000000" d="M71.327,-36.0034C69.0258,-47.7801 65.9716,-63.4102 63.3522,-76.8156"/>
<polygon fill="#000000" stroke="#000000" points="59.8501,-76.4879 61.3673,-86.9735 66.7201,-77.8304 59.8501,-76.4879"/>
<text text-anchor="middle" x="76.8449" y="-57.8" font-family="Times,serif" font-size="14.00" fill="#000000">1.0</text>
</g>
<!-- displacement&#45;&gt;cylinders -->
<g id="edge3" class="edge">
<title>displacement&#45;&gt;cylinders</title>
<path fill="none" stroke="#000000" d="M44.5976,-87.4115C38.8204,-77.5256 34.2889,-64.9991 38.8449,-54 40.7327,-49.4423 43.5085,-45.1608 46.6954,-41.2517"/>
<polygon fill="#000000" stroke="#000000" points="49.4012,-43.4821 53.6614,-33.7815 44.2817,-38.7081 49.4012,-43.4821"/>
<text text-anchor="middle" x="47.8449" y="-57.8" font-family="Times,serif" font-size="14.00" fill="#000000">1.0</text>
</g>
<!-- displacement&#45;&gt;horsepower -->
<g id="edge8" class="edge">
<title>displacement&#45;&gt;horsepower</title>
<path fill="none" stroke="#000000" d="M80.5321,-121.5865C99.1999,-135.2343 125.8315,-154.7045 146.3608,-169.7133"/>
<polygon fill="#000000" stroke="#000000" points="144.3235,-172.5595 154.4619,-175.636 148.4549,-166.9086 144.3235,-172.5595"/>
<text text-anchor="middle" x="133.8449" y="-144.8" font-family="Times,serif" font-size="14.00" fill="#000000">1.0</text>
</g>
<!-- displacement&#45;&gt;weight -->
<g id="edge11" class="edge">
<title>displacement&#45;&gt;weight</title>
<path fill="none" stroke="#000000" d="M81.8411,-88.4312C102.5164,-74.1554 132.4316,-53.4997 154.5224,-38.2465"/>
<polygon fill="#000000" stroke="#000000" points="156.6258,-41.0474 162.8661,-32.4853 152.6484,-35.2871 156.6258,-41.0474"/>
<text text-anchor="middle" x="137.8449" y="-57.8" font-family="Times,serif" font-size="14.00" fill="#000000">1.0</text>
</g>
<!-- horsepower&#45;&gt;mpg -->
<g id="edge1" class="edge">
<title>horsepower&#45;&gt;mpg</title>
<path fill="none" stroke="#000000" d="M193.867,-209.2035C199.4288,-215.0379 205.537,-221.6803 210.8449,-228 217.8753,-236.3706 225.151,-245.8942 231.431,-254.4272"/>
<polygon fill="#000000" stroke="#000000" points="228.6236,-256.5177 237.3331,-262.5505 234.2867,-252.4031 228.6236,-256.5177"/>
<text text-anchor="middle" x="230.8449" y="-231.8" font-family="Times,serif" font-size="14.00" fill="#000000">1.0</text>
</g>
<!-- horsepower&#45;&gt;displacement -->
<g id="edge5" class="edge">
<title>horsepower&#45;&gt;displacement</title>
<path fill="none" stroke="#000000" d="M128.9596,-184.9045C109.5863,-179.8008 88.4053,-171.0376 73.8449,-156 67.7872,-149.7438 64.0206,-141.221 61.6795,-132.9341"/>
<polygon fill="#000000" stroke="#000000" points="65.0796,-132.1007 59.4726,-123.1112 58.2498,-133.6352 65.0796,-132.1007"/>
<text text-anchor="middle" x="82.8449" y="-144.8" font-family="Times,serif" font-size="14.00" fill="#000000">1.0</text>
</g>
<!-- acceleration -->
<g id="node6" class="node">
<title>acceleration</title>
<ellipse fill="none" stroke="#000000" cx="186.8449" cy="-105" rx="53.0913" ry="18"/>
<text text-anchor="middle" x="186.8449" y="-101.3" font-family="Times,serif" font-size="14.00" fill="#000000">acceleration</text>
</g>
<!-- horsepower&#45;&gt;acceleration -->
<g id="edge12" class="edge">
<title>horsepower&#45;&gt;acceleration</title>
<path fill="none" stroke="#000000" d="M165.0275,-174.0621C160.0593,-164.2878 156.1851,-151.9792 159.8449,-141 161.0261,-137.4563 162.7079,-133.9806 164.6621,-130.671"/>
<polygon fill="#000000" stroke="#000000" points="167.5814,-132.6022 170.3145,-122.366 161.7945,-128.6637 167.5814,-132.6022"/>
<text text-anchor="middle" x="168.8449" y="-144.8" font-family="Times,serif" font-size="14.00" fill="#000000">1.0</text>
</g>
<!-- weight&#45;&gt;mpg -->
<g id="edge2" class="edge">
<title>weight&#45;&gt;mpg</title>
<path fill="none" stroke="#000000" d="M215.1625,-25.5184C240.6292,-32.3183 273.6395,-42.935 281.8449,-54 331.8798,-121.4722 314.5311,-165.6203 281.8449,-243 279.6592,-248.1743 276.3947,-253.0815 272.7561,-257.5133"/>
<polygon fill="#000000" stroke="#000000" points="270.1326,-255.1957 265.9549,-264.9321 275.2925,-259.926 270.1326,-255.1957"/>
<text text-anchor="middle" x="321.8449" y="-144.8" font-family="Times,serif" font-size="14.00" fill="#000000">1.0</text>
</g>
<!-- weight&#45;&gt;displacement -->
<g id="edge6" class="edge">
<title>weight&#45;&gt;displacement</title>
<path fill="none" stroke="#000000" d="M177.2343,-36.1756C172.4785,-47.0045 165.0884,-60.2917 154.8449,-69 147.352,-75.3699 128.5223,-82.877 109.4248,-89.383"/>
<polygon fill="#000000" stroke="#000000" points="108.1648,-86.1134 99.7758,-92.5846 110.3692,-92.7573 108.1648,-86.1134"/>
<text text-anchor="middle" x="176.8449" y="-57.8" font-family="Times,serif" font-size="14.00" fill="#000000">1.0</text>
</g>
<!-- acceleration&#45;&gt;horsepower -->
<g id="edge9" class="edge">
<title>acceleration&#45;&gt;horsepower</title>
<path fill="none" stroke="#000000" d="M184.7755,-123.0034C183.4219,-134.7801 181.6253,-150.4102 180.0844,-163.8156"/>
<polygon fill="#000000" stroke="#000000" points="176.5818,-163.6393 178.9169,-173.9735 183.536,-164.4387 176.5818,-163.6393"/>
<text text-anchor="middle" x="191.8449" y="-144.8" font-family="Times,serif" font-size="14.00" fill="#000000">1.0</text>
</g>
</g>
</svg>
