<?xml version="1.0" encoding="UTF-8" standalone="no"?>
<!DOCTYPE svg PUBLIC "-//W3C//DTD SVG 1.1//EN"
 "http://www.w3.org/Graphics/SVG/1.1/DTD/svg11.dtd">
<!-- Generated by graphviz version 2.43.0 (0)
 -->
<!-- Title: %3 Pages: 1 -->
<svg width="467pt" height="218pt"
 viewBox="0.00 0.00 467.42 218.00" xmlns="http://www.w3.org/2000/svg" xmlns:xlink="http://www.w3.org/1999/xlink">
<g id="graph0" class="graph" transform="scale(1 1) rotate(0) translate(4 214)">
<title>%3</title>
<polygon fill="white" stroke="transparent" points="-4,4 -4,-214 463.42,-214 463.42,4 -4,4"/>
<!-- mpg -->
<g id="node1" class="node">
<title>mpg</title>
<ellipse fill="none" stroke="black" cx="181.42" cy="-192" rx="31.4" ry="18"/>
<text text-anchor="middle" x="181.42" y="-188.3" font-family="Times,serif" font-size="14.00">mpg</text>
</g>
<!-- displacement -->
<g id="node3" class="node">
<title>displacement</title>
<ellipse fill="none" stroke="black" cx="227.42" cy="-105" rx="72.59" ry="18"/>
<text text-anchor="middle" x="227.42" y="-101.3" font-family="Times,serif" font-size="14.00">displacement</text>
</g>
<!-- mpg&#45;&gt;displacement -->
<g id="edge5" class="edge">
<title>mpg&#45;&gt;displacement</title>
<path fill="none" stroke="black" d="M176.19,-173.89C174.1,-163.79 173.25,-151.05 178.42,-141 180.96,-136.06 184.56,-131.67 188.66,-127.8"/>
<polygon fill="black" stroke="black" points="190.95,-130.45 196.48,-121.41 186.52,-125.03 190.95,-130.45"/>
<text text-anchor="middle" x="189.92" y="-144.8" font-family="Times,serif" font-size="14.00">1.0</text>
</g>
<!-- horsepower -->
<g id="node4" class="node">
<title>horsepower</title>
<ellipse fill="none" stroke="black" cx="74.42" cy="-18" rx="65.79" ry="18"/>
<text text-anchor="middle" x="74.42" y="-14.3" font-family="Times,serif" font-size="14.00">horsepower</text>
</g>
<!-- mpg&#45;&gt;horsepower -->
<g id="edge10" class="edge">
<title>mpg&#45;&gt;horsepower</title>
<path fill="none" stroke="black" d="M152.46,-185.01C122.38,-176.93 77.74,-159.16 63.42,-123 53.59,-98.19 58.67,-67.6 64.78,-46.03"/>
<polygon fill="black" stroke="black" points="68.2,-46.82 67.8,-36.24 61.51,-44.76 68.2,-46.82"/>
<text text-anchor="middle" x="74.92" y="-101.3" font-family="Times,serif" font-size="14.00">1.0</text>
</g>
<!-- weight -->
<g id="node5" class="node">
<title>weight</title>
<ellipse fill="none" stroke="black" cx="375.42" cy="-18" rx="42.49" ry="18"/>
<text text-anchor="middle" x="375.42" y="-14.3" font-family="Times,serif" font-size="14.00">weight</text>
</g>
<!-- mpg&#45;&gt;weight -->
<g id="edge13" class="edge">
<title>mpg&#45;&gt;weight</title>
<path fill="none" stroke="black" d="M205.29,-180.12C210.54,-177.93 216.12,-175.77 221.42,-174 253.12,-163.43 266.43,-174.26 294.42,-156 335.29,-129.33 339.55,-112.63 361.42,-69 364.97,-61.91 367.74,-53.78 369.84,-46.17"/>
<polygon fill="black" stroke="black" points="373.28,-46.81 372.3,-36.26 366.49,-45.13 373.28,-46.81"/>
<text text-anchor="middle" x="362.92" y="-101.3" font-family="Times,serif" font-size="14.00">1.0</text>
</g>
<!-- cylinders -->
<g id="node2" class="node">
<title>cylinders</title>
<ellipse fill="none" stroke="black" cx="228.42" cy="-18" rx="53.09" ry="18"/>
<text text-anchor="middle" x="228.42" y="-14.3" font-family="Times,serif" font-size="14.00">cylinders</text>
</g>
<!-- cylinders&#45;&gt;displacement -->
<g id="edge6" class="edge">
<title>cylinders&#45;&gt;displacement</title>
<path fill="none" stroke="black" d="M212.18,-35.46C207.82,-40.92 203.7,-47.32 201.42,-54 198.53,-62.48 201.03,-71.29 205.44,-79.1"/>
<polygon fill="black" stroke="black" points="202.56,-81.09 211.04,-87.44 208.37,-77.19 202.56,-81.09"/>
<text text-anchor="middle" x="212.92" y="-57.8" font-family="Times,serif" font-size="14.00">1.0</text>
</g>
<!-- displacement&#45;&gt;mpg -->
<g id="edge1" class="edge">
<title>displacement&#45;&gt;mpg</title>
<path fill="none" stroke="black" d="M220.85,-123.04C216.82,-132.89 211.32,-145.39 205.42,-156 203.46,-159.52 201.24,-163.13 198.97,-166.64"/>
<polygon fill="black" stroke="black" points="196,-164.78 193.3,-175.02 201.8,-168.7 196,-164.78"/>
<text text-anchor="middle" x="224.92" y="-144.8" font-family="Times,serif" font-size="14.00">1.0</text>
</g>
<!-- displacement&#45;&gt;cylinders -->
<g id="edge4" class="edge">
<title>displacement&#45;&gt;cylinders</title>
<path fill="none" stroke="black" d="M227.62,-86.8C227.76,-75.16 227.94,-59.55 228.1,-46.24"/>
<polygon fill="black" stroke="black" points="231.6,-46.22 228.22,-36.18 224.6,-46.13 231.6,-46.22"/>
<text text-anchor="middle" x="239.92" y="-57.8" font-family="Times,serif" font-size="14.00">1.0</text>
</g>
<!-- displacement&#45;&gt;horsepower -->
<g id="edge11" class="edge">
<title>displacement&#45;&gt;horsepower</title>
<path fill="none" stroke="black" d="M171.58,-93.38C152.68,-88.07 132.14,-80.28 115.42,-69 105.83,-62.53 97.31,-53.17 90.56,-44.29"/>
<polygon fill="black" stroke="black" points="93.32,-42.13 84.66,-36.03 87.63,-46.2 93.32,-42.13"/>
<text text-anchor="middle" x="126.92" y="-57.8" font-family="Times,serif" font-size="14.00">1.0</text>
</g>
<!-- displacement&#45;&gt;weight -->
<g id="edge14" class="edge">
<title>displacement&#45;&gt;weight</title>
<path fill="none" stroke="black" d="M269.88,-90.21C284.77,-84.59 301.29,-77.41 315.42,-69 328.23,-61.38 341.11,-51.08 351.63,-41.81"/>
<polygon fill="black" stroke="black" points="354.11,-44.28 359.18,-34.98 349.41,-39.09 354.11,-44.28"/>
<text text-anchor="middle" x="348.92" y="-57.8" font-family="Times,serif" font-size="14.00">1.0</text>
</g>
<!-- horsepower&#45;&gt;mpg -->
<g id="edge2" class="edge">
<title>horsepower&#45;&gt;mpg</title>
<path fill="none" stroke="black" d="M49.35,-34.91C32.98,-46.94 13.09,-65.1 4.42,-87 -1.47,-101.88 -1.47,-108.12 4.42,-123 24.72,-174.25 94.19,-187.55 139.83,-190.62"/>
<polygon fill="black" stroke="black" points="139.85,-194.12 150.02,-191.16 140.22,-187.13 139.85,-194.12"/>
<text text-anchor="middle" x="15.92" y="-101.3" font-family="Times,serif" font-size="14.00">1.0</text>
</g>
<!-- horsepower&#45;&gt;displacement -->
<g id="edge7" class="edge">
<title>horsepower&#45;&gt;displacement</title>
<path fill="none" stroke="black" d="M102.17,-34.42C126.81,-48.11 163.01,-68.22 190.17,-83.3"/>
<polygon fill="black" stroke="black" points="188.56,-86.41 199,-88.21 191.96,-80.3 188.56,-86.41"/>
<text text-anchor="middle" x="171.92" y="-57.8" font-family="Times,serif" font-size="14.00">1.0</text>
</g>
<!-- weight&#45;&gt;mpg -->
<g id="edge3" class="edge">
<title>weight&#45;&gt;mpg</title>
<path fill="none" stroke="black" d="M381.85,-35.84C383.71,-41.52 385.49,-47.96 386.42,-54 393.6,-100.83 392.72,-126.78 355.42,-156 308.11,-193.06 279.37,-158.11 221.42,-174 219.09,-174.64 216.71,-175.39 214.34,-176.2"/>
<polygon fill="black" stroke="black" points="212.84,-173.03 204.73,-179.86 215.32,-179.57 212.84,-173.03"/>
<text text-anchor="middle" x="400.92" y="-101.3" font-family="Times,serif" font-size="14.00">1.0</text>
</g>
<!-- weight&#45;&gt;displacement -->
<g id="edge8" class="edge">
<title>weight&#45;&gt;displacement</title>
<path fill="none" stroke="black" d="M343.76,-30.14C327.89,-36.27 308.63,-44.56 292.42,-54 279.05,-61.78 265.33,-71.96 253.95,-81.11"/>
<polygon fill="black" stroke="black" points="251.63,-78.48 246.12,-87.53 256.07,-83.89 251.63,-78.48"/>
<text text-anchor="middle" x="303.92" y="-57.8" font-family="Times,serif" font-size="14.00">1.0</text>
</g>
<!-- acceleration -->
<g id="node6" class="node">
<title>acceleration</title>
<ellipse fill="none" stroke="black" cx="298.42" cy="-192" rx="67.69" ry="18"/>
<text text-anchor="middle" x="298.42" y="-188.3" font-family="Times,serif" font-size="14.00">acceleration</text>
</g>
<!-- acceleration&#45;&gt;displacement -->
<g id="edge9" class="edge">
<title>acceleration&#45;&gt;displacement</title>
<path fill="none" stroke="black" d="M284.39,-174.21C273.99,-161.75 259.64,-144.57 247.95,-130.57"/>
<polygon fill="black" stroke="black" points="250.51,-128.19 241.42,-122.76 245.14,-132.68 250.51,-128.19"/>
<text text-anchor="middle" x="278.92" y="-144.8" font-family="Times,serif" font-size="14.00">1.0</text>
</g>
<!-- acceleration&#45;&gt;horsepower -->
<g id="edge12" class="edge">
<title>acceleration&#45;&gt;horsepower</title>
<path fill="none" stroke="black" d="M249.85,-179.34C220.25,-171.9 185.5,-162.47 171.42,-156 147.56,-145.04 139.6,-142.85 122.42,-123 102.78,-100.31 89.62,-68.24 82.12,-45.73"/>
<polygon fill="black" stroke="black" points="85.43,-44.59 79.07,-36.12 78.76,-46.71 85.43,-44.59"/>
<text text-anchor="middle" x="133.92" y="-101.3" font-family="Times,serif" font-size="14.00">1.0</text>
</g>
<!-- acceleration&#45;&gt;weight -->
<g id="edge15" class="edge">
<title>acceleration&#45;&gt;weight</title>
<path fill="none" stroke="black" d="M358.51,-183.57C378.28,-178.54 399.1,-170.11 414.42,-156 447.76,-125.29 440.29,-91.23 414.42,-54 411.24,-49.42 407.35,-45.03 403.27,-41"/>
<polygon fill="black" stroke="black" points="405.57,-38.36 395.83,-34.17 400.83,-43.52 405.57,-38.36"/>
<text text-anchor="middle" x="447.92" y="-101.3" font-family="Times,serif" font-size="14.00">1.0</text>
</g>
</g>
</svg>
