<?xml version="1.0" encoding="UTF-8" standalone="no"?>
<!DOCTYPE svg PUBLIC "-//W3C//DTD SVG 1.1//EN"
 "http://www.w3.org/Graphics/SVG/1.1/DTD/svg11.dtd">
<!-- Generated by graphviz version 2.43.0 (0)
 -->
<!-- Title: %3 Pages: 1 -->
<svg width="406pt" height="305pt"
 viewBox="0.00 0.00 405.79 305.00" xmlns="http://www.w3.org/2000/svg" xmlns:xlink="http://www.w3.org/1999/xlink">
<g id="graph0" class="graph" transform="scale(1 1) rotate(0) translate(4 301)">
<title>%3</title>
<polygon fill="white" stroke="transparent" points="-4,4 -4,-301 401.79,-301 401.79,4 -4,4"/>
<!-- mpg -->
<g id="node1" class="node">
<title>mpg</title>
<ellipse fill="none" stroke="black" cx="304.79" cy="-279" rx="31.4" ry="18"/>
<text text-anchor="middle" x="304.79" y="-275.3" font-family="Times,serif" font-size="14.00">mpg</text>
</g>
<!-- horsepower -->
<g id="node4" class="node">
<title>horsepower</title>
<ellipse fill="none" stroke="black" cx="219.79" cy="-192" rx="65.79" ry="18"/>
<text text-anchor="middle" x="219.79" y="-188.3" font-family="Times,serif" font-size="14.00">horsepower</text>
</g>
<!-- mpg&#45;&gt;horsepower -->
<g id="edge7" class="edge">
<title>mpg&#45;&gt;horsepower</title>
<path fill="none" stroke="black" d="M277.02,-270.4C262.23,-265.01 244.85,-256.32 233.79,-243 228.45,-236.56 225.14,-228.22 223.09,-220.2"/>
<polygon fill="black" stroke="black" points="226.52,-219.5 221.12,-210.38 219.66,-220.88 226.52,-219.5"/>
<text text-anchor="middle" x="245.29" y="-231.8" font-family="Times,serif" font-size="14.00">1.0</text>
</g>
<!-- weight -->
<g id="node5" class="node">
<title>weight</title>
<ellipse fill="none" stroke="black" cx="216.79" cy="-18" rx="42.49" ry="18"/>
<text text-anchor="middle" x="216.79" y="-14.3" font-family="Times,serif" font-size="14.00">weight</text>
</g>
<!-- mpg&#45;&gt;weight -->
<g id="edge10" class="edge">
<title>mpg&#45;&gt;weight</title>
<path fill="none" stroke="black" d="M310.01,-261.02C319.69,-226.2 336.91,-145.11 307.79,-87 296.53,-64.52 273.92,-47.57 254.06,-36.21"/>
<polygon fill="black" stroke="black" points="255.63,-33.09 245.17,-31.39 252.29,-39.24 255.63,-33.09"/>
<text text-anchor="middle" x="335.29" y="-144.8" font-family="Times,serif" font-size="14.00">1.0</text>
</g>
<!-- cylinders -->
<g id="node2" class="node">
<title>cylinders</title>
<ellipse fill="none" stroke="black" cx="90.79" cy="-18" rx="53.09" ry="18"/>
<text text-anchor="middle" x="90.79" y="-14.3" font-family="Times,serif" font-size="14.00">cylinders</text>
</g>
<!-- displacement -->
<g id="node3" class="node">
<title>displacement</title>
<ellipse fill="none" stroke="black" cx="72.79" cy="-105" rx="72.59" ry="18"/>
<text text-anchor="middle" x="72.79" y="-101.3" font-family="Times,serif" font-size="14.00">displacement</text>
</g>
<!-- cylinders&#45;&gt;displacement -->
<g id="edge4" class="edge">
<title>cylinders&#45;&gt;displacement</title>
<path fill="none" stroke="black" d="M87.16,-36.18C84.69,-47.81 81.39,-63.42 78.57,-76.73"/>
<polygon fill="black" stroke="black" points="75.08,-76.29 76.44,-86.8 81.93,-77.74 75.08,-76.29"/>
<text text-anchor="middle" x="95.29" y="-57.8" font-family="Times,serif" font-size="14.00">1.0</text>
</g>
<!-- displacement&#45;&gt;cylinders -->
<g id="edge3" class="edge">
<title>displacement&#45;&gt;cylinders</title>
<path fill="none" stroke="black" d="M58.03,-87.29C51.28,-77.55 45.78,-65.05 50.79,-54 52.93,-49.29 56.05,-44.96 59.62,-41.08"/>
<polygon fill="black" stroke="black" points="62.05,-43.59 66.9,-34.17 57.24,-38.52 62.05,-43.59"/>
<text text-anchor="middle" x="62.29" y="-57.8" font-family="Times,serif" font-size="14.00">1.0</text>
</g>
<!-- displacement&#45;&gt;horsepower -->
<g id="edge8" class="edge">
<title>displacement&#45;&gt;horsepower</title>
<path fill="none" stroke="black" d="M100.08,-121.78C123.76,-135.47 158.2,-155.39 184.07,-170.34"/>
<polygon fill="black" stroke="black" points="182.42,-173.43 192.83,-175.41 185.93,-167.37 182.42,-173.43"/>
<text text-anchor="middle" x="167.29" y="-144.8" font-family="Times,serif" font-size="14.00">1.0</text>
</g>
<!-- displacement&#45;&gt;weight -->
<g id="edge11" class="edge">
<title>displacement&#45;&gt;weight</title>
<path fill="none" stroke="black" d="M99.54,-88.21C123.55,-74.04 158.85,-53.2 184.44,-38.1"/>
<polygon fill="black" stroke="black" points="186.22,-41.11 193.05,-33.01 182.66,-35.08 186.22,-41.11"/>
<text text-anchor="middle" x="165.29" y="-57.8" font-family="Times,serif" font-size="14.00">1.0</text>
</g>
<!-- horsepower&#45;&gt;mpg -->
<g id="edge1" class="edge">
<title>horsepower&#45;&gt;mpg</title>
<path fill="none" stroke="black" d="M239.9,-209.18C246.72,-214.93 254.26,-221.56 260.79,-228 269.16,-236.24 277.81,-245.81 285.21,-254.36"/>
<polygon fill="black" stroke="black" points="282.71,-256.83 291.86,-262.17 288.04,-252.28 282.71,-256.83"/>
<text text-anchor="middle" x="286.29" y="-231.8" font-family="Times,serif" font-size="14.00">1.0</text>
</g>
<!-- horsepower&#45;&gt;displacement -->
<g id="edge5" class="edge">
<title>horsepower&#45;&gt;displacement</title>
<path fill="none" stroke="black" d="M161.97,-183.33C141.01,-178.28 118.22,-169.9 100.79,-156 93.02,-149.8 87.06,-140.83 82.67,-132.19"/>
<polygon fill="black" stroke="black" points="85.85,-130.74 78.51,-123.1 79.48,-133.65 85.85,-130.74"/>
<text text-anchor="middle" x="112.29" y="-144.8" font-family="Times,serif" font-size="14.00">1.0</text>
</g>
<!-- acceleration -->
<g id="node6" class="node">
<title>acceleration</title>
<ellipse fill="none" stroke="black" cx="230.79" cy="-105" rx="67.69" ry="18"/>
<text text-anchor="middle" x="230.79" y="-101.3" font-family="Times,serif" font-size="14.00">acceleration</text>
</g>
<!-- horsepower&#45;&gt;acceleration -->
<g id="edge12" class="edge">
<title>horsepower&#45;&gt;acceleration</title>
<path fill="none" stroke="black" d="M205.12,-174.01C198.64,-164.39 193.38,-152.11 197.79,-141 199.31,-137.18 201.46,-133.53 203.95,-130.14"/>
<polygon fill="black" stroke="black" points="206.85,-132.14 210.66,-122.25 201.52,-127.6 206.85,-132.14"/>
<text text-anchor="middle" x="209.29" y="-144.8" font-family="Times,serif" font-size="14.00">1.0</text>
</g>
<!-- weight&#45;&gt;mpg -->
<g id="edge2" class="edge">
<title>weight&#45;&gt;mpg</title>
<path fill="none" stroke="black" d="M259.09,-19.5C286.57,-22.22 320.86,-30.58 340.79,-54 395.23,-117.97 377.86,-167.62 340.79,-243 338.29,-248.08 334.74,-252.84 330.83,-257.11"/>
<polygon fill="black" stroke="black" points="328.26,-254.74 323.57,-264.24 333.16,-259.74 328.26,-254.74"/>
<text text-anchor="middle" x="386.29" y="-144.8" font-family="Times,serif" font-size="14.00">1.0</text>
</g>
<!-- weight&#45;&gt;displacement -->
<g id="edge6" class="edge">
<title>weight&#45;&gt;displacement</title>
<path fill="none" stroke="black" d="M209.99,-36.06C204.85,-46.92 196.78,-60.5 185.79,-69 172.81,-79.04 156.92,-86.22 141.2,-91.35"/>
<polygon fill="black" stroke="black" points="140.03,-88.05 131.47,-94.29 142.05,-94.75 140.03,-88.05"/>
<text text-anchor="middle" x="211.29" y="-57.8" font-family="Times,serif" font-size="14.00">1.0</text>
</g>
<!-- acceleration&#45;&gt;horsepower -->
<g id="edge9" class="edge">
<title>acceleration&#45;&gt;horsepower</title>
<path fill="none" stroke="black" d="M228.57,-123.18C227.07,-134.81 225.05,-150.42 223.32,-163.73"/>
<polygon fill="black" stroke="black" points="219.83,-163.43 222.02,-173.8 226.77,-164.33 219.83,-163.43"/>
<text text-anchor="middle" x="238.29" y="-144.8" font-family="Times,serif" font-size="14.00">1.0</text>
</g>
</g>
</svg>
